M48
; DRILL file {KiCad 8.0.5} date 2024-10-11T15:04:05+0100
; FORMAT={-:-/ absolute / inch / decimal}
; #@! TF.CreationDate,2024-10-11T15:04:05+01:00
; #@! TF.GenerationSoftware,Kicad,Pcbnew,8.0.5
; #@! TF.FileFunction,Plated,1,2,PTH
FMAT,2
INCH
; #@! TA.AperFunction,Plated,PTH,ComponentDrill
T1C0.0320
; #@! TA.AperFunction,Plated,PTH,ComponentDrill
T2C0.0394
; #@! TA.AperFunction,Plated,PTH,ComponentDrill
T3C0.0402
; #@! TA.AperFunction,Plated,PTH,ComponentDrill
T4C0.0429
%
G90
G05
T1
X2.7Y-1.1
X2.7Y-1.6
X2.7Y-2.1
X2.7Y-2.6
X2.8Y-1.0
X2.8Y-1.2
X2.8Y-1.5
X2.8Y-1.7
X2.8Y-2.0
X2.8Y-2.2
X2.8Y-2.5
X2.8Y-2.7
T2
X1.3Y-0.75
X1.3Y-0.85
X1.3Y-0.95
X1.3Y-1.05
X1.3Y-1.15
X1.3Y-1.25
X1.3Y-1.35
X1.3Y-1.45
X1.3Y-1.55
X1.3Y-1.65
X1.3Y-1.75
X1.3Y-1.85
X1.3Y-1.95
X1.3Y-2.05
X1.3Y-2.15
X1.3Y-2.25
X2.1Y-1.15
X2.1Y-1.25
X2.1Y-1.35
X2.1Y-1.45
X2.1Y-1.55
X2.1Y-1.65
X2.1Y-1.75
X2.1Y-1.85
X2.1Y-1.95
X2.1Y-2.05
X2.1Y-2.15
X2.1Y-2.25
T3
X0.8Y-2.0472
X0.8Y-2.1472
X0.8Y-2.2472
X0.8Y-2.3472
X1.532Y-3.2893
X1.632Y-3.2893
X1.732Y-3.2893
X1.832Y-3.2893
T4
X1.2Y-3.6
X1.3Y-3.6
X1.4Y-3.6
X1.5Y-3.6
X1.6Y-3.6
X1.7Y-3.6
X1.8Y-3.6
X1.9Y-3.6
X2.0Y-3.6
X2.1Y-3.6
M30
