%TF.GenerationSoftware,KiCad,Pcbnew,8.0.5*%
%TF.CreationDate,2024-10-11T15:03:24+01:00*%
%TF.ProjectId,ribboncontroller,72696262-6f6e-4636-9f6e-74726f6c6c65,rev?*%
%TF.SameCoordinates,Original*%
%TF.FileFunction,Soldermask,Top*%
%TF.FilePolarity,Negative*%
%FSLAX46Y46*%
G04 Gerber Fmt 4.6, Leading zero omitted, Abs format (unit mm)*
G04 Created by KiCad (PCBNEW 8.0.5) date 2024-10-11 15:03:24*
%MOMM*%
%LPD*%
G01*
G04 APERTURE LIST*
G04 Aperture macros list*
%AMRoundRect*
0 Rectangle with rounded corners*
0 $1 Rounding radius*
0 $2 $3 $4 $5 $6 $7 $8 $9 X,Y pos of 4 corners*
0 Add a 4 corners polygon primitive as box body*
4,1,4,$2,$3,$4,$5,$6,$7,$8,$9,$2,$3,0*
0 Add four circle primitives for the rounded corners*
1,1,$1+$1,$2,$3*
1,1,$1+$1,$4,$5*
1,1,$1+$1,$6,$7*
1,1,$1+$1,$8,$9*
0 Add four rect primitives between the rounded corners*
20,1,$1+$1,$2,$3,$4,$5,0*
20,1,$1+$1,$4,$5,$6,$7,0*
20,1,$1+$1,$6,$7,$8,$9,0*
20,1,$1+$1,$8,$9,$2,$3,0*%
G04 Aperture macros list end*
%ADD10C,2.020000*%
%ADD11RoundRect,0.250000X-1.050000X-0.550000X1.050000X-0.550000X1.050000X0.550000X-1.050000X0.550000X0*%
%ADD12O,2.600000X1.600000*%
%ADD13RoundRect,0.250000X-0.450000X0.350000X-0.450000X-0.350000X0.450000X-0.350000X0.450000X0.350000X0*%
%ADD14C,1.320800*%
%ADD15R,1.320800X1.320800*%
%ADD16C,1.000000*%
%ADD17RoundRect,0.101600X-0.750000X0.500000X-0.750000X-0.500000X0.750000X-0.500000X0.750000X0.500000X0*%
%ADD18RoundRect,0.101600X2.300000X-0.500000X2.300000X0.500000X-2.300000X0.500000X-2.300000X-0.500000X0*%
%ADD19RoundRect,0.101600X1.700000X0.800000X-1.700000X0.800000X-1.700000X-0.800000X1.700000X-0.800000X0*%
%ADD20R,1.635000X1.635000*%
%ADD21C,1.635000*%
G04 APERTURE END LIST*
D10*
%TO.C,J3*%
X46533134Y-83548351D03*
X43993134Y-83548351D03*
X41453134Y-83548351D03*
X38913134Y-83548351D03*
%TD*%
%TO.C,J2*%
X20320000Y-59620000D03*
X20320000Y-57080000D03*
X20320000Y-54540000D03*
X20320000Y-52000000D03*
%TD*%
D11*
%TO.C,A2*%
X33320000Y-19050000D03*
D12*
X33320000Y-21590000D03*
X33320000Y-24130000D03*
X33320000Y-26670000D03*
X33320000Y-29210000D03*
X33320000Y-31750000D03*
X33320000Y-34290000D03*
X33320000Y-36830000D03*
X33320000Y-39370000D03*
X33320000Y-41910000D03*
X33320000Y-44450000D03*
X33320000Y-46990000D03*
X33320000Y-49530000D03*
X33320000Y-52070000D03*
X33320000Y-54610000D03*
X33320000Y-57150000D03*
X53040000Y-57150000D03*
X53040000Y-54610000D03*
X53040000Y-52070000D03*
X53040000Y-49530000D03*
X53040000Y-46990000D03*
X53040000Y-44450000D03*
X53040000Y-41910000D03*
X53040000Y-39370000D03*
X53040000Y-36830000D03*
X53040000Y-34290000D03*
X53040000Y-31750000D03*
X53040000Y-29210000D03*
%TD*%
D13*
%TO.C,R4*%
X60960000Y-65040000D03*
X60960000Y-67040000D03*
%TD*%
D14*
%TO.C,R8*%
X71120000Y-63500000D03*
D15*
X68580000Y-66040000D03*
X71120000Y-68580000D03*
%TD*%
D16*
%TO.C,SW1*%
X20320000Y-16590000D03*
X20320000Y-19590000D03*
D17*
X23120000Y-15590000D03*
X17520000Y-15590000D03*
X23120000Y-18090000D03*
X17520000Y-18090000D03*
X23120000Y-20590000D03*
X17520000Y-20590000D03*
%TD*%
D14*
%TO.C,R6*%
X71120000Y-38100000D03*
D15*
X68580000Y-40640000D03*
X71120000Y-43180000D03*
%TD*%
D13*
%TO.C,R2*%
X60960000Y-38100000D03*
X60960000Y-40100000D03*
%TD*%
D18*
%TO.C,X1*%
X24020000Y-28940000D03*
X24020000Y-26940000D03*
D19*
X18820000Y-31340000D03*
X18820000Y-24540000D03*
%TD*%
D13*
%TO.C,R3*%
X60960000Y-52340000D03*
X60960000Y-54340000D03*
%TD*%
%TO.C,R1*%
X60960000Y-27940000D03*
X60960000Y-29940000D03*
%TD*%
D14*
%TO.C,R5*%
X71120000Y-25400000D03*
D15*
X68580000Y-27940000D03*
X71120000Y-30480000D03*
%TD*%
D20*
%TO.C,J1*%
X30480000Y-91440000D03*
D21*
X33020000Y-91440000D03*
X35560000Y-91440000D03*
X38100000Y-91440000D03*
X40640000Y-91440000D03*
X43180000Y-91440000D03*
X45720000Y-91440000D03*
X48260000Y-91440000D03*
X50800000Y-91440000D03*
X53340000Y-91440000D03*
%TD*%
D14*
%TO.C,R7*%
X71120000Y-50800000D03*
D15*
X68580000Y-53340000D03*
X71120000Y-55880000D03*
%TD*%
M02*
