%TF.GenerationSoftware,KiCad,Pcbnew,8.0.5*%
%TF.CreationDate,2024-10-11T15:03:24+01:00*%
%TF.ProjectId,ribboncontroller,72696262-6f6e-4636-9f6e-74726f6c6c65,rev?*%
%TF.SameCoordinates,Original*%
%TF.FileFunction,Copper,L2,Bot*%
%TF.FilePolarity,Positive*%
%FSLAX46Y46*%
G04 Gerber Fmt 4.6, Leading zero omitted, Abs format (unit mm)*
G04 Created by KiCad (PCBNEW 8.0.5) date 2024-10-11 15:03:24*
%MOMM*%
%LPD*%
G01*
G04 APERTURE LIST*
G04 Aperture macros list*
%AMRoundRect*
0 Rectangle with rounded corners*
0 $1 Rounding radius*
0 $2 $3 $4 $5 $6 $7 $8 $9 X,Y pos of 4 corners*
0 Add a 4 corners polygon primitive as box body*
4,1,4,$2,$3,$4,$5,$6,$7,$8,$9,$2,$3,0*
0 Add four circle primitives for the rounded corners*
1,1,$1+$1,$2,$3*
1,1,$1+$1,$4,$5*
1,1,$1+$1,$6,$7*
1,1,$1+$1,$8,$9*
0 Add four rect primitives between the rounded corners*
20,1,$1+$1,$2,$3,$4,$5,0*
20,1,$1+$1,$4,$5,$6,$7,0*
20,1,$1+$1,$6,$7,$8,$9,0*
20,1,$1+$1,$8,$9,$2,$3,0*%
G04 Aperture macros list end*
%TA.AperFunction,ComponentPad*%
%ADD10C,2.020000*%
%TD*%
%TA.AperFunction,ComponentPad*%
%ADD11RoundRect,0.250000X-1.050000X-0.550000X1.050000X-0.550000X1.050000X0.550000X-1.050000X0.550000X0*%
%TD*%
%TA.AperFunction,ComponentPad*%
%ADD12O,2.600000X1.600000*%
%TD*%
%TA.AperFunction,ComponentPad*%
%ADD13C,1.320800*%
%TD*%
%TA.AperFunction,ComponentPad*%
%ADD14R,1.320800X1.320800*%
%TD*%
%TA.AperFunction,ComponentPad*%
%ADD15R,1.635000X1.635000*%
%TD*%
%TA.AperFunction,ComponentPad*%
%ADD16C,1.635000*%
%TD*%
%TA.AperFunction,Conductor*%
%ADD17C,1.200000*%
%TD*%
%TA.AperFunction,Conductor*%
%ADD18C,0.200000*%
%TD*%
G04 APERTURE END LIST*
D10*
%TO.P,J3,4*%
%TO.N,Net-(J2-Pad1)*%
X46533134Y-83548351D03*
%TO.P,J3,3*%
%TO.N,Net-(J2-Pad2)*%
X43993134Y-83548351D03*
%TO.P,J3,2*%
%TO.N,Net-(J2-Pad3)*%
X41453134Y-83548351D03*
%TO.P,J3,1*%
%TO.N,Net-(J2-Pad4)*%
X38913134Y-83548351D03*
%TD*%
%TO.P,J2,4*%
%TO.N,Net-(J2-Pad4)*%
X20320000Y-59620000D03*
%TO.P,J2,3*%
%TO.N,Net-(J2-Pad3)*%
X20320000Y-57080000D03*
%TO.P,J2,2*%
%TO.N,Net-(J2-Pad2)*%
X20320000Y-54540000D03*
%TO.P,J2,1*%
%TO.N,Net-(J2-Pad1)*%
X20320000Y-52000000D03*
%TD*%
D11*
%TO.P,A2,1,~{RESET}*%
%TO.N,unconnected-(A2-~{RESET}-Pad1)*%
X33320000Y-19050000D03*
D12*
%TO.P,A2,2,3V3*%
%TO.N,+3.3V*%
X33320000Y-21590000D03*
%TO.P,A2,3,AREF*%
%TO.N,unconnected-(A2-AREF-Pad3)*%
X33320000Y-24130000D03*
%TO.P,A2,4,GND*%
%TO.N,-BATT*%
X33320000Y-26670000D03*
%TO.P,A2,5,A0*%
%TO.N,Net-(A2-A0)*%
X33320000Y-29210000D03*
%TO.P,A2,6,A1*%
%TO.N,Net-(A2-A1)*%
X33320000Y-31750000D03*
%TO.P,A2,7,A2*%
%TO.N,Net-(A2-A2)*%
X33320000Y-34290000D03*
%TO.P,A2,8,A3*%
%TO.N,Net-(A2-A3)*%
X33320000Y-36830000D03*
%TO.P,A2,9,A4*%
%TO.N,unconnected-(A2-A4-Pad9)*%
X33320000Y-39370000D03*
%TO.P,A2,10,A5*%
%TO.N,unconnected-(A2-A5-Pad10)*%
X33320000Y-41910000D03*
%TO.P,A2,11,SCK*%
%TO.N,unconnected-(A2-SCK-Pad11)*%
X33320000Y-44450000D03*
%TO.P,A2,12,MOSI*%
%TO.N,unconnected-(A2-MOSI-Pad12)*%
X33320000Y-46990000D03*
%TO.P,A2,13,MISO*%
%TO.N,unconnected-(A2-MISO-Pad13)*%
X33320000Y-49530000D03*
%TO.P,A2,14,RX*%
%TO.N,unconnected-(A2-RX-Pad14)*%
X33320000Y-52070000D03*
%TO.P,A2,15,TX*%
%TO.N,unconnected-(A2-TX-Pad15)*%
X33320000Y-54610000D03*
%TO.P,A2,16,SPARE*%
%TO.N,unconnected-(A2-SPARE-Pad16)*%
X33320000Y-57150000D03*
%TO.P,A2,17,SDA*%
%TO.N,unconnected-(A2-SDA-Pad17)*%
X53040000Y-57150000D03*
%TO.P,A2,18,SCL*%
%TO.N,unconnected-(A2-SCL-Pad18)*%
X53040000Y-54610000D03*
%TO.P,A2,19,D0*%
%TO.N,unconnected-(A2-D0-Pad19)*%
X53040000Y-52070000D03*
%TO.P,A2,20,D1*%
%TO.N,unconnected-(A2-D1-Pad20)*%
X53040000Y-49530000D03*
%TO.P,A2,21,D2*%
%TO.N,unconnected-(A2-D2-Pad21)*%
X53040000Y-46990000D03*
%TO.P,A2,22,D3*%
%TO.N,unconnected-(A2-D3-Pad22)*%
X53040000Y-44450000D03*
%TO.P,A2,23,D4*%
%TO.N,unconnected-(A2-D4-Pad23)*%
X53040000Y-41910000D03*
%TO.P,A2,24,D5*%
%TO.N,unconnected-(A2-D5-Pad24)*%
X53040000Y-39370000D03*
%TO.P,A2,25,D6*%
%TO.N,unconnected-(A2-D6-Pad25)*%
X53040000Y-36830000D03*
%TO.P,A2,26,USB*%
%TO.N,unconnected-(A2-USB-Pad26)*%
X53040000Y-34290000D03*
%TO.P,A2,27,EN*%
%TO.N,unconnected-(A2-EN-Pad27)*%
X53040000Y-31750000D03*
%TO.P,A2,28,VBAT*%
%TO.N,Net-(A2-VBAT)*%
X53040000Y-29210000D03*
%TD*%
D13*
%TO.P,R8,1,1*%
%TO.N,Net-(A2-A3)*%
X71120000Y-63500000D03*
D14*
%TO.P,R8,2,2*%
%TO.N,Net-(J1-Pad1)*%
X68580000Y-66040000D03*
%TO.P,R8,3,3*%
%TO.N,unconnected-(R8-Pad3)*%
X71120000Y-68580000D03*
%TD*%
D13*
%TO.P,R6,1,1*%
%TO.N,Net-(A2-A1)*%
X71120000Y-38100000D03*
D14*
%TO.P,R6,2,2*%
%TO.N,Net-(J1-Pad6)*%
X68580000Y-40640000D03*
%TO.P,R6,3,3*%
%TO.N,unconnected-(R6-Pad3)*%
X71120000Y-43180000D03*
%TD*%
D13*
%TO.P,R5,1,1*%
%TO.N,Net-(A2-A0)*%
X71120000Y-25400000D03*
D14*
%TO.P,R5,2,2*%
%TO.N,Net-(J1-Pad9)*%
X68580000Y-27940000D03*
%TO.P,R5,3,3*%
%TO.N,unconnected-(R5-Pad3)*%
X71120000Y-30480000D03*
%TD*%
D15*
%TO.P,J1,1,1*%
%TO.N,Net-(J1-Pad1)*%
X30480000Y-91440000D03*
D16*
%TO.P,J1,2,2*%
%TO.N,+3.3V*%
X33020000Y-91440000D03*
%TO.P,J1,3,3*%
X35560000Y-91440000D03*
%TO.P,J1,4,4*%
%TO.N,Net-(J1-Pad4)*%
X38100000Y-91440000D03*
%TO.P,J1,5,5*%
%TO.N,-BATT*%
X40640000Y-91440000D03*
%TO.P,J1,6,6*%
%TO.N,Net-(J1-Pad6)*%
X43180000Y-91440000D03*
%TO.P,J1,7,7*%
%TO.N,+3.3V*%
X45720000Y-91440000D03*
%TO.P,J1,8,8*%
X48260000Y-91440000D03*
%TO.P,J1,9,9*%
%TO.N,Net-(J1-Pad9)*%
X50800000Y-91440000D03*
%TO.P,J1,10,10*%
%TO.N,-BATT*%
X53340000Y-91440000D03*
%TD*%
D13*
%TO.P,R7,1,1*%
%TO.N,Net-(A2-A2)*%
X71120000Y-50800000D03*
D14*
%TO.P,R7,2,2*%
%TO.N,Net-(J1-Pad4)*%
X68580000Y-53340000D03*
%TO.P,R7,3,3*%
%TO.N,unconnected-(R7-Pad3)*%
X71120000Y-55880000D03*
%TD*%
D17*
%TO.N,Net-(J2-Pad1)*%
X21748355Y-52000000D02*
X20320000Y-52000000D01*
X46533134Y-83548351D02*
X46533134Y-76784779D01*
X46533134Y-76784779D02*
X21748355Y-52000000D01*
%TO.N,Net-(J2-Pad2)*%
X21520000Y-54540000D02*
X20320000Y-54540000D01*
X25400000Y-58420000D02*
X21520000Y-54540000D01*
X25400000Y-60960000D02*
X25400000Y-58420000D01*
X43993134Y-79553134D02*
X25400000Y-60960000D01*
X43993134Y-83548351D02*
X43993134Y-79553134D01*
%TO.N,Net-(J2-Pad3)*%
X22860000Y-58191645D02*
X21748355Y-57080000D01*
X41453134Y-82119996D02*
X22860000Y-63526862D01*
X22860000Y-63526862D02*
X22860000Y-58191645D01*
X41453134Y-83548351D02*
X41453134Y-82119996D01*
X21748355Y-57080000D02*
X20320000Y-57080000D01*
%TO.N,Net-(J2-Pad4)*%
X20320000Y-64955217D02*
X20320000Y-59620000D01*
X38913134Y-83548351D02*
X20320000Y-64955217D01*
D18*
%TO.N,Net-(J1-Pad6)*%
X58420000Y-55880000D02*
X68580000Y-45720000D01*
X68580000Y-45720000D02*
X68580000Y-40640000D01*
X49350368Y-67489632D02*
X58420000Y-58420000D01*
X58420000Y-58420000D02*
X58420000Y-55880000D01*
X47535883Y-85198729D02*
X49350368Y-83384244D01*
X49350368Y-83384244D02*
X49350368Y-67489632D01*
X34870775Y-85198729D02*
X47535883Y-85198729D01*
X25400000Y-86845635D02*
X33223869Y-86845635D01*
X33223869Y-86845635D02*
X34870775Y-85198729D01*
X25400000Y-96520000D02*
X25400000Y-86845635D01*
X38100000Y-96520000D02*
X25400000Y-96520000D01*
X43180000Y-91440000D02*
X38100000Y-96520000D01*
%TO.N,Net-(J1-Pad9)*%
X68580000Y-30480000D02*
X68580000Y-27940000D01*
X73660000Y-35560000D02*
X68580000Y-30480000D01*
X73660000Y-68580000D02*
X73660000Y-35560000D01*
X50800000Y-91440000D02*
X73660000Y-68580000D01*
%TO.N,Net-(J1-Pad1)*%
X35560000Y-86360000D02*
X30480000Y-91440000D01*
X48260000Y-86360000D02*
X35560000Y-86360000D01*
X50800000Y-71120000D02*
X50800000Y-83820000D01*
X50800000Y-83820000D02*
X48260000Y-86360000D01*
X55880000Y-66040000D02*
X50800000Y-71120000D01*
X68580000Y-66040000D02*
X55880000Y-66040000D01*
%TO.N,Net-(J1-Pad4)*%
X69540400Y-67000400D02*
X47640800Y-88900000D01*
X68580000Y-53340000D02*
X69540400Y-54300400D01*
X40640000Y-88900000D02*
X38100000Y-91440000D01*
X69540400Y-54300400D02*
X69540400Y-67000400D01*
X47640800Y-88900000D02*
X40640000Y-88900000D01*
%TD*%
%TA.AperFunction,Conductor*%
%TO.N,-BATT*%
G36*
X33311444Y-87448592D02*
G01*
X33364899Y-87449717D01*
X33422869Y-87488720D01*
X33450550Y-87552873D01*
X33439153Y-87621807D01*
X33415149Y-87655614D01*
X30985082Y-90085681D01*
X30923759Y-90119166D01*
X30897401Y-90122000D01*
X29614629Y-90122000D01*
X29614623Y-90122001D01*
X29555016Y-90128408D01*
X29420171Y-90178702D01*
X29420164Y-90178706D01*
X29304955Y-90264952D01*
X29304952Y-90264955D01*
X29218706Y-90380164D01*
X29218702Y-90380171D01*
X29168408Y-90515017D01*
X29162001Y-90574616D01*
X29162000Y-90574635D01*
X29162000Y-92305370D01*
X29162001Y-92305376D01*
X29168408Y-92364983D01*
X29218702Y-92499828D01*
X29218706Y-92499835D01*
X29304952Y-92615044D01*
X29304955Y-92615047D01*
X29420164Y-92701293D01*
X29420171Y-92701297D01*
X29555017Y-92751591D01*
X29555016Y-92751591D01*
X29561944Y-92752335D01*
X29614627Y-92758000D01*
X31345372Y-92757999D01*
X31404983Y-92751591D01*
X31539831Y-92701296D01*
X31655046Y-92615046D01*
X31741296Y-92499831D01*
X31791591Y-92364983D01*
X31791984Y-92361318D01*
X31793084Y-92358664D01*
X31793374Y-92357438D01*
X31793572Y-92357484D01*
X31818720Y-92296769D01*
X31876111Y-92256919D01*
X31945936Y-92254423D01*
X32002955Y-92286891D01*
X32169567Y-92453503D01*
X32358477Y-92585779D01*
X32358479Y-92585780D01*
X32358482Y-92585782D01*
X32567495Y-92683246D01*
X32790257Y-92742935D01*
X32950117Y-92756921D01*
X33019998Y-92763035D01*
X33020000Y-92763035D01*
X33020002Y-92763035D01*
X33089883Y-92756921D01*
X33249743Y-92742935D01*
X33472505Y-92683246D01*
X33681518Y-92585782D01*
X33870431Y-92453504D01*
X34033504Y-92290431D01*
X34165782Y-92101518D01*
X34177618Y-92076134D01*
X34223789Y-92023696D01*
X34290982Y-92004543D01*
X34357864Y-92024758D01*
X34402381Y-92076134D01*
X34414218Y-92101518D01*
X34414219Y-92101519D01*
X34414220Y-92101522D01*
X34546496Y-92290432D01*
X34709567Y-92453503D01*
X34898477Y-92585779D01*
X34898479Y-92585780D01*
X34898482Y-92585782D01*
X35107495Y-92683246D01*
X35330257Y-92742935D01*
X35490117Y-92756921D01*
X35559998Y-92763035D01*
X35560000Y-92763035D01*
X35560002Y-92763035D01*
X35629883Y-92756921D01*
X35789743Y-92742935D01*
X36012505Y-92683246D01*
X36221518Y-92585782D01*
X36410431Y-92453504D01*
X36573504Y-92290431D01*
X36705782Y-92101518D01*
X36717618Y-92076134D01*
X36763789Y-92023696D01*
X36830982Y-92004543D01*
X36897864Y-92024758D01*
X36942381Y-92076134D01*
X36954218Y-92101518D01*
X36954219Y-92101519D01*
X36954220Y-92101522D01*
X37086496Y-92290432D01*
X37249567Y-92453503D01*
X37438477Y-92585779D01*
X37438479Y-92585780D01*
X37438482Y-92585782D01*
X37647495Y-92683246D01*
X37870257Y-92742935D01*
X38030117Y-92756921D01*
X38099998Y-92763035D01*
X38100000Y-92763035D01*
X38100002Y-92763035D01*
X38169883Y-92756921D01*
X38329743Y-92742935D01*
X38552505Y-92683246D01*
X38761518Y-92585782D01*
X38950431Y-92453504D01*
X39113504Y-92290431D01*
X39245782Y-92101518D01*
X39257896Y-92075540D01*
X39304062Y-92023106D01*
X39371255Y-92003952D01*
X39438137Y-92024166D01*
X39482656Y-92075540D01*
X39494653Y-92101267D01*
X39548408Y-92178037D01*
X39548408Y-92178038D01*
X40120294Y-91606151D01*
X40132141Y-91650362D01*
X40203891Y-91774638D01*
X40305362Y-91876109D01*
X40429638Y-91947859D01*
X40473847Y-91959704D01*
X39901960Y-92531590D01*
X39978737Y-92585348D01*
X40187665Y-92682773D01*
X40187674Y-92682777D01*
X40410339Y-92742439D01*
X40410350Y-92742441D01*
X40639998Y-92762533D01*
X40640001Y-92762533D01*
X40704143Y-92756921D01*
X40772643Y-92770687D01*
X40822826Y-92819302D01*
X40838760Y-92887331D01*
X40815385Y-92953175D01*
X40802632Y-92968130D01*
X37887584Y-95883181D01*
X37826261Y-95916666D01*
X37799903Y-95919500D01*
X26124500Y-95919500D01*
X26057461Y-95899815D01*
X26011706Y-95847011D01*
X26000500Y-95795500D01*
X26000500Y-87570135D01*
X26020185Y-87503096D01*
X26072989Y-87457341D01*
X26124500Y-87446135D01*
X33137200Y-87446135D01*
X33137216Y-87446136D01*
X33144812Y-87446136D01*
X33302924Y-87446136D01*
X33302926Y-87446136D01*
X33302927Y-87446135D01*
X33310981Y-87445075D01*
X33311444Y-87448592D01*
G37*
%TD.AperFunction*%
%TA.AperFunction,Conductor*%
G36*
X69924017Y-67568530D02*
G01*
X69979950Y-67610402D01*
X70004367Y-67675866D01*
X69996865Y-67728044D01*
X69965509Y-67812114D01*
X69965508Y-67812116D01*
X69959101Y-67871716D01*
X69959101Y-67871723D01*
X69959100Y-67871735D01*
X69959100Y-69288270D01*
X69959101Y-69288276D01*
X69965508Y-69347883D01*
X70015802Y-69482728D01*
X70015806Y-69482735D01*
X70102052Y-69597944D01*
X70102055Y-69597947D01*
X70217264Y-69684193D01*
X70217271Y-69684197D01*
X70352117Y-69734491D01*
X70352116Y-69734491D01*
X70359044Y-69735235D01*
X70411727Y-69740900D01*
X71350502Y-69740899D01*
X71417541Y-69760583D01*
X71463296Y-69813387D01*
X71473240Y-69882546D01*
X71444215Y-69946102D01*
X71438183Y-69952580D01*
X51256994Y-90133769D01*
X51195671Y-90167254D01*
X51137220Y-90165863D01*
X51029748Y-90137066D01*
X51029744Y-90137065D01*
X51029743Y-90137065D01*
X51029742Y-90137064D01*
X51029737Y-90137064D01*
X50800002Y-90116965D01*
X50799998Y-90116965D01*
X50570262Y-90137064D01*
X50570251Y-90137066D01*
X50347502Y-90196751D01*
X50347495Y-90196753D01*
X50347495Y-90196754D01*
X50346483Y-90197226D01*
X50138484Y-90294217D01*
X50138482Y-90294218D01*
X49949566Y-90426497D01*
X49786497Y-90589566D01*
X49654218Y-90778482D01*
X49654214Y-90778489D01*
X49642381Y-90803866D01*
X49596208Y-90856305D01*
X49529015Y-90875456D01*
X49462134Y-90855239D01*
X49417619Y-90803866D01*
X49405785Y-90778489D01*
X49405781Y-90778482D01*
X49405780Y-90778481D01*
X49273504Y-90589569D01*
X49273502Y-90589566D01*
X49110432Y-90426496D01*
X48921522Y-90294220D01*
X48921518Y-90294218D01*
X48858761Y-90264954D01*
X48712505Y-90196754D01*
X48712501Y-90196753D01*
X48712497Y-90196751D01*
X48489748Y-90137066D01*
X48489744Y-90137065D01*
X48489743Y-90137065D01*
X48489742Y-90137064D01*
X48489737Y-90137064D01*
X48260002Y-90116965D01*
X48259998Y-90116965D01*
X48030262Y-90137064D01*
X48030251Y-90137066D01*
X47807502Y-90196751D01*
X47807495Y-90196753D01*
X47807495Y-90196754D01*
X47806483Y-90197226D01*
X47598484Y-90294217D01*
X47598482Y-90294218D01*
X47409566Y-90426497D01*
X47246497Y-90589566D01*
X47114218Y-90778482D01*
X47114214Y-90778489D01*
X47102381Y-90803866D01*
X47056208Y-90856305D01*
X46989015Y-90875456D01*
X46922134Y-90855239D01*
X46877619Y-90803866D01*
X46865785Y-90778489D01*
X46865781Y-90778482D01*
X46865780Y-90778481D01*
X46733504Y-90589569D01*
X46733502Y-90589566D01*
X46570432Y-90426496D01*
X46381522Y-90294220D01*
X46381518Y-90294218D01*
X46318761Y-90264954D01*
X46172505Y-90196754D01*
X46172501Y-90196753D01*
X46172497Y-90196751D01*
X45949748Y-90137066D01*
X45949744Y-90137065D01*
X45949743Y-90137065D01*
X45949742Y-90137064D01*
X45949737Y-90137064D01*
X45720002Y-90116965D01*
X45719998Y-90116965D01*
X45490262Y-90137064D01*
X45490251Y-90137066D01*
X45267502Y-90196751D01*
X45267495Y-90196753D01*
X45267495Y-90196754D01*
X45266483Y-90197226D01*
X45058484Y-90294217D01*
X45058482Y-90294218D01*
X44869566Y-90426497D01*
X44706497Y-90589566D01*
X44574218Y-90778482D01*
X44574214Y-90778489D01*
X44562381Y-90803866D01*
X44516208Y-90856305D01*
X44449015Y-90875456D01*
X44382134Y-90855239D01*
X44337619Y-90803866D01*
X44325785Y-90778489D01*
X44325781Y-90778482D01*
X44325780Y-90778481D01*
X44193504Y-90589569D01*
X44193502Y-90589566D01*
X44030432Y-90426496D01*
X43841522Y-90294220D01*
X43841518Y-90294218D01*
X43778761Y-90264954D01*
X43632505Y-90196754D01*
X43632501Y-90196753D01*
X43632497Y-90196751D01*
X43409748Y-90137066D01*
X43409744Y-90137065D01*
X43409743Y-90137065D01*
X43409742Y-90137064D01*
X43409737Y-90137064D01*
X43180002Y-90116965D01*
X43179998Y-90116965D01*
X42950262Y-90137064D01*
X42950251Y-90137066D01*
X42727502Y-90196751D01*
X42727495Y-90196753D01*
X42727495Y-90196754D01*
X42726483Y-90197226D01*
X42518484Y-90294217D01*
X42518482Y-90294218D01*
X42329566Y-90426497D01*
X42166497Y-90589566D01*
X42034219Y-90778481D01*
X42022106Y-90804458D01*
X41975933Y-90856897D01*
X41908739Y-90876048D01*
X41841858Y-90855832D01*
X41797342Y-90804457D01*
X41785348Y-90778736D01*
X41731589Y-90701961D01*
X41159704Y-91273846D01*
X41147859Y-91229638D01*
X41076109Y-91105362D01*
X40974638Y-91003891D01*
X40850362Y-90932141D01*
X40806151Y-90920294D01*
X41378038Y-90348408D01*
X41301267Y-90294653D01*
X41301265Y-90294652D01*
X41092334Y-90197226D01*
X41092325Y-90197222D01*
X40869660Y-90137560D01*
X40869649Y-90137558D01*
X40640002Y-90117467D01*
X40639998Y-90117467D01*
X40575852Y-90123079D01*
X40507352Y-90109312D01*
X40457169Y-90060697D01*
X40441236Y-89992668D01*
X40464611Y-89926825D01*
X40477359Y-89911874D01*
X40852416Y-89536819D01*
X40913739Y-89503334D01*
X40940097Y-89500500D01*
X47554131Y-89500500D01*
X47554147Y-89500501D01*
X47561743Y-89500501D01*
X47719854Y-89500501D01*
X47719857Y-89500501D01*
X47872585Y-89459577D01*
X47922704Y-89430639D01*
X48009516Y-89380520D01*
X48121320Y-89268716D01*
X48121320Y-89268714D01*
X48131528Y-89258507D01*
X48131530Y-89258504D01*
X69793004Y-67597029D01*
X69854325Y-67563546D01*
X69924017Y-67568530D01*
G37*
%TD.AperFunction*%
%TA.AperFunction,Conductor*%
G36*
X75642539Y-13220185D02*
G01*
X75688294Y-13272989D01*
X75699500Y-13324500D01*
X75699500Y-106055500D01*
X75679815Y-106122539D01*
X75627011Y-106168294D01*
X75575500Y-106179500D01*
X15864500Y-106179500D01*
X15797461Y-106159815D01*
X15751706Y-106107011D01*
X15740500Y-106055500D01*
X15740500Y-102048299D01*
X16565037Y-102048299D01*
X16584184Y-102389258D01*
X16584186Y-102389270D01*
X16641388Y-102725936D01*
X16641390Y-102725945D01*
X16697671Y-102921300D01*
X16735929Y-103054095D01*
X16823790Y-103266210D01*
X16866615Y-103369599D01*
X17031808Y-103668495D01*
X17031811Y-103668500D01*
X17229420Y-103947002D01*
X17229424Y-103947007D01*
X17456982Y-104201645D01*
X17711620Y-104429203D01*
X17711623Y-104429205D01*
X17711624Y-104429206D01*
X17990126Y-104626815D01*
X17990131Y-104626818D01*
X17990134Y-104626819D01*
X17990136Y-104626821D01*
X18289026Y-104792011D01*
X18604532Y-104922698D01*
X18932687Y-105017238D01*
X19269364Y-105074442D01*
X19610328Y-105093590D01*
X19951292Y-105074442D01*
X20287969Y-105017238D01*
X20616124Y-104922698D01*
X20931630Y-104792011D01*
X21230520Y-104626821D01*
X21230525Y-104626817D01*
X21230529Y-104626815D01*
X21445338Y-104474399D01*
X21509036Y-104429203D01*
X21763674Y-104201645D01*
X21991232Y-103947007D01*
X22128643Y-103753345D01*
X22188844Y-103668500D01*
X22188847Y-103668495D01*
X22188850Y-103668491D01*
X22354040Y-103369601D01*
X22484727Y-103054095D01*
X22579267Y-102725940D01*
X22636471Y-102389263D01*
X22655619Y-102048299D01*
X22636471Y-101707335D01*
X22618234Y-101600000D01*
X68074709Y-101600000D01*
X68093856Y-101940959D01*
X68093858Y-101940971D01*
X68151060Y-102277637D01*
X68151062Y-102277646D01*
X68221300Y-102521448D01*
X68245601Y-102605796D01*
X68349221Y-102855956D01*
X68376287Y-102921300D01*
X68541480Y-103220196D01*
X68541483Y-103220201D01*
X68739092Y-103498703D01*
X68739096Y-103498708D01*
X68966654Y-103753346D01*
X69221292Y-103980904D01*
X69221295Y-103980906D01*
X69221296Y-103980907D01*
X69499798Y-104178516D01*
X69499803Y-104178519D01*
X69499806Y-104178520D01*
X69499808Y-104178522D01*
X69798698Y-104343712D01*
X70114204Y-104474399D01*
X70442359Y-104568939D01*
X70779036Y-104626143D01*
X71120000Y-104645291D01*
X71460964Y-104626143D01*
X71797641Y-104568939D01*
X72125796Y-104474399D01*
X72441302Y-104343712D01*
X72740192Y-104178522D01*
X72740197Y-104178518D01*
X72740201Y-104178516D01*
X72874755Y-104083044D01*
X73018708Y-103980904D01*
X73273346Y-103753346D01*
X73500904Y-103498708D01*
X73616840Y-103335310D01*
X73698516Y-103220201D01*
X73698519Y-103220196D01*
X73698522Y-103220192D01*
X73863712Y-102921302D01*
X73994399Y-102605796D01*
X74088939Y-102277641D01*
X74146143Y-101940964D01*
X74165291Y-101600000D01*
X74146143Y-101259036D01*
X74088939Y-100922359D01*
X73994399Y-100594204D01*
X73863712Y-100278698D01*
X73698522Y-99979808D01*
X73698520Y-99979806D01*
X73698519Y-99979803D01*
X73698516Y-99979798D01*
X73500907Y-99701296D01*
X73500906Y-99701295D01*
X73500904Y-99701292D01*
X73273346Y-99446654D01*
X73018708Y-99219096D01*
X73018705Y-99219094D01*
X73018703Y-99219092D01*
X72740201Y-99021483D01*
X72740196Y-99021480D01*
X72441300Y-98856287D01*
X72375956Y-98829221D01*
X72125796Y-98725601D01*
X72041448Y-98701300D01*
X71797646Y-98631062D01*
X71797637Y-98631060D01*
X71460971Y-98573858D01*
X71460959Y-98573856D01*
X71120000Y-98554709D01*
X70779040Y-98573856D01*
X70779028Y-98573858D01*
X70442362Y-98631060D01*
X70442353Y-98631062D01*
X70114207Y-98725600D01*
X70114204Y-98725601D01*
X70021796Y-98763877D01*
X69798699Y-98856287D01*
X69499803Y-99021480D01*
X69499798Y-99021483D01*
X69221296Y-99219092D01*
X68966654Y-99446654D01*
X68739092Y-99701296D01*
X68541483Y-99979798D01*
X68541480Y-99979803D01*
X68376287Y-100278699D01*
X68245600Y-100594207D01*
X68151062Y-100922353D01*
X68151060Y-100922362D01*
X68093858Y-101259028D01*
X68093856Y-101259040D01*
X68074709Y-101600000D01*
X22618234Y-101600000D01*
X22579267Y-101370658D01*
X22484727Y-101042503D01*
X22354040Y-100726997D01*
X22188850Y-100428107D01*
X22188848Y-100428105D01*
X22188847Y-100428102D01*
X22188844Y-100428097D01*
X21991235Y-100149595D01*
X21991234Y-100149594D01*
X21991232Y-100149591D01*
X21763674Y-99894953D01*
X21509036Y-99667395D01*
X21509033Y-99667393D01*
X21509031Y-99667391D01*
X21230529Y-99469782D01*
X21230524Y-99469779D01*
X20931628Y-99304586D01*
X20866284Y-99277520D01*
X20616124Y-99173900D01*
X20531776Y-99149599D01*
X20287974Y-99079361D01*
X20287965Y-99079359D01*
X19951299Y-99022157D01*
X19951287Y-99022155D01*
X19610328Y-99003008D01*
X19269368Y-99022155D01*
X19269356Y-99022157D01*
X18932690Y-99079359D01*
X18932681Y-99079361D01*
X18604535Y-99173899D01*
X18604532Y-99173900D01*
X18512124Y-99212176D01*
X18289027Y-99304586D01*
X17990131Y-99469779D01*
X17990126Y-99469782D01*
X17711624Y-99667391D01*
X17456982Y-99894953D01*
X17229420Y-100149595D01*
X17031811Y-100428097D01*
X17031808Y-100428102D01*
X16866615Y-100726998D01*
X16735928Y-101042506D01*
X16641390Y-101370652D01*
X16641388Y-101370661D01*
X16584186Y-101707327D01*
X16584184Y-101707339D01*
X16565037Y-102048299D01*
X15740500Y-102048299D01*
X15740500Y-52000000D01*
X18804829Y-52000000D01*
X18823482Y-52237020D01*
X18823482Y-52237023D01*
X18823483Y-52237025D01*
X18878987Y-52468214D01*
X18878988Y-52468216D01*
X18969972Y-52687873D01*
X19094199Y-52890592D01*
X19094202Y-52890597D01*
X19150604Y-52956635D01*
X19248612Y-53071388D01*
X19314228Y-53127429D01*
X19370757Y-53175710D01*
X19408950Y-53234217D01*
X19409448Y-53304085D01*
X19372094Y-53363131D01*
X19370757Y-53364290D01*
X19248612Y-53468612D01*
X19094202Y-53649402D01*
X19094199Y-53649407D01*
X18969972Y-53852126D01*
X18888725Y-54048276D01*
X18878987Y-54071786D01*
X18830376Y-54274261D01*
X18823482Y-54302979D01*
X18804829Y-54540000D01*
X18823482Y-54777020D01*
X18823482Y-54777023D01*
X18823483Y-54777025D01*
X18878987Y-55008214D01*
X18878988Y-55008216D01*
X18969972Y-55227873D01*
X19094199Y-55430592D01*
X19094202Y-55430597D01*
X19150604Y-55496635D01*
X19248612Y-55611388D01*
X19314228Y-55667429D01*
X19370757Y-55715710D01*
X19408950Y-55774217D01*
X19409448Y-55844085D01*
X19372094Y-55903131D01*
X19370757Y-55904290D01*
X19248612Y-56008612D01*
X19094202Y-56189402D01*
X19094199Y-56189407D01*
X18969972Y-56392126D01*
X18888730Y-56588264D01*
X18878987Y-56611786D01*
X18830376Y-56814261D01*
X18823482Y-56842979D01*
X18804829Y-57080000D01*
X18823482Y-57317020D01*
X18823482Y-57317023D01*
X18823483Y-57317025D01*
X18878987Y-57548214D01*
X18878988Y-57548216D01*
X18969972Y-57767873D01*
X19094199Y-57970592D01*
X19094202Y-57970597D01*
X19150604Y-58036635D01*
X19248612Y-58151388D01*
X19314228Y-58207429D01*
X19370757Y-58255710D01*
X19408950Y-58314217D01*
X19409448Y-58384085D01*
X19372094Y-58443131D01*
X19370757Y-58444290D01*
X19248612Y-58548612D01*
X19094202Y-58729402D01*
X19094199Y-58729407D01*
X18969972Y-58932126D01*
X18878988Y-59151783D01*
X18823482Y-59382979D01*
X18804829Y-59620000D01*
X18823482Y-59857020D01*
X18823482Y-59857023D01*
X18823483Y-59857025D01*
X18878987Y-60088214D01*
X18878988Y-60088216D01*
X18969972Y-60307873D01*
X19094199Y-60510592D01*
X19094202Y-60510597D01*
X19189790Y-60622516D01*
X19218361Y-60686278D01*
X19219500Y-60703048D01*
X19219500Y-65041827D01*
X19234615Y-65137264D01*
X19246598Y-65212918D01*
X19300127Y-65377662D01*
X19378768Y-65532005D01*
X19480586Y-65672145D01*
X19480588Y-65672147D01*
X37369131Y-83560690D01*
X37402616Y-83622013D01*
X37405068Y-83638641D01*
X37406694Y-83659296D01*
X37416617Y-83785376D01*
X37472121Y-84016565D01*
X37472122Y-84016567D01*
X37563106Y-84236224D01*
X37669253Y-84409439D01*
X37687498Y-84476885D01*
X37666382Y-84543487D01*
X37612610Y-84588101D01*
X37563526Y-84598229D01*
X34957445Y-84598229D01*
X34957429Y-84598228D01*
X34949833Y-84598228D01*
X34791718Y-84598228D01*
X34638990Y-84639152D01*
X34638988Y-84639152D01*
X34638988Y-84639153D01*
X34502056Y-84718211D01*
X33011453Y-86208816D01*
X32950130Y-86242301D01*
X32923772Y-86245135D01*
X25320943Y-86245135D01*
X25168216Y-86286058D01*
X25168209Y-86286061D01*
X25031290Y-86365110D01*
X25031282Y-86365116D01*
X24919481Y-86476917D01*
X24919475Y-86476925D01*
X24840426Y-86613844D01*
X24840423Y-86613851D01*
X24799500Y-86766578D01*
X24799500Y-96599056D01*
X24840423Y-96751783D01*
X24840426Y-96751790D01*
X24919475Y-96888709D01*
X24919478Y-96888713D01*
X24919480Y-96888716D01*
X25031284Y-97000520D01*
X25031286Y-97000521D01*
X25031290Y-97000524D01*
X25168209Y-97079573D01*
X25168216Y-97079577D01*
X25320943Y-97120500D01*
X38013331Y-97120500D01*
X38013347Y-97120501D01*
X38020943Y-97120501D01*
X38179054Y-97120501D01*
X38179057Y-97120501D01*
X38331785Y-97079577D01*
X38381904Y-97050639D01*
X38468716Y-97000520D01*
X38580520Y-96888716D01*
X38580520Y-96888714D01*
X38590728Y-96878507D01*
X38590730Y-96878504D01*
X42723005Y-92746228D01*
X42784326Y-92712745D01*
X42842777Y-92714136D01*
X42885696Y-92725636D01*
X42950257Y-92742935D01*
X43110117Y-92756921D01*
X43179998Y-92763035D01*
X43180000Y-92763035D01*
X43180002Y-92763035D01*
X43249883Y-92756921D01*
X43409743Y-92742935D01*
X43632505Y-92683246D01*
X43841518Y-92585782D01*
X44030431Y-92453504D01*
X44193504Y-92290431D01*
X44325782Y-92101518D01*
X44337618Y-92076134D01*
X44383789Y-92023696D01*
X44450982Y-92004543D01*
X44517864Y-92024758D01*
X44562381Y-92076134D01*
X44574218Y-92101518D01*
X44574219Y-92101519D01*
X44574220Y-92101522D01*
X44706496Y-92290432D01*
X44869567Y-92453503D01*
X45058477Y-92585779D01*
X45058479Y-92585780D01*
X45058482Y-92585782D01*
X45267495Y-92683246D01*
X45490257Y-92742935D01*
X45650117Y-92756921D01*
X45719998Y-92763035D01*
X45720000Y-92763035D01*
X45720002Y-92763035D01*
X45789883Y-92756921D01*
X45949743Y-92742935D01*
X46172505Y-92683246D01*
X46381518Y-92585782D01*
X46570431Y-92453504D01*
X46733504Y-92290431D01*
X46865782Y-92101518D01*
X46877618Y-92076134D01*
X46923789Y-92023696D01*
X46990982Y-92004543D01*
X47057864Y-92024758D01*
X47102381Y-92076134D01*
X47114218Y-92101518D01*
X47114219Y-92101519D01*
X47114220Y-92101522D01*
X47246496Y-92290432D01*
X47409567Y-92453503D01*
X47598477Y-92585779D01*
X47598479Y-92585780D01*
X47598482Y-92585782D01*
X47807495Y-92683246D01*
X48030257Y-92742935D01*
X48190117Y-92756921D01*
X48259998Y-92763035D01*
X48260000Y-92763035D01*
X48260002Y-92763035D01*
X48329883Y-92756921D01*
X48489743Y-92742935D01*
X48712505Y-92683246D01*
X48921518Y-92585782D01*
X49110431Y-92453504D01*
X49273504Y-92290431D01*
X49405782Y-92101518D01*
X49417618Y-92076134D01*
X49463789Y-92023696D01*
X49530982Y-92004543D01*
X49597864Y-92024758D01*
X49642381Y-92076134D01*
X49654218Y-92101518D01*
X49654219Y-92101519D01*
X49654220Y-92101522D01*
X49786496Y-92290432D01*
X49949567Y-92453503D01*
X50138477Y-92585779D01*
X50138479Y-92585780D01*
X50138482Y-92585782D01*
X50347495Y-92683246D01*
X50570257Y-92742935D01*
X50730117Y-92756921D01*
X50799998Y-92763035D01*
X50800000Y-92763035D01*
X50800002Y-92763035D01*
X50869883Y-92756921D01*
X51029743Y-92742935D01*
X51252505Y-92683246D01*
X51461518Y-92585782D01*
X51650431Y-92453504D01*
X51813504Y-92290431D01*
X51945782Y-92101518D01*
X51957896Y-92075540D01*
X52004062Y-92023106D01*
X52071255Y-92003952D01*
X52138137Y-92024166D01*
X52182656Y-92075540D01*
X52194653Y-92101267D01*
X52248408Y-92178037D01*
X52248408Y-92178038D01*
X52820294Y-91606151D01*
X52832141Y-91650362D01*
X52903891Y-91774638D01*
X53005362Y-91876109D01*
X53129638Y-91947859D01*
X53173847Y-91959704D01*
X52601960Y-92531590D01*
X52678737Y-92585348D01*
X52887665Y-92682773D01*
X52887674Y-92682777D01*
X53110339Y-92742439D01*
X53110350Y-92742441D01*
X53339998Y-92762533D01*
X53340002Y-92762533D01*
X53569649Y-92742441D01*
X53569660Y-92742439D01*
X53792325Y-92682777D01*
X53792334Y-92682773D01*
X54001264Y-92585348D01*
X54078038Y-92531590D01*
X53506152Y-91959705D01*
X53550362Y-91947859D01*
X53674638Y-91876109D01*
X53776109Y-91774638D01*
X53847859Y-91650362D01*
X53859704Y-91606152D01*
X54431590Y-92178038D01*
X54485348Y-92101264D01*
X54582773Y-91892334D01*
X54582777Y-91892325D01*
X54642439Y-91669660D01*
X54642441Y-91669649D01*
X54662533Y-91440001D01*
X54662533Y-91439998D01*
X54642441Y-91210350D01*
X54642439Y-91210339D01*
X54582777Y-90987674D01*
X54582773Y-90987665D01*
X54485348Y-90778736D01*
X54431589Y-90701961D01*
X53859704Y-91273846D01*
X53847859Y-91229638D01*
X53776109Y-91105362D01*
X53674638Y-91003891D01*
X53550362Y-90932141D01*
X53506151Y-90920294D01*
X54078038Y-90348408D01*
X54001267Y-90294653D01*
X54001265Y-90294652D01*
X53792334Y-90197226D01*
X53792325Y-90197222D01*
X53569660Y-90137560D01*
X53569649Y-90137558D01*
X53340002Y-90117467D01*
X53339998Y-90117467D01*
X53275850Y-90123079D01*
X53207350Y-90109312D01*
X53157167Y-90060697D01*
X53141234Y-89992668D01*
X53164610Y-89926825D01*
X53177350Y-89911883D01*
X74018506Y-69070728D01*
X74018511Y-69070724D01*
X74028714Y-69060520D01*
X74028716Y-69060520D01*
X74140520Y-68948716D01*
X74200670Y-68844533D01*
X74219577Y-68811785D01*
X74260501Y-68659057D01*
X74260501Y-68500943D01*
X74260501Y-68493348D01*
X74260500Y-68493330D01*
X74260500Y-35649059D01*
X74260501Y-35649046D01*
X74260501Y-35480945D01*
X74260501Y-35480943D01*
X74219577Y-35328215D01*
X74190639Y-35278095D01*
X74140520Y-35191284D01*
X74028716Y-35079480D01*
X74028715Y-35079479D01*
X74024385Y-35075149D01*
X74024374Y-35075139D01*
X70801815Y-31852580D01*
X70768330Y-31791257D01*
X70773314Y-31721565D01*
X70815186Y-31665632D01*
X70880650Y-31641215D01*
X70889496Y-31640899D01*
X71828271Y-31640899D01*
X71828272Y-31640899D01*
X71887883Y-31634491D01*
X72022731Y-31584196D01*
X72137946Y-31497946D01*
X72224196Y-31382731D01*
X72274491Y-31247883D01*
X72280900Y-31188273D01*
X72280899Y-29771728D01*
X72274491Y-29712117D01*
X72263974Y-29683920D01*
X72224197Y-29577271D01*
X72224193Y-29577264D01*
X72137947Y-29462055D01*
X72137944Y-29462052D01*
X72022735Y-29375806D01*
X72022728Y-29375802D01*
X71887882Y-29325508D01*
X71887883Y-29325508D01*
X71828283Y-29319101D01*
X71828281Y-29319100D01*
X71828273Y-29319100D01*
X71828264Y-29319100D01*
X70411729Y-29319100D01*
X70411723Y-29319101D01*
X70352116Y-29325508D01*
X70217271Y-29375802D01*
X70217264Y-29375806D01*
X70102055Y-29462052D01*
X70102052Y-29462055D01*
X70015806Y-29577264D01*
X70015802Y-29577271D01*
X69965508Y-29712117D01*
X69959101Y-29771716D01*
X69959101Y-29771723D01*
X69959100Y-29771735D01*
X69959100Y-30710503D01*
X69939415Y-30777542D01*
X69886611Y-30823297D01*
X69817453Y-30833241D01*
X69753897Y-30804216D01*
X69747419Y-30798184D01*
X69216819Y-30267584D01*
X69183334Y-30206261D01*
X69180500Y-30179903D01*
X69180500Y-29223869D01*
X69200185Y-29156830D01*
X69252989Y-29111075D01*
X69291245Y-29100579D01*
X69347883Y-29094491D01*
X69482731Y-29044196D01*
X69597946Y-28957946D01*
X69684196Y-28842731D01*
X69734491Y-28707883D01*
X69740900Y-28648273D01*
X69740899Y-27231728D01*
X69734491Y-27172117D01*
X69733701Y-27170000D01*
X69684197Y-27037271D01*
X69684193Y-27037264D01*
X69597947Y-26922055D01*
X69597944Y-26922052D01*
X69482735Y-26835806D01*
X69482728Y-26835802D01*
X69347882Y-26785508D01*
X69347883Y-26785508D01*
X69288283Y-26779101D01*
X69288281Y-26779100D01*
X69288273Y-26779100D01*
X69288264Y-26779100D01*
X67871729Y-26779100D01*
X67871723Y-26779101D01*
X67812116Y-26785508D01*
X67677271Y-26835802D01*
X67677264Y-26835806D01*
X67562055Y-26922052D01*
X67562052Y-26922055D01*
X67475806Y-27037264D01*
X67475802Y-27037271D01*
X67425508Y-27172117D01*
X67419101Y-27231716D01*
X67419101Y-27231723D01*
X67419100Y-27231735D01*
X67419100Y-28648270D01*
X67419101Y-28648276D01*
X67425508Y-28707883D01*
X67475802Y-28842728D01*
X67475806Y-28842735D01*
X67562052Y-28957944D01*
X67562055Y-28957947D01*
X67677264Y-29044193D01*
X67677271Y-29044197D01*
X67812117Y-29094491D01*
X67812115Y-29094491D01*
X67868756Y-29100581D01*
X67933307Y-29127319D01*
X67973155Y-29184712D01*
X67979500Y-29223870D01*
X67979500Y-30393330D01*
X67979499Y-30393348D01*
X67979499Y-30559054D01*
X67979498Y-30559054D01*
X68020423Y-30711786D01*
X68020424Y-30711787D01*
X68039330Y-30744533D01*
X68084804Y-30823297D01*
X68099481Y-30848717D01*
X68218349Y-30967585D01*
X68218355Y-30967590D01*
X73023181Y-35772416D01*
X73056666Y-35833739D01*
X73059500Y-35860097D01*
X73059500Y-68279902D01*
X73039815Y-68346941D01*
X73023181Y-68367583D01*
X72492580Y-68898184D01*
X72431257Y-68931669D01*
X72361565Y-68926685D01*
X72305632Y-68884813D01*
X72281215Y-68819349D01*
X72280899Y-68810503D01*
X72280899Y-67871729D01*
X72280898Y-67871723D01*
X72280897Y-67871716D01*
X72274491Y-67812117D01*
X72224196Y-67677269D01*
X72224195Y-67677268D01*
X72224193Y-67677264D01*
X72137947Y-67562055D01*
X72137944Y-67562052D01*
X72022735Y-67475806D01*
X72022728Y-67475802D01*
X71887882Y-67425508D01*
X71887883Y-67425508D01*
X71828283Y-67419101D01*
X71828281Y-67419100D01*
X71828273Y-67419100D01*
X71828264Y-67419100D01*
X70411729Y-67419100D01*
X70411723Y-67419101D01*
X70352116Y-67425508D01*
X70211722Y-67477872D01*
X70142030Y-67482856D01*
X70080707Y-67449370D01*
X70047223Y-67388047D01*
X70052208Y-67318355D01*
X70060998Y-67299697D01*
X70099977Y-67232184D01*
X70140900Y-67079457D01*
X70140900Y-64459153D01*
X70160585Y-64392114D01*
X70213389Y-64346359D01*
X70282547Y-64336415D01*
X70346103Y-64365440D01*
X70348438Y-64367516D01*
X70417402Y-64430385D01*
X70417404Y-64430386D01*
X70417405Y-64430387D01*
X70600326Y-64543647D01*
X70800944Y-64621367D01*
X71012427Y-64660900D01*
X71012429Y-64660900D01*
X71227571Y-64660900D01*
X71227573Y-64660900D01*
X71439056Y-64621367D01*
X71639674Y-64543647D01*
X71822595Y-64430387D01*
X71981591Y-64285444D01*
X72111245Y-64113753D01*
X72207144Y-63921162D01*
X72266022Y-63714229D01*
X72285873Y-63500000D01*
X72266022Y-63285771D01*
X72207144Y-63078838D01*
X72203251Y-63071020D01*
X72111248Y-62886253D01*
X72111247Y-62886252D01*
X72111245Y-62886247D01*
X71981591Y-62714556D01*
X71981587Y-62714552D01*
X71981585Y-62714550D01*
X71822597Y-62569614D01*
X71776135Y-62540846D01*
X71639674Y-62456353D01*
X71439056Y-62378633D01*
X71227573Y-62339100D01*
X71012427Y-62339100D01*
X70800944Y-62378633D01*
X70674075Y-62427782D01*
X70600328Y-62456352D01*
X70600327Y-62456352D01*
X70417402Y-62569614D01*
X70348437Y-62632484D01*
X70285633Y-62663100D01*
X70216246Y-62654902D01*
X70162306Y-62610492D01*
X70140939Y-62543969D01*
X70140900Y-62540846D01*
X70140900Y-57134305D01*
X70160585Y-57067266D01*
X70213389Y-57021511D01*
X70282547Y-57011567D01*
X70308227Y-57018121D01*
X70352117Y-57034491D01*
X70411727Y-57040900D01*
X71828272Y-57040899D01*
X71887883Y-57034491D01*
X72022731Y-56984196D01*
X72137946Y-56897946D01*
X72224196Y-56782731D01*
X72274491Y-56647883D01*
X72280900Y-56588273D01*
X72280899Y-55171728D01*
X72274491Y-55112117D01*
X72263974Y-55083920D01*
X72224197Y-54977271D01*
X72224193Y-54977264D01*
X72137947Y-54862055D01*
X72137944Y-54862052D01*
X72022735Y-54775806D01*
X72022728Y-54775802D01*
X71887882Y-54725508D01*
X71887883Y-54725508D01*
X71828283Y-54719101D01*
X71828281Y-54719100D01*
X71828273Y-54719100D01*
X71828264Y-54719100D01*
X70411729Y-54719100D01*
X70411723Y-54719101D01*
X70352115Y-54725509D01*
X70308232Y-54741876D01*
X70238540Y-54746860D01*
X70177218Y-54713374D01*
X70143733Y-54652051D01*
X70140900Y-54625694D01*
X70140900Y-54389460D01*
X70140901Y-54389447D01*
X70140901Y-54221344D01*
X70140901Y-54221343D01*
X70099977Y-54068616D01*
X70088234Y-54048276D01*
X70020924Y-53931690D01*
X70020918Y-53931682D01*
X69777218Y-53687982D01*
X69743733Y-53626659D01*
X69740899Y-53600301D01*
X69740899Y-52631729D01*
X69740898Y-52631723D01*
X69740897Y-52631716D01*
X69734491Y-52572117D01*
X69723974Y-52543920D01*
X69684197Y-52437271D01*
X69684193Y-52437264D01*
X69597947Y-52322055D01*
X69597944Y-52322052D01*
X69482735Y-52235806D01*
X69482728Y-52235802D01*
X69347882Y-52185508D01*
X69347883Y-52185508D01*
X69288283Y-52179101D01*
X69288281Y-52179100D01*
X69288273Y-52179100D01*
X69288264Y-52179100D01*
X67871729Y-52179100D01*
X67871723Y-52179101D01*
X67812116Y-52185508D01*
X67677271Y-52235802D01*
X67677264Y-52235806D01*
X67562055Y-52322052D01*
X67562052Y-52322055D01*
X67475806Y-52437264D01*
X67475802Y-52437271D01*
X67425508Y-52572117D01*
X67419101Y-52631716D01*
X67419101Y-52631723D01*
X67419100Y-52631735D01*
X67419100Y-54048270D01*
X67419101Y-54048276D01*
X67425508Y-54107883D01*
X67475802Y-54242728D01*
X67475806Y-54242735D01*
X67562052Y-54357944D01*
X67562055Y-54357947D01*
X67677264Y-54444193D01*
X67677271Y-54444197D01*
X67812117Y-54494491D01*
X67812116Y-54494491D01*
X67819044Y-54495235D01*
X67871727Y-54500900D01*
X68815900Y-54500899D01*
X68882939Y-54520583D01*
X68928694Y-54573387D01*
X68939900Y-54624899D01*
X68939900Y-64755100D01*
X68920215Y-64822139D01*
X68867411Y-64867894D01*
X68815900Y-64879100D01*
X67871729Y-64879100D01*
X67871723Y-64879101D01*
X67812116Y-64885508D01*
X67677271Y-64935802D01*
X67677264Y-64935806D01*
X67562055Y-65022052D01*
X67562052Y-65022055D01*
X67475806Y-65137264D01*
X67475802Y-65137271D01*
X67425508Y-65272116D01*
X67419419Y-65328756D01*
X67392681Y-65393307D01*
X67335288Y-65433155D01*
X67296130Y-65439500D01*
X55966669Y-65439500D01*
X55966653Y-65439499D01*
X55959057Y-65439499D01*
X55800943Y-65439499D01*
X55693587Y-65468265D01*
X55648210Y-65480424D01*
X55648209Y-65480425D01*
X55598096Y-65509359D01*
X55598095Y-65509360D01*
X55554689Y-65534420D01*
X55511285Y-65559479D01*
X55511282Y-65559481D01*
X50319481Y-70751282D01*
X50319479Y-70751285D01*
X50269361Y-70838094D01*
X50269359Y-70838096D01*
X50240425Y-70888209D01*
X50240424Y-70888210D01*
X50240423Y-70888215D01*
X50199499Y-71040943D01*
X50199499Y-71040945D01*
X50199499Y-71209046D01*
X50199500Y-71209059D01*
X50199500Y-83519903D01*
X50179815Y-83586942D01*
X50163178Y-83607587D01*
X50147572Y-83623192D01*
X50086248Y-83656675D01*
X50016557Y-83651688D01*
X49960625Y-83609815D01*
X49936210Y-83544350D01*
X49940118Y-83503420D01*
X49950868Y-83463302D01*
X49950868Y-83305187D01*
X49950868Y-67789729D01*
X49970553Y-67722690D01*
X49987187Y-67702048D01*
X54403464Y-63285771D01*
X58900520Y-58788716D01*
X58979577Y-58651784D01*
X59020501Y-58499057D01*
X59020501Y-58340942D01*
X59020501Y-58333347D01*
X59020500Y-58333329D01*
X59020500Y-56180097D01*
X59040185Y-56113058D01*
X59056819Y-56092416D01*
X64039833Y-51109402D01*
X64349236Y-50799999D01*
X69954127Y-50799999D01*
X69954127Y-50800000D01*
X69973977Y-51014228D01*
X70032855Y-51221159D01*
X70032860Y-51221172D01*
X70128751Y-51413746D01*
X70128753Y-51413749D01*
X70128755Y-51413753D01*
X70258409Y-51585444D01*
X70258412Y-51585446D01*
X70258414Y-51585449D01*
X70417402Y-51730385D01*
X70417404Y-51730386D01*
X70417405Y-51730387D01*
X70600326Y-51843647D01*
X70800944Y-51921367D01*
X71012427Y-51960900D01*
X71012429Y-51960900D01*
X71227571Y-51960900D01*
X71227573Y-51960900D01*
X71439056Y-51921367D01*
X71639674Y-51843647D01*
X71822595Y-51730387D01*
X71981591Y-51585444D01*
X72111245Y-51413753D01*
X72207144Y-51221162D01*
X72266022Y-51014229D01*
X72285873Y-50800000D01*
X72283482Y-50774202D01*
X72266022Y-50585771D01*
X72207144Y-50378838D01*
X72111245Y-50186247D01*
X71981591Y-50014556D01*
X71981587Y-50014552D01*
X71981585Y-50014550D01*
X71822597Y-49869614D01*
X71745421Y-49821829D01*
X71639674Y-49756353D01*
X71439056Y-49678633D01*
X71227573Y-49639100D01*
X71012427Y-49639100D01*
X70800944Y-49678633D01*
X70674075Y-49727782D01*
X70600328Y-49756352D01*
X70600327Y-49756352D01*
X70417402Y-49869614D01*
X70258414Y-50014550D01*
X70258407Y-50014558D01*
X70128760Y-50186239D01*
X70128751Y-50186253D01*
X70032860Y-50378827D01*
X70032855Y-50378840D01*
X69973977Y-50585771D01*
X69954127Y-50799999D01*
X64349236Y-50799999D01*
X69060520Y-46088716D01*
X69139577Y-45951785D01*
X69180501Y-45799057D01*
X69180501Y-45640942D01*
X69180501Y-45633347D01*
X69180500Y-45633329D01*
X69180500Y-42471735D01*
X69959100Y-42471735D01*
X69959100Y-43888270D01*
X69959101Y-43888276D01*
X69965508Y-43947883D01*
X70015802Y-44082728D01*
X70015806Y-44082735D01*
X70102052Y-44197944D01*
X70102055Y-44197947D01*
X70217264Y-44284193D01*
X70217271Y-44284197D01*
X70352117Y-44334491D01*
X70352116Y-44334491D01*
X70359044Y-44335235D01*
X70411727Y-44340900D01*
X71828272Y-44340899D01*
X71887883Y-44334491D01*
X72022731Y-44284196D01*
X72137946Y-44197946D01*
X72224196Y-44082731D01*
X72274491Y-43947883D01*
X72280900Y-43888273D01*
X72280899Y-42471728D01*
X72274491Y-42412117D01*
X72263974Y-42383920D01*
X72224197Y-42277271D01*
X72224193Y-42277264D01*
X72137947Y-42162055D01*
X72137944Y-42162052D01*
X72022735Y-42075806D01*
X72022728Y-42075802D01*
X71887882Y-42025508D01*
X71887883Y-42025508D01*
X71828283Y-42019101D01*
X71828281Y-42019100D01*
X71828273Y-42019100D01*
X71828264Y-42019100D01*
X70411729Y-42019100D01*
X70411723Y-42019101D01*
X70352116Y-42025508D01*
X70217271Y-42075802D01*
X70217264Y-42075806D01*
X70102055Y-42162052D01*
X70102052Y-42162055D01*
X70015806Y-42277264D01*
X70015802Y-42277271D01*
X69965508Y-42412117D01*
X69959101Y-42471716D01*
X69959101Y-42471723D01*
X69959100Y-42471735D01*
X69180500Y-42471735D01*
X69180500Y-41923869D01*
X69200185Y-41856830D01*
X69252989Y-41811075D01*
X69291245Y-41800579D01*
X69347883Y-41794491D01*
X69482731Y-41744196D01*
X69597946Y-41657946D01*
X69684196Y-41542731D01*
X69734491Y-41407883D01*
X69740900Y-41348273D01*
X69740899Y-39931728D01*
X69734491Y-39872117D01*
X69723974Y-39843920D01*
X69684197Y-39737271D01*
X69684193Y-39737264D01*
X69597947Y-39622055D01*
X69597944Y-39622052D01*
X69482735Y-39535806D01*
X69482728Y-39535802D01*
X69347882Y-39485508D01*
X69347883Y-39485508D01*
X69288283Y-39479101D01*
X69288281Y-39479100D01*
X69288273Y-39479100D01*
X69288264Y-39479100D01*
X67871729Y-39479100D01*
X67871723Y-39479101D01*
X67812116Y-39485508D01*
X67677271Y-39535802D01*
X67677264Y-39535806D01*
X67562055Y-39622052D01*
X67562052Y-39622055D01*
X67475806Y-39737264D01*
X67475802Y-39737271D01*
X67425508Y-39872117D01*
X67421345Y-39910842D01*
X67419101Y-39931723D01*
X67419100Y-39931735D01*
X67419100Y-41348270D01*
X67419101Y-41348276D01*
X67425508Y-41407883D01*
X67475802Y-41542728D01*
X67475806Y-41542735D01*
X67562052Y-41657944D01*
X67562055Y-41657947D01*
X67677264Y-41744193D01*
X67677271Y-41744197D01*
X67812117Y-41794491D01*
X67812115Y-41794491D01*
X67868756Y-41800581D01*
X67933307Y-41827319D01*
X67973155Y-41884712D01*
X67979500Y-41923870D01*
X67979500Y-45419902D01*
X67959815Y-45486941D01*
X67943181Y-45507583D01*
X57939481Y-55511282D01*
X57939475Y-55511290D01*
X57897796Y-55583482D01*
X57897796Y-55583483D01*
X57860423Y-55648215D01*
X57819499Y-55800943D01*
X57819499Y-55800945D01*
X57819499Y-55969046D01*
X57819500Y-55969059D01*
X57819500Y-58119902D01*
X57799815Y-58186941D01*
X57783181Y-58207583D01*
X48869849Y-67120914D01*
X48869845Y-67120919D01*
X48827370Y-67194490D01*
X48790792Y-67257843D01*
X48790791Y-67257844D01*
X48768096Y-67342546D01*
X48749867Y-67410575D01*
X48749867Y-67410577D01*
X48749867Y-67578678D01*
X48749868Y-67578691D01*
X48749868Y-83084146D01*
X48730183Y-83151185D01*
X48713549Y-83171827D01*
X48259565Y-83625811D01*
X48198242Y-83659296D01*
X48128550Y-83654312D01*
X48072617Y-83612440D01*
X48048266Y-83547859D01*
X48044768Y-83503414D01*
X48029651Y-83311326D01*
X47974147Y-83080137D01*
X47883161Y-82860478D01*
X47883161Y-82860477D01*
X47758938Y-82657764D01*
X47758932Y-82657755D01*
X47663343Y-82545833D01*
X47634773Y-82482071D01*
X47633634Y-82465302D01*
X47633634Y-76698167D01*
X47633016Y-76694269D01*
X47629929Y-76674775D01*
X47606537Y-76527078D01*
X47553007Y-76362334D01*
X47553005Y-76362331D01*
X47553005Y-76362329D01*
X47474365Y-76207990D01*
X47431520Y-76149019D01*
X47431520Y-76149018D01*
X47372552Y-76067854D01*
X47372547Y-76067849D01*
X28553240Y-57248543D01*
X31819499Y-57248543D01*
X31857947Y-57441829D01*
X31857950Y-57441839D01*
X31933364Y-57623907D01*
X31933371Y-57623920D01*
X32042860Y-57787781D01*
X32042863Y-57787785D01*
X32182214Y-57927136D01*
X32182218Y-57927139D01*
X32346079Y-58036628D01*
X32346092Y-58036635D01*
X32528160Y-58112049D01*
X32528165Y-58112051D01*
X32528169Y-58112051D01*
X32528170Y-58112052D01*
X32721456Y-58150500D01*
X32721459Y-58150500D01*
X33918543Y-58150500D01*
X34048582Y-58124632D01*
X34111835Y-58112051D01*
X34293914Y-58036632D01*
X34457782Y-57927139D01*
X34597139Y-57787782D01*
X34706632Y-57623914D01*
X34782051Y-57441835D01*
X34820500Y-57248543D01*
X51539499Y-57248543D01*
X51577947Y-57441829D01*
X51577950Y-57441839D01*
X51653364Y-57623907D01*
X51653371Y-57623920D01*
X51762860Y-57787781D01*
X51762863Y-57787785D01*
X51902214Y-57927136D01*
X51902218Y-57927139D01*
X52066079Y-58036628D01*
X52066092Y-58036635D01*
X52248160Y-58112049D01*
X52248165Y-58112051D01*
X52248169Y-58112051D01*
X52248170Y-58112052D01*
X52441456Y-58150500D01*
X52441459Y-58150500D01*
X53638543Y-58150500D01*
X53768582Y-58124632D01*
X53831835Y-58112051D01*
X54013914Y-58036632D01*
X54177782Y-57927139D01*
X54317139Y-57787782D01*
X54426632Y-57623914D01*
X54502051Y-57441835D01*
X54540500Y-57248541D01*
X54540500Y-57051459D01*
X54540500Y-57051456D01*
X54502052Y-56858170D01*
X54502051Y-56858169D01*
X54502051Y-56858165D01*
X54470807Y-56782735D01*
X54426635Y-56676092D01*
X54426628Y-56676079D01*
X54317139Y-56512218D01*
X54317136Y-56512214D01*
X54177785Y-56372863D01*
X54177781Y-56372860D01*
X54013920Y-56263371D01*
X54013907Y-56263364D01*
X53831839Y-56187950D01*
X53831829Y-56187947D01*
X53638543Y-56149500D01*
X53638541Y-56149500D01*
X52441459Y-56149500D01*
X52441457Y-56149500D01*
X52248170Y-56187947D01*
X52248160Y-56187950D01*
X52066092Y-56263364D01*
X52066079Y-56263371D01*
X51902218Y-56372860D01*
X51902214Y-56372863D01*
X51762863Y-56512214D01*
X51762860Y-56512218D01*
X51653371Y-56676079D01*
X51653364Y-56676092D01*
X51577950Y-56858160D01*
X51577947Y-56858170D01*
X51539500Y-57051456D01*
X51539500Y-57051459D01*
X51539500Y-57248541D01*
X51539500Y-57248543D01*
X51539499Y-57248543D01*
X34820500Y-57248543D01*
X34820500Y-57248541D01*
X34820500Y-57051459D01*
X34820500Y-57051456D01*
X34782052Y-56858170D01*
X34782051Y-56858169D01*
X34782051Y-56858165D01*
X34750807Y-56782735D01*
X34706635Y-56676092D01*
X34706628Y-56676079D01*
X34597139Y-56512218D01*
X34597136Y-56512214D01*
X34457785Y-56372863D01*
X34457781Y-56372860D01*
X34293920Y-56263371D01*
X34293907Y-56263364D01*
X34111839Y-56187950D01*
X34111829Y-56187947D01*
X33918543Y-56149500D01*
X33918541Y-56149500D01*
X32721459Y-56149500D01*
X32721457Y-56149500D01*
X32528170Y-56187947D01*
X32528160Y-56187950D01*
X32346092Y-56263364D01*
X32346079Y-56263371D01*
X32182218Y-56372860D01*
X32182214Y-56372863D01*
X32042863Y-56512214D01*
X32042860Y-56512218D01*
X31933371Y-56676079D01*
X31933364Y-56676092D01*
X31857950Y-56858160D01*
X31857947Y-56858170D01*
X31819500Y-57051456D01*
X31819500Y-57051459D01*
X31819500Y-57248541D01*
X31819500Y-57248543D01*
X31819499Y-57248543D01*
X28553240Y-57248543D01*
X26013240Y-54708543D01*
X31819499Y-54708543D01*
X31857947Y-54901829D01*
X31857950Y-54901839D01*
X31933364Y-55083907D01*
X31933371Y-55083920D01*
X32042860Y-55247781D01*
X32042863Y-55247785D01*
X32182214Y-55387136D01*
X32182218Y-55387139D01*
X32346079Y-55496628D01*
X32346092Y-55496635D01*
X32528160Y-55572049D01*
X32528165Y-55572051D01*
X32528169Y-55572051D01*
X32528170Y-55572052D01*
X32721456Y-55610500D01*
X32721459Y-55610500D01*
X33918543Y-55610500D01*
X34054368Y-55583482D01*
X34111835Y-55572051D01*
X34258541Y-55511284D01*
X34293907Y-55496635D01*
X34293907Y-55496634D01*
X34293914Y-55496632D01*
X34457782Y-55387139D01*
X34597139Y-55247782D01*
X34706632Y-55083914D01*
X34782051Y-54901835D01*
X34807120Y-54775806D01*
X34820500Y-54708543D01*
X51539499Y-54708543D01*
X51577947Y-54901829D01*
X51577950Y-54901839D01*
X51653364Y-55083907D01*
X51653371Y-55083920D01*
X51762860Y-55247781D01*
X51762863Y-55247785D01*
X51902214Y-55387136D01*
X51902218Y-55387139D01*
X52066079Y-55496628D01*
X52066092Y-55496635D01*
X52248160Y-55572049D01*
X52248165Y-55572051D01*
X52248169Y-55572051D01*
X52248170Y-55572052D01*
X52441456Y-55610500D01*
X52441459Y-55610500D01*
X53638543Y-55610500D01*
X53774368Y-55583482D01*
X53831835Y-55572051D01*
X53978541Y-55511284D01*
X54013907Y-55496635D01*
X54013907Y-55496634D01*
X54013914Y-55496632D01*
X54177782Y-55387139D01*
X54317139Y-55247782D01*
X54426632Y-55083914D01*
X54502051Y-54901835D01*
X54527120Y-54775806D01*
X54540500Y-54708543D01*
X54540500Y-54511456D01*
X54502052Y-54318170D01*
X54502051Y-54318169D01*
X54502051Y-54318165D01*
X54470807Y-54242735D01*
X54426635Y-54136092D01*
X54426628Y-54136079D01*
X54317139Y-53972218D01*
X54317136Y-53972214D01*
X54177785Y-53832863D01*
X54177781Y-53832860D01*
X54013920Y-53723371D01*
X54013907Y-53723364D01*
X53831839Y-53647950D01*
X53831829Y-53647947D01*
X53638543Y-53609500D01*
X53638541Y-53609500D01*
X52441459Y-53609500D01*
X52441457Y-53609500D01*
X52248170Y-53647947D01*
X52248160Y-53647950D01*
X52066092Y-53723364D01*
X52066079Y-53723371D01*
X51902218Y-53832860D01*
X51902214Y-53832863D01*
X51762863Y-53972214D01*
X51762860Y-53972218D01*
X51653371Y-54136079D01*
X51653364Y-54136092D01*
X51577950Y-54318160D01*
X51577947Y-54318170D01*
X51539500Y-54511456D01*
X51539500Y-54511459D01*
X51539500Y-54708541D01*
X51539500Y-54708543D01*
X51539499Y-54708543D01*
X34820500Y-54708543D01*
X34820500Y-54511456D01*
X34782052Y-54318170D01*
X34782051Y-54318169D01*
X34782051Y-54318165D01*
X34750807Y-54242735D01*
X34706635Y-54136092D01*
X34706628Y-54136079D01*
X34597139Y-53972218D01*
X34597136Y-53972214D01*
X34457785Y-53832863D01*
X34457781Y-53832860D01*
X34293920Y-53723371D01*
X34293907Y-53723364D01*
X34111839Y-53647950D01*
X34111829Y-53647947D01*
X33918543Y-53609500D01*
X33918541Y-53609500D01*
X32721459Y-53609500D01*
X32721457Y-53609500D01*
X32528170Y-53647947D01*
X32528160Y-53647950D01*
X32346092Y-53723364D01*
X32346079Y-53723371D01*
X32182218Y-53832860D01*
X32182214Y-53832863D01*
X32042863Y-53972214D01*
X32042860Y-53972218D01*
X31933371Y-54136079D01*
X31933364Y-54136092D01*
X31857950Y-54318160D01*
X31857947Y-54318170D01*
X31819500Y-54511456D01*
X31819500Y-54511459D01*
X31819500Y-54708541D01*
X31819500Y-54708543D01*
X31819499Y-54708543D01*
X26013240Y-54708543D01*
X23473240Y-52168543D01*
X31819499Y-52168543D01*
X31857947Y-52361829D01*
X31857950Y-52361839D01*
X31933364Y-52543907D01*
X31933371Y-52543920D01*
X32042860Y-52707781D01*
X32042863Y-52707785D01*
X32182214Y-52847136D01*
X32182218Y-52847139D01*
X32346079Y-52956628D01*
X32346092Y-52956635D01*
X32528160Y-53032049D01*
X32528165Y-53032051D01*
X32528169Y-53032051D01*
X32528170Y-53032052D01*
X32721456Y-53070500D01*
X32721459Y-53070500D01*
X33918543Y-53070500D01*
X34048582Y-53044632D01*
X34111835Y-53032051D01*
X34293914Y-52956632D01*
X34457782Y-52847139D01*
X34597139Y-52707782D01*
X34706632Y-52543914D01*
X34782051Y-52361835D01*
X34807120Y-52235806D01*
X34820500Y-52168543D01*
X51539499Y-52168543D01*
X51577947Y-52361829D01*
X51577950Y-52361839D01*
X51653364Y-52543907D01*
X51653371Y-52543920D01*
X51762860Y-52707781D01*
X51762863Y-52707785D01*
X51902214Y-52847136D01*
X51902218Y-52847139D01*
X52066079Y-52956628D01*
X52066092Y-52956635D01*
X52248160Y-53032049D01*
X52248165Y-53032051D01*
X52248169Y-53032051D01*
X52248170Y-53032052D01*
X52441456Y-53070500D01*
X52441459Y-53070500D01*
X53638543Y-53070500D01*
X53768582Y-53044632D01*
X53831835Y-53032051D01*
X54013914Y-52956632D01*
X54177782Y-52847139D01*
X54317139Y-52707782D01*
X54426632Y-52543914D01*
X54502051Y-52361835D01*
X54527120Y-52235806D01*
X54540500Y-52168543D01*
X54540500Y-51971456D01*
X54502052Y-51778170D01*
X54502051Y-51778169D01*
X54502051Y-51778165D01*
X54482260Y-51730385D01*
X54426635Y-51596092D01*
X54426628Y-51596079D01*
X54317139Y-51432218D01*
X54317136Y-51432214D01*
X54177785Y-51292863D01*
X54177781Y-51292860D01*
X54013920Y-51183371D01*
X54013907Y-51183364D01*
X53831839Y-51107950D01*
X53831829Y-51107947D01*
X53638543Y-51069500D01*
X53638541Y-51069500D01*
X52441459Y-51069500D01*
X52441457Y-51069500D01*
X52248170Y-51107947D01*
X52248160Y-51107950D01*
X52066092Y-51183364D01*
X52066079Y-51183371D01*
X51902218Y-51292860D01*
X51902214Y-51292863D01*
X51762863Y-51432214D01*
X51762860Y-51432218D01*
X51653371Y-51596079D01*
X51653364Y-51596092D01*
X51577950Y-51778160D01*
X51577947Y-51778170D01*
X51539500Y-51971456D01*
X51539500Y-51971459D01*
X51539500Y-52168541D01*
X51539500Y-52168543D01*
X51539499Y-52168543D01*
X34820500Y-52168543D01*
X34820500Y-51971456D01*
X34782052Y-51778170D01*
X34782051Y-51778169D01*
X34782051Y-51778165D01*
X34762260Y-51730385D01*
X34706635Y-51596092D01*
X34706628Y-51596079D01*
X34597139Y-51432218D01*
X34597136Y-51432214D01*
X34457785Y-51292863D01*
X34457781Y-51292860D01*
X34293920Y-51183371D01*
X34293907Y-51183364D01*
X34111839Y-51107950D01*
X34111829Y-51107947D01*
X33918543Y-51069500D01*
X33918541Y-51069500D01*
X32721459Y-51069500D01*
X32721457Y-51069500D01*
X32528170Y-51107947D01*
X32528160Y-51107950D01*
X32346092Y-51183364D01*
X32346079Y-51183371D01*
X32182218Y-51292860D01*
X32182214Y-51292863D01*
X32042863Y-51432214D01*
X32042860Y-51432218D01*
X31933371Y-51596079D01*
X31933364Y-51596092D01*
X31857950Y-51778160D01*
X31857947Y-51778170D01*
X31819500Y-51971456D01*
X31819500Y-51971459D01*
X31819500Y-52168541D01*
X31819500Y-52168543D01*
X31819499Y-52168543D01*
X23473240Y-52168543D01*
X22465285Y-51160588D01*
X22465283Y-51160586D01*
X22325143Y-51058768D01*
X22170800Y-50980127D01*
X22006056Y-50926598D01*
X22006054Y-50926597D01*
X22006053Y-50926597D01*
X21874626Y-50905781D01*
X21834966Y-50899500D01*
X21834965Y-50899500D01*
X21403048Y-50899500D01*
X21336009Y-50879815D01*
X21322516Y-50869790D01*
X21210597Y-50774202D01*
X21210592Y-50774199D01*
X21007873Y-50649972D01*
X20788216Y-50558988D01*
X20788214Y-50558987D01*
X20557025Y-50503483D01*
X20557023Y-50503482D01*
X20557020Y-50503482D01*
X20320000Y-50484829D01*
X20082979Y-50503482D01*
X20082975Y-50503483D01*
X19851786Y-50558987D01*
X19851784Y-50558987D01*
X19851783Y-50558988D01*
X19632126Y-50649972D01*
X19429407Y-50774199D01*
X19429402Y-50774202D01*
X19248612Y-50928612D01*
X19094202Y-51109402D01*
X19094199Y-51109407D01*
X18969972Y-51312126D01*
X18878988Y-51531783D01*
X18878987Y-51531786D01*
X18831307Y-51730385D01*
X18823482Y-51762979D01*
X18804829Y-52000000D01*
X15740500Y-52000000D01*
X15740500Y-49628543D01*
X31819499Y-49628543D01*
X31857947Y-49821829D01*
X31857950Y-49821839D01*
X31933364Y-50003907D01*
X31933371Y-50003920D01*
X32042860Y-50167781D01*
X32042863Y-50167785D01*
X32182214Y-50307136D01*
X32182218Y-50307139D01*
X32346079Y-50416628D01*
X32346092Y-50416635D01*
X32510729Y-50484829D01*
X32528165Y-50492051D01*
X32528169Y-50492051D01*
X32528170Y-50492052D01*
X32721456Y-50530500D01*
X32721459Y-50530500D01*
X33918543Y-50530500D01*
X34054368Y-50503482D01*
X34111835Y-50492051D01*
X34293914Y-50416632D01*
X34457782Y-50307139D01*
X34597139Y-50167782D01*
X34706632Y-50003914D01*
X34782051Y-49821835D01*
X34820500Y-49628543D01*
X51539499Y-49628543D01*
X51577947Y-49821829D01*
X51577950Y-49821839D01*
X51653364Y-50003907D01*
X51653371Y-50003920D01*
X51762860Y-50167781D01*
X51762863Y-50167785D01*
X51902214Y-50307136D01*
X51902218Y-50307139D01*
X52066079Y-50416628D01*
X52066092Y-50416635D01*
X52230729Y-50484829D01*
X52248165Y-50492051D01*
X52248169Y-50492051D01*
X52248170Y-50492052D01*
X52441456Y-50530500D01*
X52441459Y-50530500D01*
X53638543Y-50530500D01*
X53774368Y-50503482D01*
X53831835Y-50492051D01*
X54013914Y-50416632D01*
X54177782Y-50307139D01*
X54317139Y-50167782D01*
X54426632Y-50003914D01*
X54502051Y-49821835D01*
X54540500Y-49628541D01*
X54540500Y-49431459D01*
X54540500Y-49431456D01*
X54502052Y-49238170D01*
X54502051Y-49238169D01*
X54502051Y-49238165D01*
X54502049Y-49238160D01*
X54426635Y-49056092D01*
X54426628Y-49056079D01*
X54317139Y-48892218D01*
X54317136Y-48892214D01*
X54177785Y-48752863D01*
X54177781Y-48752860D01*
X54013920Y-48643371D01*
X54013907Y-48643364D01*
X53831839Y-48567950D01*
X53831829Y-48567947D01*
X53638543Y-48529500D01*
X53638541Y-48529500D01*
X52441459Y-48529500D01*
X52441457Y-48529500D01*
X52248170Y-48567947D01*
X52248160Y-48567950D01*
X52066092Y-48643364D01*
X52066079Y-48643371D01*
X51902218Y-48752860D01*
X51902214Y-48752863D01*
X51762863Y-48892214D01*
X51762860Y-48892218D01*
X51653371Y-49056079D01*
X51653364Y-49056092D01*
X51577950Y-49238160D01*
X51577947Y-49238170D01*
X51539500Y-49431456D01*
X51539500Y-49431459D01*
X51539500Y-49628541D01*
X51539500Y-49628543D01*
X51539499Y-49628543D01*
X34820500Y-49628543D01*
X34820500Y-49628541D01*
X34820500Y-49431459D01*
X34820500Y-49431456D01*
X34782052Y-49238170D01*
X34782051Y-49238169D01*
X34782051Y-49238165D01*
X34782049Y-49238160D01*
X34706635Y-49056092D01*
X34706628Y-49056079D01*
X34597139Y-48892218D01*
X34597136Y-48892214D01*
X34457785Y-48752863D01*
X34457781Y-48752860D01*
X34293920Y-48643371D01*
X34293907Y-48643364D01*
X34111839Y-48567950D01*
X34111829Y-48567947D01*
X33918543Y-48529500D01*
X33918541Y-48529500D01*
X32721459Y-48529500D01*
X32721457Y-48529500D01*
X32528170Y-48567947D01*
X32528160Y-48567950D01*
X32346092Y-48643364D01*
X32346079Y-48643371D01*
X32182218Y-48752860D01*
X32182214Y-48752863D01*
X32042863Y-48892214D01*
X32042860Y-48892218D01*
X31933371Y-49056079D01*
X31933364Y-49056092D01*
X31857950Y-49238160D01*
X31857947Y-49238170D01*
X31819500Y-49431456D01*
X31819500Y-49431459D01*
X31819500Y-49628541D01*
X31819500Y-49628543D01*
X31819499Y-49628543D01*
X15740500Y-49628543D01*
X15740500Y-47088543D01*
X31819499Y-47088543D01*
X31857947Y-47281829D01*
X31857950Y-47281839D01*
X31933364Y-47463907D01*
X31933371Y-47463920D01*
X32042860Y-47627781D01*
X32042863Y-47627785D01*
X32182214Y-47767136D01*
X32182218Y-47767139D01*
X32346079Y-47876628D01*
X32346092Y-47876635D01*
X32528160Y-47952049D01*
X32528165Y-47952051D01*
X32528169Y-47952051D01*
X32528170Y-47952052D01*
X32721456Y-47990500D01*
X32721459Y-47990500D01*
X33918543Y-47990500D01*
X34048582Y-47964632D01*
X34111835Y-47952051D01*
X34293914Y-47876632D01*
X34457782Y-47767139D01*
X34597139Y-47627782D01*
X34706632Y-47463914D01*
X34782051Y-47281835D01*
X34820500Y-47088543D01*
X51539499Y-47088543D01*
X51577947Y-47281829D01*
X51577950Y-47281839D01*
X51653364Y-47463907D01*
X51653371Y-47463920D01*
X51762860Y-47627781D01*
X51762863Y-47627785D01*
X51902214Y-47767136D01*
X51902218Y-47767139D01*
X52066079Y-47876628D01*
X52066092Y-47876635D01*
X52248160Y-47952049D01*
X52248165Y-47952051D01*
X52248169Y-47952051D01*
X52248170Y-47952052D01*
X52441456Y-47990500D01*
X52441459Y-47990500D01*
X53638543Y-47990500D01*
X53768582Y-47964632D01*
X53831835Y-47952051D01*
X54013914Y-47876632D01*
X54177782Y-47767139D01*
X54317139Y-47627782D01*
X54426632Y-47463914D01*
X54502051Y-47281835D01*
X54540500Y-47088541D01*
X54540500Y-46891459D01*
X54540500Y-46891456D01*
X54502052Y-46698170D01*
X54502051Y-46698169D01*
X54502051Y-46698165D01*
X54502049Y-46698160D01*
X54426635Y-46516092D01*
X54426628Y-46516079D01*
X54317139Y-46352218D01*
X54317136Y-46352214D01*
X54177785Y-46212863D01*
X54177781Y-46212860D01*
X54013920Y-46103371D01*
X54013907Y-46103364D01*
X53831839Y-46027950D01*
X53831829Y-46027947D01*
X53638543Y-45989500D01*
X53638541Y-45989500D01*
X52441459Y-45989500D01*
X52441457Y-45989500D01*
X52248170Y-46027947D01*
X52248160Y-46027950D01*
X52066092Y-46103364D01*
X52066079Y-46103371D01*
X51902218Y-46212860D01*
X51902214Y-46212863D01*
X51762863Y-46352214D01*
X51762860Y-46352218D01*
X51653371Y-46516079D01*
X51653364Y-46516092D01*
X51577950Y-46698160D01*
X51577947Y-46698170D01*
X51539500Y-46891456D01*
X51539500Y-46891459D01*
X51539500Y-47088541D01*
X51539500Y-47088543D01*
X51539499Y-47088543D01*
X34820500Y-47088543D01*
X34820500Y-47088541D01*
X34820500Y-46891459D01*
X34820500Y-46891456D01*
X34782052Y-46698170D01*
X34782051Y-46698169D01*
X34782051Y-46698165D01*
X34782049Y-46698160D01*
X34706635Y-46516092D01*
X34706628Y-46516079D01*
X34597139Y-46352218D01*
X34597136Y-46352214D01*
X34457785Y-46212863D01*
X34457781Y-46212860D01*
X34293920Y-46103371D01*
X34293907Y-46103364D01*
X34111839Y-46027950D01*
X34111829Y-46027947D01*
X33918543Y-45989500D01*
X33918541Y-45989500D01*
X32721459Y-45989500D01*
X32721457Y-45989500D01*
X32528170Y-46027947D01*
X32528160Y-46027950D01*
X32346092Y-46103364D01*
X32346079Y-46103371D01*
X32182218Y-46212860D01*
X32182214Y-46212863D01*
X32042863Y-46352214D01*
X32042860Y-46352218D01*
X31933371Y-46516079D01*
X31933364Y-46516092D01*
X31857950Y-46698160D01*
X31857947Y-46698170D01*
X31819500Y-46891456D01*
X31819500Y-46891459D01*
X31819500Y-47088541D01*
X31819500Y-47088543D01*
X31819499Y-47088543D01*
X15740500Y-47088543D01*
X15740500Y-44548543D01*
X31819499Y-44548543D01*
X31857947Y-44741829D01*
X31857950Y-44741839D01*
X31933364Y-44923907D01*
X31933371Y-44923920D01*
X32042860Y-45087781D01*
X32042863Y-45087785D01*
X32182214Y-45227136D01*
X32182218Y-45227139D01*
X32346079Y-45336628D01*
X32346092Y-45336635D01*
X32528160Y-45412049D01*
X32528165Y-45412051D01*
X32528169Y-45412051D01*
X32528170Y-45412052D01*
X32721456Y-45450500D01*
X32721459Y-45450500D01*
X33918543Y-45450500D01*
X34048582Y-45424632D01*
X34111835Y-45412051D01*
X34293914Y-45336632D01*
X34457782Y-45227139D01*
X34597139Y-45087782D01*
X34706632Y-44923914D01*
X34782051Y-44741835D01*
X34820500Y-44548543D01*
X51539499Y-44548543D01*
X51577947Y-44741829D01*
X51577950Y-44741839D01*
X51653364Y-44923907D01*
X51653371Y-44923920D01*
X51762860Y-45087781D01*
X51762863Y-45087785D01*
X51902214Y-45227136D01*
X51902218Y-45227139D01*
X52066079Y-45336628D01*
X52066092Y-45336635D01*
X52248160Y-45412049D01*
X52248165Y-45412051D01*
X52248169Y-45412051D01*
X52248170Y-45412052D01*
X52441456Y-45450500D01*
X52441459Y-45450500D01*
X53638543Y-45450500D01*
X53768582Y-45424632D01*
X53831835Y-45412051D01*
X54013914Y-45336632D01*
X54177782Y-45227139D01*
X54317139Y-45087782D01*
X54426632Y-44923914D01*
X54502051Y-44741835D01*
X54540500Y-44548541D01*
X54540500Y-44351459D01*
X54540500Y-44351456D01*
X54502052Y-44158170D01*
X54502051Y-44158169D01*
X54502051Y-44158165D01*
X54470807Y-44082735D01*
X54426635Y-43976092D01*
X54426628Y-43976079D01*
X54317139Y-43812218D01*
X54317136Y-43812214D01*
X54177785Y-43672863D01*
X54177781Y-43672860D01*
X54013920Y-43563371D01*
X54013907Y-43563364D01*
X53831839Y-43487950D01*
X53831829Y-43487947D01*
X53638543Y-43449500D01*
X53638541Y-43449500D01*
X52441459Y-43449500D01*
X52441457Y-43449500D01*
X52248170Y-43487947D01*
X52248160Y-43487950D01*
X52066092Y-43563364D01*
X52066079Y-43563371D01*
X51902218Y-43672860D01*
X51902214Y-43672863D01*
X51762863Y-43812214D01*
X51762860Y-43812218D01*
X51653371Y-43976079D01*
X51653364Y-43976092D01*
X51577950Y-44158160D01*
X51577947Y-44158170D01*
X51539500Y-44351456D01*
X51539500Y-44351459D01*
X51539500Y-44548541D01*
X51539500Y-44548543D01*
X51539499Y-44548543D01*
X34820500Y-44548543D01*
X34820500Y-44548541D01*
X34820500Y-44351459D01*
X34820500Y-44351456D01*
X34782052Y-44158170D01*
X34782051Y-44158169D01*
X34782051Y-44158165D01*
X34750807Y-44082735D01*
X34706635Y-43976092D01*
X34706628Y-43976079D01*
X34597139Y-43812218D01*
X34597136Y-43812214D01*
X34457785Y-43672863D01*
X34457781Y-43672860D01*
X34293920Y-43563371D01*
X34293907Y-43563364D01*
X34111839Y-43487950D01*
X34111829Y-43487947D01*
X33918543Y-43449500D01*
X33918541Y-43449500D01*
X32721459Y-43449500D01*
X32721457Y-43449500D01*
X32528170Y-43487947D01*
X32528160Y-43487950D01*
X32346092Y-43563364D01*
X32346079Y-43563371D01*
X32182218Y-43672860D01*
X32182214Y-43672863D01*
X32042863Y-43812214D01*
X32042860Y-43812218D01*
X31933371Y-43976079D01*
X31933364Y-43976092D01*
X31857950Y-44158160D01*
X31857947Y-44158170D01*
X31819500Y-44351456D01*
X31819500Y-44351459D01*
X31819500Y-44548541D01*
X31819500Y-44548543D01*
X31819499Y-44548543D01*
X15740500Y-44548543D01*
X15740500Y-42008543D01*
X31819499Y-42008543D01*
X31857947Y-42201829D01*
X31857950Y-42201839D01*
X31933364Y-42383907D01*
X31933371Y-42383920D01*
X32042860Y-42547781D01*
X32042863Y-42547785D01*
X32182214Y-42687136D01*
X32182218Y-42687139D01*
X32346079Y-42796628D01*
X32346092Y-42796635D01*
X32528160Y-42872049D01*
X32528165Y-42872051D01*
X32528169Y-42872051D01*
X32528170Y-42872052D01*
X32721456Y-42910500D01*
X32721459Y-42910500D01*
X33918543Y-42910500D01*
X34048582Y-42884632D01*
X34111835Y-42872051D01*
X34293914Y-42796632D01*
X34457782Y-42687139D01*
X34597139Y-42547782D01*
X34706632Y-42383914D01*
X34782051Y-42201835D01*
X34807120Y-42075806D01*
X34820500Y-42008543D01*
X51539499Y-42008543D01*
X51577947Y-42201829D01*
X51577950Y-42201839D01*
X51653364Y-42383907D01*
X51653371Y-42383920D01*
X51762860Y-42547781D01*
X51762863Y-42547785D01*
X51902214Y-42687136D01*
X51902218Y-42687139D01*
X52066079Y-42796628D01*
X52066092Y-42796635D01*
X52248160Y-42872049D01*
X52248165Y-42872051D01*
X52248169Y-42872051D01*
X52248170Y-42872052D01*
X52441456Y-42910500D01*
X52441459Y-42910500D01*
X53638543Y-42910500D01*
X53768582Y-42884632D01*
X53831835Y-42872051D01*
X54013914Y-42796632D01*
X54177782Y-42687139D01*
X54317139Y-42547782D01*
X54426632Y-42383914D01*
X54502051Y-42201835D01*
X54527120Y-42075806D01*
X54540500Y-42008543D01*
X54540500Y-41811456D01*
X54502052Y-41618170D01*
X54502051Y-41618169D01*
X54502051Y-41618165D01*
X54470807Y-41542735D01*
X54426635Y-41436092D01*
X54426628Y-41436079D01*
X54317139Y-41272218D01*
X54317136Y-41272214D01*
X54177785Y-41132863D01*
X54177781Y-41132860D01*
X54013920Y-41023371D01*
X54013907Y-41023364D01*
X53831839Y-40947950D01*
X53831829Y-40947947D01*
X53638543Y-40909500D01*
X53638541Y-40909500D01*
X52441459Y-40909500D01*
X52441457Y-40909500D01*
X52248170Y-40947947D01*
X52248160Y-40947950D01*
X52066092Y-41023364D01*
X52066079Y-41023371D01*
X51902218Y-41132860D01*
X51902214Y-41132863D01*
X51762863Y-41272214D01*
X51762860Y-41272218D01*
X51653371Y-41436079D01*
X51653364Y-41436092D01*
X51577950Y-41618160D01*
X51577947Y-41618170D01*
X51539500Y-41811456D01*
X51539500Y-41811459D01*
X51539500Y-42008541D01*
X51539500Y-42008543D01*
X51539499Y-42008543D01*
X34820500Y-42008543D01*
X34820500Y-41811456D01*
X34782052Y-41618170D01*
X34782051Y-41618169D01*
X34782051Y-41618165D01*
X34750807Y-41542735D01*
X34706635Y-41436092D01*
X34706628Y-41436079D01*
X34597139Y-41272218D01*
X34597136Y-41272214D01*
X34457785Y-41132863D01*
X34457781Y-41132860D01*
X34293920Y-41023371D01*
X34293907Y-41023364D01*
X34111839Y-40947950D01*
X34111829Y-40947947D01*
X33918543Y-40909500D01*
X33918541Y-40909500D01*
X32721459Y-40909500D01*
X32721457Y-40909500D01*
X32528170Y-40947947D01*
X32528160Y-40947950D01*
X32346092Y-41023364D01*
X32346079Y-41023371D01*
X32182218Y-41132860D01*
X32182214Y-41132863D01*
X32042863Y-41272214D01*
X32042860Y-41272218D01*
X31933371Y-41436079D01*
X31933364Y-41436092D01*
X31857950Y-41618160D01*
X31857947Y-41618170D01*
X31819500Y-41811456D01*
X31819500Y-41811459D01*
X31819500Y-42008541D01*
X31819500Y-42008543D01*
X31819499Y-42008543D01*
X15740500Y-42008543D01*
X15740500Y-38100000D01*
X17274709Y-38100000D01*
X17293856Y-38440959D01*
X17293858Y-38440971D01*
X17351060Y-38777637D01*
X17351062Y-38777646D01*
X17421300Y-39021448D01*
X17445601Y-39105796D01*
X17493472Y-39221366D01*
X17576287Y-39421300D01*
X17741480Y-39720196D01*
X17741483Y-39720201D01*
X17939092Y-39998703D01*
X17939096Y-39998708D01*
X18166654Y-40253346D01*
X18421292Y-40480904D01*
X18421295Y-40480906D01*
X18421296Y-40480907D01*
X18699798Y-40678516D01*
X18699803Y-40678519D01*
X18699806Y-40678520D01*
X18699808Y-40678522D01*
X18998698Y-40843712D01*
X19314204Y-40974399D01*
X19642359Y-41068939D01*
X19979036Y-41126143D01*
X20320000Y-41145291D01*
X20660964Y-41126143D01*
X20997641Y-41068939D01*
X21325796Y-40974399D01*
X21641302Y-40843712D01*
X21940192Y-40678522D01*
X21940197Y-40678518D01*
X21940201Y-40678516D01*
X22055310Y-40596840D01*
X22218708Y-40480904D01*
X22473346Y-40253346D01*
X22700904Y-39998708D01*
X22816840Y-39835310D01*
X22898516Y-39720201D01*
X22898519Y-39720196D01*
X22898522Y-39720192D01*
X23037603Y-39468543D01*
X31819499Y-39468543D01*
X31857947Y-39661829D01*
X31857950Y-39661839D01*
X31933364Y-39843907D01*
X31933371Y-39843920D01*
X32042860Y-40007781D01*
X32042863Y-40007785D01*
X32182214Y-40147136D01*
X32182218Y-40147139D01*
X32346079Y-40256628D01*
X32346092Y-40256635D01*
X32528160Y-40332049D01*
X32528165Y-40332051D01*
X32528169Y-40332051D01*
X32528170Y-40332052D01*
X32721456Y-40370500D01*
X32721459Y-40370500D01*
X33918543Y-40370500D01*
X34048582Y-40344632D01*
X34111835Y-40332051D01*
X34293914Y-40256632D01*
X34457782Y-40147139D01*
X34597139Y-40007782D01*
X34706632Y-39843914D01*
X34782051Y-39661835D01*
X34807120Y-39535806D01*
X34820500Y-39468543D01*
X51539499Y-39468543D01*
X51577947Y-39661829D01*
X51577950Y-39661839D01*
X51653364Y-39843907D01*
X51653371Y-39843920D01*
X51762860Y-40007781D01*
X51762863Y-40007785D01*
X51902214Y-40147136D01*
X51902218Y-40147139D01*
X52066079Y-40256628D01*
X52066092Y-40256635D01*
X52248160Y-40332049D01*
X52248165Y-40332051D01*
X52248169Y-40332051D01*
X52248170Y-40332052D01*
X52441456Y-40370500D01*
X52441459Y-40370500D01*
X53638543Y-40370500D01*
X53768582Y-40344632D01*
X53831835Y-40332051D01*
X54013914Y-40256632D01*
X54177782Y-40147139D01*
X54317139Y-40007782D01*
X54426632Y-39843914D01*
X54502051Y-39661835D01*
X54527120Y-39535806D01*
X54540500Y-39468543D01*
X54540500Y-39271456D01*
X54502052Y-39078170D01*
X54502051Y-39078169D01*
X54502051Y-39078165D01*
X54433447Y-38912539D01*
X54426635Y-38896092D01*
X54426628Y-38896079D01*
X54317139Y-38732218D01*
X54317136Y-38732214D01*
X54177785Y-38592863D01*
X54177781Y-38592860D01*
X54013920Y-38483371D01*
X54013907Y-38483364D01*
X53831839Y-38407950D01*
X53831829Y-38407947D01*
X53638543Y-38369500D01*
X53638541Y-38369500D01*
X52441459Y-38369500D01*
X52441457Y-38369500D01*
X52248170Y-38407947D01*
X52248160Y-38407950D01*
X52066092Y-38483364D01*
X52066079Y-38483371D01*
X51902218Y-38592860D01*
X51902214Y-38592863D01*
X51762863Y-38732214D01*
X51762860Y-38732218D01*
X51653371Y-38896079D01*
X51653364Y-38896092D01*
X51577950Y-39078160D01*
X51577947Y-39078170D01*
X51539500Y-39271456D01*
X51539500Y-39271459D01*
X51539500Y-39468541D01*
X51539500Y-39468543D01*
X51539499Y-39468543D01*
X34820500Y-39468543D01*
X34820500Y-39271456D01*
X34782052Y-39078170D01*
X34782051Y-39078169D01*
X34782051Y-39078165D01*
X34713447Y-38912539D01*
X34706635Y-38896092D01*
X34706628Y-38896079D01*
X34597139Y-38732218D01*
X34597136Y-38732214D01*
X34457785Y-38592863D01*
X34457781Y-38592860D01*
X34293920Y-38483371D01*
X34293907Y-38483364D01*
X34111839Y-38407950D01*
X34111829Y-38407947D01*
X33918543Y-38369500D01*
X33918541Y-38369500D01*
X32721459Y-38369500D01*
X32721457Y-38369500D01*
X32528170Y-38407947D01*
X32528160Y-38407950D01*
X32346092Y-38483364D01*
X32346079Y-38483371D01*
X32182218Y-38592860D01*
X32182214Y-38592863D01*
X32042863Y-38732214D01*
X32042860Y-38732218D01*
X31933371Y-38896079D01*
X31933364Y-38896092D01*
X31857950Y-39078160D01*
X31857947Y-39078170D01*
X31819500Y-39271456D01*
X31819500Y-39271459D01*
X31819500Y-39468541D01*
X31819500Y-39468543D01*
X31819499Y-39468543D01*
X23037603Y-39468543D01*
X23063712Y-39421302D01*
X23194399Y-39105796D01*
X23288939Y-38777641D01*
X23346143Y-38440964D01*
X23365291Y-38100000D01*
X23365291Y-38099999D01*
X69954127Y-38099999D01*
X69954127Y-38100000D01*
X69973977Y-38314228D01*
X70032855Y-38521159D01*
X70032860Y-38521172D01*
X70128751Y-38713746D01*
X70128753Y-38713749D01*
X70128755Y-38713753D01*
X70128758Y-38713757D01*
X70128760Y-38713760D01*
X70177001Y-38777641D01*
X70258409Y-38885444D01*
X70258412Y-38885446D01*
X70258414Y-38885449D01*
X70417402Y-39030385D01*
X70417404Y-39030386D01*
X70417405Y-39030387D01*
X70600326Y-39143647D01*
X70800944Y-39221367D01*
X71012427Y-39260900D01*
X71012429Y-39260900D01*
X71227571Y-39260900D01*
X71227573Y-39260900D01*
X71439056Y-39221367D01*
X71639674Y-39143647D01*
X71822595Y-39030387D01*
X71981591Y-38885444D01*
X72111245Y-38713753D01*
X72207144Y-38521162D01*
X72266022Y-38314229D01*
X72285873Y-38100000D01*
X72266022Y-37885771D01*
X72207144Y-37678838D01*
X72111245Y-37486247D01*
X71981591Y-37314556D01*
X71981587Y-37314552D01*
X71981585Y-37314550D01*
X71822597Y-37169614D01*
X71745421Y-37121829D01*
X71639674Y-37056353D01*
X71439056Y-36978633D01*
X71227573Y-36939100D01*
X71012427Y-36939100D01*
X70800944Y-36978633D01*
X70674075Y-37027782D01*
X70600328Y-37056352D01*
X70600327Y-37056352D01*
X70417402Y-37169614D01*
X70258414Y-37314550D01*
X70258407Y-37314558D01*
X70128760Y-37486239D01*
X70128751Y-37486253D01*
X70032860Y-37678827D01*
X70032855Y-37678840D01*
X69973977Y-37885771D01*
X69954127Y-38099999D01*
X23365291Y-38099999D01*
X23346143Y-37759036D01*
X23288939Y-37422359D01*
X23194399Y-37094204D01*
X23125780Y-36928543D01*
X31819499Y-36928543D01*
X31857947Y-37121829D01*
X31857950Y-37121839D01*
X31933364Y-37303907D01*
X31933371Y-37303920D01*
X32042860Y-37467781D01*
X32042863Y-37467785D01*
X32182214Y-37607136D01*
X32182218Y-37607139D01*
X32346079Y-37716628D01*
X32346092Y-37716635D01*
X32528160Y-37792049D01*
X32528165Y-37792051D01*
X32528169Y-37792051D01*
X32528170Y-37792052D01*
X32721456Y-37830500D01*
X32721459Y-37830500D01*
X33918543Y-37830500D01*
X34048582Y-37804632D01*
X34111835Y-37792051D01*
X34293914Y-37716632D01*
X34457782Y-37607139D01*
X34597139Y-37467782D01*
X34706632Y-37303914D01*
X34782051Y-37121835D01*
X34820500Y-36928543D01*
X51539499Y-36928543D01*
X51577947Y-37121829D01*
X51577950Y-37121839D01*
X51653364Y-37303907D01*
X51653371Y-37303920D01*
X51762860Y-37467781D01*
X51762863Y-37467785D01*
X51902214Y-37607136D01*
X51902218Y-37607139D01*
X52066079Y-37716628D01*
X52066092Y-37716635D01*
X52248160Y-37792049D01*
X52248165Y-37792051D01*
X52248169Y-37792051D01*
X52248170Y-37792052D01*
X52441456Y-37830500D01*
X52441459Y-37830500D01*
X53638543Y-37830500D01*
X53768582Y-37804632D01*
X53831835Y-37792051D01*
X54013914Y-37716632D01*
X54177782Y-37607139D01*
X54317139Y-37467782D01*
X54426632Y-37303914D01*
X54502051Y-37121835D01*
X54540500Y-36928541D01*
X54540500Y-36731459D01*
X54540500Y-36731456D01*
X54502052Y-36538170D01*
X54502051Y-36538169D01*
X54502051Y-36538165D01*
X54458818Y-36433790D01*
X54426635Y-36356092D01*
X54426628Y-36356079D01*
X54317139Y-36192218D01*
X54317136Y-36192214D01*
X54177785Y-36052863D01*
X54177781Y-36052860D01*
X54013920Y-35943371D01*
X54013907Y-35943364D01*
X53831839Y-35867950D01*
X53831829Y-35867947D01*
X53638543Y-35829500D01*
X53638541Y-35829500D01*
X52441459Y-35829500D01*
X52441457Y-35829500D01*
X52248170Y-35867947D01*
X52248160Y-35867950D01*
X52066092Y-35943364D01*
X52066079Y-35943371D01*
X51902218Y-36052860D01*
X51902214Y-36052863D01*
X51762863Y-36192214D01*
X51762860Y-36192218D01*
X51653371Y-36356079D01*
X51653364Y-36356092D01*
X51577950Y-36538160D01*
X51577947Y-36538170D01*
X51539500Y-36731456D01*
X51539500Y-36731459D01*
X51539500Y-36928541D01*
X51539500Y-36928543D01*
X51539499Y-36928543D01*
X34820500Y-36928543D01*
X34820500Y-36928541D01*
X34820500Y-36731459D01*
X34820500Y-36731456D01*
X34782052Y-36538170D01*
X34782051Y-36538169D01*
X34782051Y-36538165D01*
X34738818Y-36433790D01*
X34706635Y-36356092D01*
X34706628Y-36356079D01*
X34597139Y-36192218D01*
X34597136Y-36192214D01*
X34457785Y-36052863D01*
X34457781Y-36052860D01*
X34293920Y-35943371D01*
X34293907Y-35943364D01*
X34111839Y-35867950D01*
X34111829Y-35867947D01*
X33918543Y-35829500D01*
X33918541Y-35829500D01*
X32721459Y-35829500D01*
X32721457Y-35829500D01*
X32528170Y-35867947D01*
X32528160Y-35867950D01*
X32346092Y-35943364D01*
X32346079Y-35943371D01*
X32182218Y-36052860D01*
X32182214Y-36052863D01*
X32042863Y-36192214D01*
X32042860Y-36192218D01*
X31933371Y-36356079D01*
X31933364Y-36356092D01*
X31857950Y-36538160D01*
X31857947Y-36538170D01*
X31819500Y-36731456D01*
X31819500Y-36731459D01*
X31819500Y-36928541D01*
X31819500Y-36928543D01*
X31819499Y-36928543D01*
X23125780Y-36928543D01*
X23063712Y-36778698D01*
X22898522Y-36479808D01*
X22898520Y-36479806D01*
X22898519Y-36479803D01*
X22898516Y-36479798D01*
X22700907Y-36201296D01*
X22700906Y-36201295D01*
X22700904Y-36201292D01*
X22473346Y-35946654D01*
X22218708Y-35719096D01*
X22218705Y-35719094D01*
X22218703Y-35719092D01*
X21940201Y-35521483D01*
X21940196Y-35521480D01*
X21641300Y-35356287D01*
X21573525Y-35328214D01*
X21325796Y-35225601D01*
X21155832Y-35176635D01*
X20997646Y-35131062D01*
X20997637Y-35131060D01*
X20660971Y-35073858D01*
X20660959Y-35073856D01*
X20320000Y-35054709D01*
X19979040Y-35073856D01*
X19979028Y-35073858D01*
X19642362Y-35131060D01*
X19642353Y-35131062D01*
X19314207Y-35225600D01*
X19314204Y-35225601D01*
X19250353Y-35252049D01*
X18998699Y-35356287D01*
X18699803Y-35521480D01*
X18699798Y-35521483D01*
X18421296Y-35719092D01*
X18166654Y-35946654D01*
X17939092Y-36201296D01*
X17741483Y-36479798D01*
X17741480Y-36479803D01*
X17576287Y-36778699D01*
X17514221Y-36928541D01*
X17461280Y-37056353D01*
X17445600Y-37094207D01*
X17351062Y-37422353D01*
X17351060Y-37422362D01*
X17293858Y-37759028D01*
X17293856Y-37759040D01*
X17274709Y-38100000D01*
X15740500Y-38100000D01*
X15740500Y-34388543D01*
X31819499Y-34388543D01*
X31857947Y-34581829D01*
X31857950Y-34581839D01*
X31933364Y-34763907D01*
X31933371Y-34763920D01*
X32042860Y-34927781D01*
X32042863Y-34927785D01*
X32182214Y-35067136D01*
X32182218Y-35067139D01*
X32346079Y-35176628D01*
X32346092Y-35176635D01*
X32528160Y-35252049D01*
X32528165Y-35252051D01*
X32528169Y-35252051D01*
X32528170Y-35252052D01*
X32721456Y-35290500D01*
X32721459Y-35290500D01*
X33918543Y-35290500D01*
X34048582Y-35264632D01*
X34111835Y-35252051D01*
X34293914Y-35176632D01*
X34457782Y-35067139D01*
X34597139Y-34927782D01*
X34706632Y-34763914D01*
X34782051Y-34581835D01*
X34820500Y-34388543D01*
X51539499Y-34388543D01*
X51577947Y-34581829D01*
X51577950Y-34581839D01*
X51653364Y-34763907D01*
X51653371Y-34763920D01*
X51762860Y-34927781D01*
X51762863Y-34927785D01*
X51902214Y-35067136D01*
X51902218Y-35067139D01*
X52066079Y-35176628D01*
X52066092Y-35176635D01*
X52248160Y-35252049D01*
X52248165Y-35252051D01*
X52248169Y-35252051D01*
X52248170Y-35252052D01*
X52441456Y-35290500D01*
X52441459Y-35290500D01*
X53638543Y-35290500D01*
X53768582Y-35264632D01*
X53831835Y-35252051D01*
X54013914Y-35176632D01*
X54177782Y-35067139D01*
X54317139Y-34927782D01*
X54426632Y-34763914D01*
X54502051Y-34581835D01*
X54540500Y-34388541D01*
X54540500Y-34191459D01*
X54540500Y-34191456D01*
X54502052Y-33998170D01*
X54502051Y-33998169D01*
X54502051Y-33998165D01*
X54502049Y-33998160D01*
X54426635Y-33816092D01*
X54426628Y-33816079D01*
X54317139Y-33652218D01*
X54317136Y-33652214D01*
X54177785Y-33512863D01*
X54177781Y-33512860D01*
X54013920Y-33403371D01*
X54013907Y-33403364D01*
X53831839Y-33327950D01*
X53831829Y-33327947D01*
X53638543Y-33289500D01*
X53638541Y-33289500D01*
X52441459Y-33289500D01*
X52441457Y-33289500D01*
X52248170Y-33327947D01*
X52248160Y-33327950D01*
X52066092Y-33403364D01*
X52066079Y-33403371D01*
X51902218Y-33512860D01*
X51902214Y-33512863D01*
X51762863Y-33652214D01*
X51762860Y-33652218D01*
X51653371Y-33816079D01*
X51653364Y-33816092D01*
X51577950Y-33998160D01*
X51577947Y-33998170D01*
X51539500Y-34191456D01*
X51539500Y-34191459D01*
X51539500Y-34388541D01*
X51539500Y-34388543D01*
X51539499Y-34388543D01*
X34820500Y-34388543D01*
X34820500Y-34388541D01*
X34820500Y-34191459D01*
X34820500Y-34191456D01*
X34782052Y-33998170D01*
X34782051Y-33998169D01*
X34782051Y-33998165D01*
X34782049Y-33998160D01*
X34706635Y-33816092D01*
X34706628Y-33816079D01*
X34597139Y-33652218D01*
X34597136Y-33652214D01*
X34457785Y-33512863D01*
X34457781Y-33512860D01*
X34293920Y-33403371D01*
X34293907Y-33403364D01*
X34111839Y-33327950D01*
X34111829Y-33327947D01*
X33918543Y-33289500D01*
X33918541Y-33289500D01*
X32721459Y-33289500D01*
X32721457Y-33289500D01*
X32528170Y-33327947D01*
X32528160Y-33327950D01*
X32346092Y-33403364D01*
X32346079Y-33403371D01*
X32182218Y-33512860D01*
X32182214Y-33512863D01*
X32042863Y-33652214D01*
X32042860Y-33652218D01*
X31933371Y-33816079D01*
X31933364Y-33816092D01*
X31857950Y-33998160D01*
X31857947Y-33998170D01*
X31819500Y-34191456D01*
X31819500Y-34191459D01*
X31819500Y-34388541D01*
X31819500Y-34388543D01*
X31819499Y-34388543D01*
X15740500Y-34388543D01*
X15740500Y-31848543D01*
X31819499Y-31848543D01*
X31857947Y-32041829D01*
X31857950Y-32041839D01*
X31933364Y-32223907D01*
X31933371Y-32223920D01*
X32042860Y-32387781D01*
X32042863Y-32387785D01*
X32182214Y-32527136D01*
X32182218Y-32527139D01*
X32346079Y-32636628D01*
X32346092Y-32636635D01*
X32528160Y-32712049D01*
X32528165Y-32712051D01*
X32528169Y-32712051D01*
X32528170Y-32712052D01*
X32721456Y-32750500D01*
X32721459Y-32750500D01*
X33918543Y-32750500D01*
X34048582Y-32724632D01*
X34111835Y-32712051D01*
X34293914Y-32636632D01*
X34457782Y-32527139D01*
X34597139Y-32387782D01*
X34706632Y-32223914D01*
X34782051Y-32041835D01*
X34820500Y-31848543D01*
X51539499Y-31848543D01*
X51577947Y-32041829D01*
X51577950Y-32041839D01*
X51653364Y-32223907D01*
X51653371Y-32223920D01*
X51762860Y-32387781D01*
X51762863Y-32387785D01*
X51902214Y-32527136D01*
X51902218Y-32527139D01*
X52066079Y-32636628D01*
X52066092Y-32636635D01*
X52248160Y-32712049D01*
X52248165Y-32712051D01*
X52248169Y-32712051D01*
X52248170Y-32712052D01*
X52441456Y-32750500D01*
X52441459Y-32750500D01*
X53638543Y-32750500D01*
X53768582Y-32724632D01*
X53831835Y-32712051D01*
X54013914Y-32636632D01*
X54177782Y-32527139D01*
X54317139Y-32387782D01*
X54426632Y-32223914D01*
X54502051Y-32041835D01*
X54540500Y-31848541D01*
X54540500Y-31651459D01*
X54540500Y-31651456D01*
X54502052Y-31458170D01*
X54502051Y-31458169D01*
X54502051Y-31458165D01*
X54470807Y-31382735D01*
X54426635Y-31276092D01*
X54426628Y-31276079D01*
X54317139Y-31112218D01*
X54317136Y-31112214D01*
X54177785Y-30972863D01*
X54177781Y-30972860D01*
X54013920Y-30863371D01*
X54013907Y-30863364D01*
X53831839Y-30787950D01*
X53831829Y-30787947D01*
X53638543Y-30749500D01*
X53638541Y-30749500D01*
X52441459Y-30749500D01*
X52441457Y-30749500D01*
X52248170Y-30787947D01*
X52248160Y-30787950D01*
X52066092Y-30863364D01*
X52066079Y-30863371D01*
X51902218Y-30972860D01*
X51902214Y-30972863D01*
X51762863Y-31112214D01*
X51762860Y-31112218D01*
X51653371Y-31276079D01*
X51653364Y-31276092D01*
X51577950Y-31458160D01*
X51577947Y-31458170D01*
X51539500Y-31651456D01*
X51539500Y-31651459D01*
X51539500Y-31848541D01*
X51539500Y-31848543D01*
X51539499Y-31848543D01*
X34820500Y-31848543D01*
X34820500Y-31848541D01*
X34820500Y-31651459D01*
X34820500Y-31651456D01*
X34782052Y-31458170D01*
X34782051Y-31458169D01*
X34782051Y-31458165D01*
X34750807Y-31382735D01*
X34706635Y-31276092D01*
X34706628Y-31276079D01*
X34597139Y-31112218D01*
X34597136Y-31112214D01*
X34457785Y-30972863D01*
X34457781Y-30972860D01*
X34293920Y-30863371D01*
X34293907Y-30863364D01*
X34111839Y-30787950D01*
X34111829Y-30787947D01*
X33918543Y-30749500D01*
X33918541Y-30749500D01*
X32721459Y-30749500D01*
X32721457Y-30749500D01*
X32528170Y-30787947D01*
X32528160Y-30787950D01*
X32346092Y-30863364D01*
X32346079Y-30863371D01*
X32182218Y-30972860D01*
X32182214Y-30972863D01*
X32042863Y-31112214D01*
X32042860Y-31112218D01*
X31933371Y-31276079D01*
X31933364Y-31276092D01*
X31857950Y-31458160D01*
X31857947Y-31458170D01*
X31819500Y-31651456D01*
X31819500Y-31651459D01*
X31819500Y-31848541D01*
X31819500Y-31848543D01*
X31819499Y-31848543D01*
X15740500Y-31848543D01*
X15740500Y-26420000D01*
X31543391Y-26420000D01*
X32586988Y-26420000D01*
X32554075Y-26477007D01*
X32520000Y-26604174D01*
X32520000Y-26735826D01*
X32554075Y-26862993D01*
X32586988Y-26920000D01*
X31543391Y-26920000D01*
X31552009Y-26974413D01*
X31615244Y-27169029D01*
X31708140Y-27351349D01*
X31828417Y-27516894D01*
X31828417Y-27516895D01*
X31973104Y-27661582D01*
X32138650Y-27781859D01*
X32320968Y-27874755D01*
X32515582Y-27937990D01*
X32704268Y-27967875D01*
X32767403Y-27997804D01*
X32804334Y-28057116D01*
X32803336Y-28126978D01*
X32764726Y-28185211D01*
X32709062Y-28211965D01*
X32528170Y-28247947D01*
X32528160Y-28247950D01*
X32346092Y-28323364D01*
X32346079Y-28323371D01*
X32182218Y-28432860D01*
X32182214Y-28432863D01*
X32042863Y-28572214D01*
X32042860Y-28572218D01*
X31933371Y-28736079D01*
X31933364Y-28736092D01*
X31857950Y-28918160D01*
X31857947Y-28918170D01*
X31819500Y-29111456D01*
X31819500Y-29111459D01*
X31819500Y-29308541D01*
X31819500Y-29308543D01*
X31819499Y-29308543D01*
X31857947Y-29501829D01*
X31857950Y-29501839D01*
X31933364Y-29683907D01*
X31933371Y-29683920D01*
X32042860Y-29847781D01*
X32042863Y-29847785D01*
X32182214Y-29987136D01*
X32182218Y-29987139D01*
X32346079Y-30096628D01*
X32346092Y-30096635D01*
X32528160Y-30172049D01*
X32528165Y-30172051D01*
X32528169Y-30172051D01*
X32528170Y-30172052D01*
X32721456Y-30210500D01*
X32721459Y-30210500D01*
X33918543Y-30210500D01*
X34048582Y-30184632D01*
X34111835Y-30172051D01*
X34293914Y-30096632D01*
X34457782Y-29987139D01*
X34597139Y-29847782D01*
X34706632Y-29683914D01*
X34782051Y-29501835D01*
X34807120Y-29375806D01*
X34820500Y-29308543D01*
X51539499Y-29308543D01*
X51577947Y-29501829D01*
X51577950Y-29501839D01*
X51653364Y-29683907D01*
X51653371Y-29683920D01*
X51762860Y-29847781D01*
X51762863Y-29847785D01*
X51902214Y-29987136D01*
X51902218Y-29987139D01*
X52066079Y-30096628D01*
X52066092Y-30096635D01*
X52248160Y-30172049D01*
X52248165Y-30172051D01*
X52248169Y-30172051D01*
X52248170Y-30172052D01*
X52441456Y-30210500D01*
X52441459Y-30210500D01*
X53638543Y-30210500D01*
X53768582Y-30184632D01*
X53831835Y-30172051D01*
X54013914Y-30096632D01*
X54177782Y-29987139D01*
X54317139Y-29847782D01*
X54426632Y-29683914D01*
X54502051Y-29501835D01*
X54527120Y-29375806D01*
X54540500Y-29308543D01*
X54540500Y-29111456D01*
X54502052Y-28918170D01*
X54502051Y-28918169D01*
X54502051Y-28918165D01*
X54470807Y-28842735D01*
X54426635Y-28736092D01*
X54426628Y-28736079D01*
X54317139Y-28572218D01*
X54317136Y-28572214D01*
X54177785Y-28432863D01*
X54177781Y-28432860D01*
X54013920Y-28323371D01*
X54013907Y-28323364D01*
X53831839Y-28247950D01*
X53831829Y-28247947D01*
X53638543Y-28209500D01*
X53638541Y-28209500D01*
X52441459Y-28209500D01*
X52441457Y-28209500D01*
X52248170Y-28247947D01*
X52248160Y-28247950D01*
X52066092Y-28323364D01*
X52066079Y-28323371D01*
X51902218Y-28432860D01*
X51902214Y-28432863D01*
X51762863Y-28572214D01*
X51762860Y-28572218D01*
X51653371Y-28736079D01*
X51653364Y-28736092D01*
X51577950Y-28918160D01*
X51577947Y-28918170D01*
X51539500Y-29111456D01*
X51539500Y-29111459D01*
X51539500Y-29308541D01*
X51539500Y-29308543D01*
X51539499Y-29308543D01*
X34820500Y-29308543D01*
X34820500Y-29111456D01*
X34782052Y-28918170D01*
X34782051Y-28918169D01*
X34782051Y-28918165D01*
X34750807Y-28842735D01*
X34706635Y-28736092D01*
X34706628Y-28736079D01*
X34597139Y-28572218D01*
X34597136Y-28572214D01*
X34457785Y-28432863D01*
X34457781Y-28432860D01*
X34293920Y-28323371D01*
X34293907Y-28323364D01*
X34111839Y-28247950D01*
X34111829Y-28247947D01*
X33930937Y-28211965D01*
X33869026Y-28179580D01*
X33834452Y-28118864D01*
X33838192Y-28049095D01*
X33879059Y-27992423D01*
X33935731Y-27967875D01*
X34124417Y-27937990D01*
X34319031Y-27874755D01*
X34501349Y-27781859D01*
X34666894Y-27661582D01*
X34666895Y-27661582D01*
X34811582Y-27516895D01*
X34811582Y-27516894D01*
X34931859Y-27351349D01*
X35024755Y-27169029D01*
X35087990Y-26974413D01*
X35096609Y-26920000D01*
X33453012Y-26920000D01*
X33485925Y-26862993D01*
X33520000Y-26735826D01*
X33520000Y-26604174D01*
X33485925Y-26477007D01*
X33453012Y-26420000D01*
X35096609Y-26420000D01*
X35087990Y-26365586D01*
X35024755Y-26170970D01*
X34931859Y-25988650D01*
X34811582Y-25823105D01*
X34811582Y-25823104D01*
X34666895Y-25678417D01*
X34501349Y-25558140D01*
X34319031Y-25465244D01*
X34124417Y-25402009D01*
X34111726Y-25399999D01*
X69954127Y-25399999D01*
X69954127Y-25400000D01*
X69973977Y-25614228D01*
X70032855Y-25821159D01*
X70032860Y-25821172D01*
X70128751Y-26013746D01*
X70128753Y-26013749D01*
X70128755Y-26013753D01*
X70258409Y-26185444D01*
X70258412Y-26185446D01*
X70258414Y-26185449D01*
X70417402Y-26330385D01*
X70417404Y-26330386D01*
X70417405Y-26330387D01*
X70600326Y-26443647D01*
X70800944Y-26521367D01*
X71012427Y-26560900D01*
X71012429Y-26560900D01*
X71227571Y-26560900D01*
X71227573Y-26560900D01*
X71439056Y-26521367D01*
X71639674Y-26443647D01*
X71822595Y-26330387D01*
X71981591Y-26185444D01*
X72111245Y-26013753D01*
X72207144Y-25821162D01*
X72266022Y-25614229D01*
X72285873Y-25400000D01*
X72266022Y-25185771D01*
X72207144Y-24978838D01*
X72111245Y-24786247D01*
X71981591Y-24614556D01*
X71981587Y-24614552D01*
X71981585Y-24614550D01*
X71822597Y-24469614D01*
X71745421Y-24421829D01*
X71639674Y-24356353D01*
X71439056Y-24278633D01*
X71227573Y-24239100D01*
X71012427Y-24239100D01*
X70800944Y-24278633D01*
X70674075Y-24327782D01*
X70600328Y-24356352D01*
X70600327Y-24356352D01*
X70417402Y-24469614D01*
X70258414Y-24614550D01*
X70258407Y-24614558D01*
X70128760Y-24786239D01*
X70128751Y-24786253D01*
X70032860Y-24978827D01*
X70032855Y-24978840D01*
X69973977Y-25185771D01*
X69954127Y-25399999D01*
X34111726Y-25399999D01*
X33935731Y-25372124D01*
X33872596Y-25342194D01*
X33835665Y-25282883D01*
X33836663Y-25213020D01*
X33875273Y-25154788D01*
X33930938Y-25128034D01*
X34111835Y-25092051D01*
X34293914Y-25016632D01*
X34457782Y-24907139D01*
X34597139Y-24767782D01*
X34706632Y-24603914D01*
X34782051Y-24421835D01*
X34820500Y-24228541D01*
X34820500Y-24031459D01*
X34820500Y-24031456D01*
X34782052Y-23838170D01*
X34782051Y-23838169D01*
X34782051Y-23838165D01*
X34782049Y-23838160D01*
X34706635Y-23656092D01*
X34706628Y-23656079D01*
X34597139Y-23492218D01*
X34597136Y-23492214D01*
X34457785Y-23352863D01*
X34457781Y-23352860D01*
X34293920Y-23243371D01*
X34293907Y-23243364D01*
X34111839Y-23167950D01*
X34111829Y-23167947D01*
X33918543Y-23129500D01*
X33918541Y-23129500D01*
X32721459Y-23129500D01*
X32721457Y-23129500D01*
X32528170Y-23167947D01*
X32528160Y-23167950D01*
X32346092Y-23243364D01*
X32346079Y-23243371D01*
X32182218Y-23352860D01*
X32182214Y-23352863D01*
X32042863Y-23492214D01*
X32042860Y-23492218D01*
X31933371Y-23656079D01*
X31933364Y-23656092D01*
X31857950Y-23838160D01*
X31857947Y-23838170D01*
X31819500Y-24031456D01*
X31819500Y-24031459D01*
X31819500Y-24228541D01*
X31819500Y-24228543D01*
X31819499Y-24228543D01*
X31857947Y-24421829D01*
X31857950Y-24421839D01*
X31933364Y-24603907D01*
X31933371Y-24603920D01*
X32042860Y-24767781D01*
X32042863Y-24767785D01*
X32182214Y-24907136D01*
X32182218Y-24907139D01*
X32346079Y-25016628D01*
X32346092Y-25016635D01*
X32528160Y-25092049D01*
X32528165Y-25092051D01*
X32660674Y-25118409D01*
X32709061Y-25128034D01*
X32770972Y-25160419D01*
X32805546Y-25221134D01*
X32801807Y-25290904D01*
X32760940Y-25347576D01*
X32704269Y-25372124D01*
X32515581Y-25402010D01*
X32320968Y-25465244D01*
X32138650Y-25558140D01*
X31973105Y-25678417D01*
X31973104Y-25678417D01*
X31828417Y-25823104D01*
X31828417Y-25823105D01*
X31708140Y-25988650D01*
X31615244Y-26170970D01*
X31552009Y-26365586D01*
X31543391Y-26420000D01*
X15740500Y-26420000D01*
X15740500Y-21688543D01*
X31819499Y-21688543D01*
X31857947Y-21881829D01*
X31857950Y-21881839D01*
X31933364Y-22063907D01*
X31933371Y-22063920D01*
X32042860Y-22227781D01*
X32042863Y-22227785D01*
X32182214Y-22367136D01*
X32182218Y-22367139D01*
X32346079Y-22476628D01*
X32346092Y-22476635D01*
X32528160Y-22552049D01*
X32528165Y-22552051D01*
X32528169Y-22552051D01*
X32528170Y-22552052D01*
X32721456Y-22590500D01*
X32721459Y-22590500D01*
X33918543Y-22590500D01*
X34048582Y-22564632D01*
X34111835Y-22552051D01*
X34293914Y-22476632D01*
X34457782Y-22367139D01*
X34597139Y-22227782D01*
X34706632Y-22063914D01*
X34782051Y-21881835D01*
X34820500Y-21688541D01*
X34820500Y-21491459D01*
X34820500Y-21491456D01*
X34782052Y-21298170D01*
X34782051Y-21298169D01*
X34782051Y-21298165D01*
X34782049Y-21298160D01*
X34706635Y-21116092D01*
X34706628Y-21116079D01*
X34597139Y-20952218D01*
X34597136Y-20952214D01*
X34457785Y-20812863D01*
X34457781Y-20812860D01*
X34293920Y-20703371D01*
X34293907Y-20703364D01*
X34111839Y-20627950D01*
X34111829Y-20627947D01*
X33918543Y-20589500D01*
X33918541Y-20589500D01*
X32721459Y-20589500D01*
X32721457Y-20589500D01*
X32528170Y-20627947D01*
X32528160Y-20627950D01*
X32346092Y-20703364D01*
X32346079Y-20703371D01*
X32182218Y-20812860D01*
X32182214Y-20812863D01*
X32042863Y-20952214D01*
X32042860Y-20952218D01*
X31933371Y-21116079D01*
X31933364Y-21116092D01*
X31857950Y-21298160D01*
X31857947Y-21298170D01*
X31819500Y-21491456D01*
X31819500Y-21491459D01*
X31819500Y-21688541D01*
X31819500Y-21688543D01*
X31819499Y-21688543D01*
X15740500Y-21688543D01*
X15740500Y-19663920D01*
X19569499Y-19663920D01*
X19598340Y-19808907D01*
X19598343Y-19808917D01*
X19654912Y-19945488D01*
X19654919Y-19945501D01*
X19737048Y-20068415D01*
X19737051Y-20068419D01*
X19841580Y-20172948D01*
X19841584Y-20172951D01*
X19964498Y-20255080D01*
X19964511Y-20255087D01*
X20101082Y-20311656D01*
X20101087Y-20311658D01*
X20101091Y-20311658D01*
X20101092Y-20311659D01*
X20246079Y-20340500D01*
X20246082Y-20340500D01*
X20393920Y-20340500D01*
X20491462Y-20321096D01*
X20538913Y-20311658D01*
X20675495Y-20255084D01*
X20798416Y-20172951D01*
X20902951Y-20068416D01*
X20985084Y-19945495D01*
X21041658Y-19808913D01*
X21051096Y-19761462D01*
X21070500Y-19663920D01*
X21070500Y-19516079D01*
X21041659Y-19371092D01*
X21041658Y-19371091D01*
X21041658Y-19371087D01*
X21041656Y-19371082D01*
X20985087Y-19234511D01*
X20985080Y-19234498D01*
X20902951Y-19111584D01*
X20902948Y-19111580D01*
X20798419Y-19007051D01*
X20798415Y-19007048D01*
X20675501Y-18924919D01*
X20675488Y-18924912D01*
X20538917Y-18868343D01*
X20538907Y-18868340D01*
X20393920Y-18839500D01*
X20393918Y-18839500D01*
X20246082Y-18839500D01*
X20246080Y-18839500D01*
X20101092Y-18868340D01*
X20101082Y-18868343D01*
X19964511Y-18924912D01*
X19964498Y-18924919D01*
X19841584Y-19007048D01*
X19841580Y-19007051D01*
X19737051Y-19111580D01*
X19737048Y-19111584D01*
X19654919Y-19234498D01*
X19654912Y-19234511D01*
X19598343Y-19371082D01*
X19598340Y-19371092D01*
X19569500Y-19516079D01*
X19569500Y-19516082D01*
X19569500Y-19663918D01*
X19569500Y-19663920D01*
X19569499Y-19663920D01*
X15740500Y-19663920D01*
X15740500Y-18445730D01*
X31819500Y-18445730D01*
X31819500Y-19654269D01*
X31822353Y-19684699D01*
X31822353Y-19684701D01*
X31867206Y-19812880D01*
X31867207Y-19812882D01*
X31947850Y-19922150D01*
X32057118Y-20002793D01*
X32099845Y-20017744D01*
X32185299Y-20047646D01*
X32215730Y-20050500D01*
X32215734Y-20050500D01*
X34424270Y-20050500D01*
X34454699Y-20047646D01*
X34454701Y-20047646D01*
X34518790Y-20025219D01*
X34582882Y-20002793D01*
X34692150Y-19922150D01*
X34772793Y-19812882D01*
X34811683Y-19701741D01*
X34817646Y-19684701D01*
X34817646Y-19684699D01*
X34820500Y-19654269D01*
X34820500Y-18445730D01*
X34817646Y-18415300D01*
X34817646Y-18415298D01*
X34772793Y-18287119D01*
X34772792Y-18287117D01*
X34692150Y-18177850D01*
X34582882Y-18097207D01*
X34582880Y-18097206D01*
X34454700Y-18052353D01*
X34424270Y-18049500D01*
X34424266Y-18049500D01*
X32215734Y-18049500D01*
X32215730Y-18049500D01*
X32185300Y-18052353D01*
X32185298Y-18052353D01*
X32057119Y-18097206D01*
X32057117Y-18097207D01*
X31947850Y-18177850D01*
X31867207Y-18287117D01*
X31867206Y-18287119D01*
X31822353Y-18415298D01*
X31822353Y-18415300D01*
X31819500Y-18445730D01*
X15740500Y-18445730D01*
X15740500Y-17780000D01*
X68074709Y-17780000D01*
X68093856Y-18120959D01*
X68093858Y-18120971D01*
X68151060Y-18457637D01*
X68151062Y-18457646D01*
X68221300Y-18701448D01*
X68245601Y-18785796D01*
X68376288Y-19101302D01*
X68381971Y-19111584D01*
X68541480Y-19400196D01*
X68541483Y-19400201D01*
X68728603Y-19663920D01*
X68739096Y-19678708D01*
X68966654Y-19933346D01*
X69221292Y-20160904D01*
X69221295Y-20160906D01*
X69221296Y-20160907D01*
X69499798Y-20358516D01*
X69499803Y-20358519D01*
X69499806Y-20358520D01*
X69499808Y-20358522D01*
X69798698Y-20523712D01*
X70114204Y-20654399D01*
X70442359Y-20748939D01*
X70779036Y-20806143D01*
X71120000Y-20825291D01*
X71460964Y-20806143D01*
X71797641Y-20748939D01*
X72125796Y-20654399D01*
X72441302Y-20523712D01*
X72740192Y-20358522D01*
X72740197Y-20358518D01*
X72740201Y-20358516D01*
X72885974Y-20255084D01*
X73018708Y-20160904D01*
X73273346Y-19933346D01*
X73500904Y-19678708D01*
X73616840Y-19515310D01*
X73698516Y-19400201D01*
X73698519Y-19400196D01*
X73698522Y-19400192D01*
X73863712Y-19101302D01*
X73994399Y-18785796D01*
X74088939Y-18457641D01*
X74146143Y-18120964D01*
X74165291Y-17780000D01*
X74146143Y-17439036D01*
X74088939Y-17102359D01*
X73994399Y-16774204D01*
X73863712Y-16458698D01*
X73698522Y-16159808D01*
X73698520Y-16159806D01*
X73698519Y-16159803D01*
X73698516Y-16159798D01*
X73500907Y-15881296D01*
X73500906Y-15881295D01*
X73500904Y-15881292D01*
X73273346Y-15626654D01*
X73018708Y-15399096D01*
X73018705Y-15399094D01*
X73018703Y-15399092D01*
X72740201Y-15201483D01*
X72740196Y-15201480D01*
X72441300Y-15036287D01*
X72375956Y-15009221D01*
X72125796Y-14905601D01*
X72041448Y-14881300D01*
X71797646Y-14811062D01*
X71797637Y-14811060D01*
X71460971Y-14753858D01*
X71460959Y-14753856D01*
X71120000Y-14734709D01*
X70779040Y-14753856D01*
X70779028Y-14753858D01*
X70442362Y-14811060D01*
X70442353Y-14811062D01*
X70114207Y-14905600D01*
X70114204Y-14905601D01*
X70021796Y-14943877D01*
X69798699Y-15036287D01*
X69499803Y-15201480D01*
X69499798Y-15201483D01*
X69221296Y-15399092D01*
X68966654Y-15626654D01*
X68739092Y-15881296D01*
X68541483Y-16159798D01*
X68541480Y-16159803D01*
X68376287Y-16458699D01*
X68245600Y-16774207D01*
X68151062Y-17102353D01*
X68151060Y-17102362D01*
X68093858Y-17439028D01*
X68093856Y-17439040D01*
X68074709Y-17780000D01*
X15740500Y-17780000D01*
X15740500Y-16663920D01*
X19569499Y-16663920D01*
X19598340Y-16808907D01*
X19598343Y-16808917D01*
X19654912Y-16945488D01*
X19654919Y-16945501D01*
X19737048Y-17068415D01*
X19737051Y-17068419D01*
X19841580Y-17172948D01*
X19841584Y-17172951D01*
X19964498Y-17255080D01*
X19964511Y-17255087D01*
X20101082Y-17311656D01*
X20101087Y-17311658D01*
X20101091Y-17311658D01*
X20101092Y-17311659D01*
X20246079Y-17340500D01*
X20246082Y-17340500D01*
X20393920Y-17340500D01*
X20491462Y-17321096D01*
X20538913Y-17311658D01*
X20675495Y-17255084D01*
X20798416Y-17172951D01*
X20902951Y-17068416D01*
X20985084Y-16945495D01*
X21041658Y-16808913D01*
X21070500Y-16663918D01*
X21070500Y-16516082D01*
X21070500Y-16516079D01*
X21041659Y-16371092D01*
X21041658Y-16371091D01*
X21041658Y-16371087D01*
X21007847Y-16289460D01*
X20985087Y-16234511D01*
X20985080Y-16234498D01*
X20902951Y-16111584D01*
X20902948Y-16111580D01*
X20798419Y-16007051D01*
X20798415Y-16007048D01*
X20675501Y-15924919D01*
X20675488Y-15924912D01*
X20538917Y-15868343D01*
X20538907Y-15868340D01*
X20393920Y-15839500D01*
X20393918Y-15839500D01*
X20246082Y-15839500D01*
X20246080Y-15839500D01*
X20101092Y-15868340D01*
X20101082Y-15868343D01*
X19964511Y-15924912D01*
X19964498Y-15924919D01*
X19841584Y-16007048D01*
X19841580Y-16007051D01*
X19737051Y-16111580D01*
X19737048Y-16111584D01*
X19654919Y-16234498D01*
X19654912Y-16234511D01*
X19598343Y-16371082D01*
X19598340Y-16371092D01*
X19569500Y-16516079D01*
X19569500Y-16516082D01*
X19569500Y-16663918D01*
X19569500Y-16663920D01*
X19569499Y-16663920D01*
X15740500Y-16663920D01*
X15740500Y-13324500D01*
X15760185Y-13257461D01*
X15812989Y-13211706D01*
X15864500Y-13200500D01*
X75575500Y-13200500D01*
X75642539Y-13220185D01*
G37*
%TD.AperFunction*%
%TD*%
M02*
