%TF.GenerationSoftware,KiCad,Pcbnew,8.0.5*%
%TF.CreationDate,2024-10-11T15:03:24+01:00*%
%TF.ProjectId,ribboncontroller,72696262-6f6e-4636-9f6e-74726f6c6c65,rev?*%
%TF.SameCoordinates,Original*%
%TF.FileFunction,Copper,L1,Top*%
%TF.FilePolarity,Positive*%
%FSLAX46Y46*%
G04 Gerber Fmt 4.6, Leading zero omitted, Abs format (unit mm)*
G04 Created by KiCad (PCBNEW 8.0.5) date 2024-10-11 15:03:24*
%MOMM*%
%LPD*%
G01*
G04 APERTURE LIST*
G04 Aperture macros list*
%AMRoundRect*
0 Rectangle with rounded corners*
0 $1 Rounding radius*
0 $2 $3 $4 $5 $6 $7 $8 $9 X,Y pos of 4 corners*
0 Add a 4 corners polygon primitive as box body*
4,1,4,$2,$3,$4,$5,$6,$7,$8,$9,$2,$3,0*
0 Add four circle primitives for the rounded corners*
1,1,$1+$1,$2,$3*
1,1,$1+$1,$4,$5*
1,1,$1+$1,$6,$7*
1,1,$1+$1,$8,$9*
0 Add four rect primitives between the rounded corners*
20,1,$1+$1,$2,$3,$4,$5,0*
20,1,$1+$1,$4,$5,$6,$7,0*
20,1,$1+$1,$6,$7,$8,$9,0*
20,1,$1+$1,$8,$9,$2,$3,0*%
G04 Aperture macros list end*
%TA.AperFunction,ComponentPad*%
%ADD10C,2.020000*%
%TD*%
%TA.AperFunction,ComponentPad*%
%ADD11RoundRect,0.250000X-1.050000X-0.550000X1.050000X-0.550000X1.050000X0.550000X-1.050000X0.550000X0*%
%TD*%
%TA.AperFunction,ComponentPad*%
%ADD12O,2.600000X1.600000*%
%TD*%
%TA.AperFunction,SMDPad,CuDef*%
%ADD13RoundRect,0.250000X-0.450000X0.350000X-0.450000X-0.350000X0.450000X-0.350000X0.450000X0.350000X0*%
%TD*%
%TA.AperFunction,ComponentPad*%
%ADD14C,1.320800*%
%TD*%
%TA.AperFunction,ComponentPad*%
%ADD15R,1.320800X1.320800*%
%TD*%
%TA.AperFunction,SMDPad,CuDef*%
%ADD16R,1.500000X1.000000*%
%TD*%
%TA.AperFunction,SMDPad,CuDef*%
%ADD17R,4.600000X1.000000*%
%TD*%
%TA.AperFunction,SMDPad,CuDef*%
%ADD18R,3.400000X1.600000*%
%TD*%
%TA.AperFunction,ComponentPad*%
%ADD19R,1.635000X1.635000*%
%TD*%
%TA.AperFunction,ComponentPad*%
%ADD20C,1.635000*%
%TD*%
%TA.AperFunction,Conductor*%
%ADD21C,1.200000*%
%TD*%
%TA.AperFunction,Conductor*%
%ADD22C,0.200000*%
%TD*%
G04 APERTURE END LIST*
D10*
%TO.P,J3,4*%
%TO.N,Net-(J2-Pad1)*%
X46533134Y-83548351D03*
%TO.P,J3,3*%
%TO.N,Net-(J2-Pad2)*%
X43993134Y-83548351D03*
%TO.P,J3,2*%
%TO.N,Net-(J2-Pad3)*%
X41453134Y-83548351D03*
%TO.P,J3,1*%
%TO.N,Net-(J2-Pad4)*%
X38913134Y-83548351D03*
%TD*%
%TO.P,J2,4*%
%TO.N,Net-(J2-Pad4)*%
X20320000Y-59620000D03*
%TO.P,J2,3*%
%TO.N,Net-(J2-Pad3)*%
X20320000Y-57080000D03*
%TO.P,J2,2*%
%TO.N,Net-(J2-Pad2)*%
X20320000Y-54540000D03*
%TO.P,J2,1*%
%TO.N,Net-(J2-Pad1)*%
X20320000Y-52000000D03*
%TD*%
D11*
%TO.P,A2,1,~{RESET}*%
%TO.N,unconnected-(A2-~{RESET}-Pad1)*%
X33320000Y-19050000D03*
D12*
%TO.P,A2,2,3V3*%
%TO.N,+3.3V*%
X33320000Y-21590000D03*
%TO.P,A2,3,AREF*%
%TO.N,unconnected-(A2-AREF-Pad3)*%
X33320000Y-24130000D03*
%TO.P,A2,4,GND*%
%TO.N,-BATT*%
X33320000Y-26670000D03*
%TO.P,A2,5,A0*%
%TO.N,Net-(A2-A0)*%
X33320000Y-29210000D03*
%TO.P,A2,6,A1*%
%TO.N,Net-(A2-A1)*%
X33320000Y-31750000D03*
%TO.P,A2,7,A2*%
%TO.N,Net-(A2-A2)*%
X33320000Y-34290000D03*
%TO.P,A2,8,A3*%
%TO.N,Net-(A2-A3)*%
X33320000Y-36830000D03*
%TO.P,A2,9,A4*%
%TO.N,unconnected-(A2-A4-Pad9)*%
X33320000Y-39370000D03*
%TO.P,A2,10,A5*%
%TO.N,unconnected-(A2-A5-Pad10)*%
X33320000Y-41910000D03*
%TO.P,A2,11,SCK*%
%TO.N,unconnected-(A2-SCK-Pad11)*%
X33320000Y-44450000D03*
%TO.P,A2,12,MOSI*%
%TO.N,unconnected-(A2-MOSI-Pad12)*%
X33320000Y-46990000D03*
%TO.P,A2,13,MISO*%
%TO.N,unconnected-(A2-MISO-Pad13)*%
X33320000Y-49530000D03*
%TO.P,A2,14,RX*%
%TO.N,unconnected-(A2-RX-Pad14)*%
X33320000Y-52070000D03*
%TO.P,A2,15,TX*%
%TO.N,unconnected-(A2-TX-Pad15)*%
X33320000Y-54610000D03*
%TO.P,A2,16,SPARE*%
%TO.N,unconnected-(A2-SPARE-Pad16)*%
X33320000Y-57150000D03*
%TO.P,A2,17,SDA*%
%TO.N,unconnected-(A2-SDA-Pad17)*%
X53040000Y-57150000D03*
%TO.P,A2,18,SCL*%
%TO.N,unconnected-(A2-SCL-Pad18)*%
X53040000Y-54610000D03*
%TO.P,A2,19,D0*%
%TO.N,unconnected-(A2-D0-Pad19)*%
X53040000Y-52070000D03*
%TO.P,A2,20,D1*%
%TO.N,unconnected-(A2-D1-Pad20)*%
X53040000Y-49530000D03*
%TO.P,A2,21,D2*%
%TO.N,unconnected-(A2-D2-Pad21)*%
X53040000Y-46990000D03*
%TO.P,A2,22,D3*%
%TO.N,unconnected-(A2-D3-Pad22)*%
X53040000Y-44450000D03*
%TO.P,A2,23,D4*%
%TO.N,unconnected-(A2-D4-Pad23)*%
X53040000Y-41910000D03*
%TO.P,A2,24,D5*%
%TO.N,unconnected-(A2-D5-Pad24)*%
X53040000Y-39370000D03*
%TO.P,A2,25,D6*%
%TO.N,unconnected-(A2-D6-Pad25)*%
X53040000Y-36830000D03*
%TO.P,A2,26,USB*%
%TO.N,unconnected-(A2-USB-Pad26)*%
X53040000Y-34290000D03*
%TO.P,A2,27,EN*%
%TO.N,unconnected-(A2-EN-Pad27)*%
X53040000Y-31750000D03*
%TO.P,A2,28,VBAT*%
%TO.N,Net-(A2-VBAT)*%
X53040000Y-29210000D03*
%TD*%
D13*
%TO.P,R4,1*%
%TO.N,Net-(A2-A3)*%
X60960000Y-65040000D03*
%TO.P,R4,2*%
%TO.N,-BATT*%
X60960000Y-67040000D03*
%TD*%
D14*
%TO.P,R8,1,1*%
%TO.N,Net-(A2-A3)*%
X71120000Y-63500000D03*
D15*
%TO.P,R8,2,2*%
%TO.N,Net-(J1-Pad1)*%
X68580000Y-66040000D03*
%TO.P,R8,3,3*%
%TO.N,unconnected-(R8-Pad3)*%
X71120000Y-68580000D03*
%TD*%
D16*
%TO.P,SW1,O1,O*%
%TO.N,Net-(A2-VBAT)*%
X23120000Y-15590000D03*
%TO.P,SW1,O2,O*%
X17520000Y-15590000D03*
%TO.P,SW1,P1,P*%
%TO.N,+BATT*%
X23120000Y-18090000D03*
%TO.P,SW1,P2,P*%
X17520000Y-18090000D03*
%TO.P,SW1,S1,S*%
%TO.N,unconnected-(SW1A-S-PadS1)*%
X23120000Y-20590000D03*
%TO.P,SW1,S2,S*%
%TO.N,unconnected-(SW1B-S-PadS2)*%
X17520000Y-20590000D03*
%TD*%
D14*
%TO.P,R6,1,1*%
%TO.N,Net-(A2-A1)*%
X71120000Y-38100000D03*
D15*
%TO.P,R6,2,2*%
%TO.N,Net-(J1-Pad6)*%
X68580000Y-40640000D03*
%TO.P,R6,3,3*%
%TO.N,unconnected-(R6-Pad3)*%
X71120000Y-43180000D03*
%TD*%
D13*
%TO.P,R2,1*%
%TO.N,Net-(A2-A1)*%
X60960000Y-38100000D03*
%TO.P,R2,2*%
%TO.N,-BATT*%
X60960000Y-40100000D03*
%TD*%
D17*
%TO.P,X1,1,1*%
%TO.N,-BATT*%
X24020000Y-28940000D03*
%TO.P,X1,2,2*%
%TO.N,+BATT*%
X24020000Y-26940000D03*
D18*
%TO.P,X1,NC1*%
%TO.N,N/C*%
X18820000Y-31340000D03*
%TO.P,X1,NC2*%
X18820000Y-24540000D03*
%TD*%
D13*
%TO.P,R3,1*%
%TO.N,Net-(A2-A2)*%
X60960000Y-52340000D03*
%TO.P,R3,2*%
%TO.N,-BATT*%
X60960000Y-54340000D03*
%TD*%
%TO.P,R1,1*%
%TO.N,Net-(A2-A0)*%
X60960000Y-27940000D03*
%TO.P,R1,2*%
%TO.N,-BATT*%
X60960000Y-29940000D03*
%TD*%
D14*
%TO.P,R5,1,1*%
%TO.N,Net-(A2-A0)*%
X71120000Y-25400000D03*
D15*
%TO.P,R5,2,2*%
%TO.N,Net-(J1-Pad9)*%
X68580000Y-27940000D03*
%TO.P,R5,3,3*%
%TO.N,unconnected-(R5-Pad3)*%
X71120000Y-30480000D03*
%TD*%
D19*
%TO.P,J1,1,1*%
%TO.N,Net-(J1-Pad1)*%
X30480000Y-91440000D03*
D20*
%TO.P,J1,2,2*%
%TO.N,+3.3V*%
X33020000Y-91440000D03*
%TO.P,J1,3,3*%
X35560000Y-91440000D03*
%TO.P,J1,4,4*%
%TO.N,Net-(J1-Pad4)*%
X38100000Y-91440000D03*
%TO.P,J1,5,5*%
%TO.N,-BATT*%
X40640000Y-91440000D03*
%TO.P,J1,6,6*%
%TO.N,Net-(J1-Pad6)*%
X43180000Y-91440000D03*
%TO.P,J1,7,7*%
%TO.N,+3.3V*%
X45720000Y-91440000D03*
%TO.P,J1,8,8*%
X48260000Y-91440000D03*
%TO.P,J1,9,9*%
%TO.N,Net-(J1-Pad9)*%
X50800000Y-91440000D03*
%TO.P,J1,10,10*%
%TO.N,-BATT*%
X53340000Y-91440000D03*
%TD*%
D14*
%TO.P,R7,1,1*%
%TO.N,Net-(A2-A2)*%
X71120000Y-50800000D03*
D15*
%TO.P,R7,2,2*%
%TO.N,Net-(J1-Pad4)*%
X68580000Y-53340000D03*
%TO.P,R7,3,3*%
%TO.N,unconnected-(R7-Pad3)*%
X71120000Y-55880000D03*
%TD*%
D21*
%TO.N,-BATT*%
X25742294Y-42837706D02*
X25742294Y-33362294D01*
X22860000Y-45720000D02*
X25742294Y-42837706D01*
X25742294Y-33362294D02*
X27940000Y-31164588D01*
X22860000Y-45720000D02*
X22860000Y-99060000D01*
D22*
X66580000Y-45720000D02*
X73660000Y-45720000D01*
X60960000Y-40100000D02*
X66580000Y-45720000D01*
X73660000Y-45720000D02*
X73660000Y-71120000D01*
X73660000Y-35560000D02*
X73660000Y-45720000D01*
X67040000Y-54340000D02*
X73660000Y-60960000D01*
X60960000Y-54340000D02*
X67040000Y-54340000D01*
X68580000Y-73660000D02*
X58420000Y-83820000D01*
X71120000Y-73660000D02*
X68580000Y-73660000D01*
X58420000Y-69580000D02*
X58420000Y-83820000D01*
X58420000Y-83820000D02*
X58420000Y-86360000D01*
X69938211Y-35560000D02*
X73660000Y-35560000D01*
X73660000Y-71120000D02*
X71120000Y-73660000D01*
X64318211Y-29940000D02*
X69938211Y-35560000D01*
X60960000Y-29940000D02*
X64318211Y-29940000D01*
X60960000Y-67040000D02*
X58420000Y-69580000D01*
X58420000Y-86360000D02*
X53340000Y-91440000D01*
%TO.N,Net-(A2-A3)*%
X64500000Y-65040000D02*
X66040000Y-63500000D01*
X60960000Y-65040000D02*
X64500000Y-65040000D01*
X66040000Y-63500000D02*
X71120000Y-63500000D01*
X57420000Y-65040000D02*
X60960000Y-65040000D01*
X48260000Y-52070000D02*
X48260000Y-55880000D01*
X33020000Y-36830000D02*
X48260000Y-52070000D01*
X48260000Y-55880000D02*
X57420000Y-65040000D01*
%TO.N,Net-(A2-A2)*%
X63500000Y-50800000D02*
X71120000Y-50800000D01*
X61960000Y-52340000D02*
X63500000Y-50800000D01*
X60960000Y-52340000D02*
X61960000Y-52340000D01*
X49700000Y-50970000D02*
X59590000Y-50970000D01*
X59590000Y-50970000D02*
X60960000Y-52340000D01*
X33020000Y-34290000D02*
X49700000Y-50970000D01*
%TO.N,Net-(A2-A1)*%
X60960000Y-38100000D02*
X71120000Y-38100000D01*
X39370000Y-38100000D02*
X60960000Y-38100000D01*
X33020000Y-31750000D02*
X39370000Y-38100000D01*
%TO.N,Net-(A2-A0)*%
X66040000Y-25400000D02*
X71120000Y-25400000D01*
X60960000Y-27940000D02*
X63500000Y-27940000D01*
X63500000Y-27940000D02*
X66040000Y-25400000D01*
X58590000Y-30310000D02*
X60960000Y-27940000D01*
X34120000Y-30310000D02*
X58590000Y-30310000D01*
X33020000Y-29210000D02*
X34120000Y-30310000D01*
D21*
%TO.N,-BATT*%
X24020000Y-28940000D02*
X27940000Y-28940000D01*
X33020000Y-99060000D02*
X34290000Y-97790000D01*
X46990000Y-97790000D02*
X53340000Y-91440000D01*
X27940000Y-28940000D02*
X30210000Y-26670000D01*
X22860000Y-99060000D02*
X33020000Y-99060000D01*
X34290000Y-97790000D02*
X46990000Y-97790000D01*
X27940000Y-31164588D02*
X27940000Y-28940000D01*
X30210000Y-26670000D02*
X33020000Y-26670000D01*
X33020000Y-99060000D02*
X40640000Y-91440000D01*
%TO.N,Net-(A2-VBAT)*%
X23120000Y-15590000D02*
X39720000Y-15590000D01*
X17870000Y-15240000D02*
X17520000Y-15590000D01*
X22770000Y-15240000D02*
X17870000Y-15240000D01*
X23120000Y-15590000D02*
X22770000Y-15240000D01*
X39720000Y-15590000D02*
X53340000Y-29210000D01*
%TO.N,+BATT*%
X24670000Y-26290000D02*
X24020000Y-26940000D01*
X24670000Y-19640000D02*
X24670000Y-26290000D01*
X23120000Y-18090000D02*
X17520000Y-18090000D01*
X23120000Y-18090000D02*
X24670000Y-19640000D01*
D22*
%TO.N,+3.3V*%
X34290000Y-21590000D02*
X33020000Y-21590000D01*
X36677500Y-90322500D02*
X44602500Y-90322500D01*
X31720000Y-67280000D02*
X27940000Y-63500000D01*
X35560000Y-22860000D02*
X34290000Y-21590000D01*
X45720000Y-91440000D02*
X48260000Y-91440000D01*
X44602500Y-90322500D02*
X45720000Y-91440000D01*
X34105635Y-27940000D02*
X35560000Y-26485635D01*
X27940000Y-34290000D02*
X30480000Y-31750000D01*
X30480000Y-29994365D02*
X32534365Y-27940000D01*
X33020000Y-91440000D02*
X35560000Y-91440000D01*
X32534365Y-27940000D02*
X34105635Y-27940000D01*
X27940000Y-63500000D02*
X27940000Y-34290000D01*
X31720000Y-85365000D02*
X31720000Y-67280000D01*
X35560000Y-26485635D02*
X35560000Y-22860000D01*
X36677500Y-90322500D02*
X31720000Y-85365000D01*
X35560000Y-91440000D02*
X36677500Y-90322500D01*
X30480000Y-31750000D02*
X30480000Y-29994365D01*
%TD*%
%TA.AperFunction,Conductor*%
%TO.N,-BATT*%
G36*
X33513039Y-26439685D02*
G01*
X33558794Y-26492489D01*
X33570000Y-26544000D01*
X33570000Y-26796000D01*
X33550315Y-26863039D01*
X33497511Y-26908794D01*
X33454019Y-26918255D01*
X33485925Y-26862993D01*
X33520000Y-26735826D01*
X33520000Y-26604174D01*
X33485925Y-26477007D01*
X33454443Y-26422479D01*
X33513039Y-26439685D01*
G37*
%TD.AperFunction*%
%TA.AperFunction,Conductor*%
G36*
X75642539Y-13220185D02*
G01*
X75688294Y-13272989D01*
X75699500Y-13324500D01*
X75699500Y-106055500D01*
X75679815Y-106122539D01*
X75627011Y-106168294D01*
X75575500Y-106179500D01*
X15864500Y-106179500D01*
X15797461Y-106159815D01*
X15751706Y-106107011D01*
X15740500Y-106055500D01*
X15740500Y-102048299D01*
X16565037Y-102048299D01*
X16584184Y-102389258D01*
X16584186Y-102389270D01*
X16641388Y-102725936D01*
X16641390Y-102725945D01*
X16697671Y-102921300D01*
X16735929Y-103054095D01*
X16823790Y-103266210D01*
X16866615Y-103369599D01*
X17031808Y-103668495D01*
X17031811Y-103668500D01*
X17229420Y-103947002D01*
X17229424Y-103947007D01*
X17456982Y-104201645D01*
X17711620Y-104429203D01*
X17711623Y-104429205D01*
X17711624Y-104429206D01*
X17990126Y-104626815D01*
X17990131Y-104626818D01*
X17990134Y-104626819D01*
X17990136Y-104626821D01*
X18289026Y-104792011D01*
X18604532Y-104922698D01*
X18932687Y-105017238D01*
X19269364Y-105074442D01*
X19610328Y-105093590D01*
X19951292Y-105074442D01*
X20287969Y-105017238D01*
X20616124Y-104922698D01*
X20931630Y-104792011D01*
X21230520Y-104626821D01*
X21230525Y-104626817D01*
X21230529Y-104626815D01*
X21445338Y-104474399D01*
X21509036Y-104429203D01*
X21763674Y-104201645D01*
X21991232Y-103947007D01*
X22128643Y-103753345D01*
X22188844Y-103668500D01*
X22188847Y-103668495D01*
X22188850Y-103668491D01*
X22354040Y-103369601D01*
X22484727Y-103054095D01*
X22579267Y-102725940D01*
X22636471Y-102389263D01*
X22655619Y-102048299D01*
X22636471Y-101707335D01*
X22618234Y-101600000D01*
X68074709Y-101600000D01*
X68093856Y-101940959D01*
X68093858Y-101940971D01*
X68151060Y-102277637D01*
X68151062Y-102277646D01*
X68221300Y-102521448D01*
X68245601Y-102605796D01*
X68349221Y-102855956D01*
X68376287Y-102921300D01*
X68541480Y-103220196D01*
X68541483Y-103220201D01*
X68739092Y-103498703D01*
X68739096Y-103498708D01*
X68966654Y-103753346D01*
X69221292Y-103980904D01*
X69221295Y-103980906D01*
X69221296Y-103980907D01*
X69499798Y-104178516D01*
X69499803Y-104178519D01*
X69499806Y-104178520D01*
X69499808Y-104178522D01*
X69798698Y-104343712D01*
X70114204Y-104474399D01*
X70442359Y-104568939D01*
X70779036Y-104626143D01*
X71120000Y-104645291D01*
X71460964Y-104626143D01*
X71797641Y-104568939D01*
X72125796Y-104474399D01*
X72441302Y-104343712D01*
X72740192Y-104178522D01*
X72740197Y-104178518D01*
X72740201Y-104178516D01*
X72874755Y-104083044D01*
X73018708Y-103980904D01*
X73273346Y-103753346D01*
X73500904Y-103498708D01*
X73616840Y-103335310D01*
X73698516Y-103220201D01*
X73698519Y-103220196D01*
X73698522Y-103220192D01*
X73863712Y-102921302D01*
X73994399Y-102605796D01*
X74088939Y-102277641D01*
X74146143Y-101940964D01*
X74165291Y-101600000D01*
X74146143Y-101259036D01*
X74088939Y-100922359D01*
X73994399Y-100594204D01*
X73863712Y-100278698D01*
X73698522Y-99979808D01*
X73698520Y-99979806D01*
X73698519Y-99979803D01*
X73698516Y-99979798D01*
X73500907Y-99701296D01*
X73500906Y-99701295D01*
X73500904Y-99701292D01*
X73273346Y-99446654D01*
X73018708Y-99219096D01*
X73018705Y-99219094D01*
X73018703Y-99219092D01*
X72740201Y-99021483D01*
X72740196Y-99021480D01*
X72441300Y-98856287D01*
X72375956Y-98829221D01*
X72125796Y-98725601D01*
X72041448Y-98701300D01*
X71797646Y-98631062D01*
X71797637Y-98631060D01*
X71460971Y-98573858D01*
X71460959Y-98573856D01*
X71120000Y-98554709D01*
X70779040Y-98573856D01*
X70779028Y-98573858D01*
X70442362Y-98631060D01*
X70442353Y-98631062D01*
X70114207Y-98725600D01*
X70114204Y-98725601D01*
X70021796Y-98763877D01*
X69798699Y-98856287D01*
X69499803Y-99021480D01*
X69499798Y-99021483D01*
X69221296Y-99219092D01*
X68966654Y-99446654D01*
X68739092Y-99701296D01*
X68541483Y-99979798D01*
X68541480Y-99979803D01*
X68376287Y-100278699D01*
X68245600Y-100594207D01*
X68151062Y-100922353D01*
X68151060Y-100922362D01*
X68093858Y-101259028D01*
X68093856Y-101259040D01*
X68074709Y-101600000D01*
X22618234Y-101600000D01*
X22579267Y-101370658D01*
X22484727Y-101042503D01*
X22354040Y-100726997D01*
X22188850Y-100428107D01*
X22188848Y-100428105D01*
X22188847Y-100428102D01*
X22188844Y-100428097D01*
X21991235Y-100149595D01*
X21991234Y-100149594D01*
X21991232Y-100149591D01*
X21763674Y-99894953D01*
X21509036Y-99667395D01*
X21509033Y-99667393D01*
X21509031Y-99667391D01*
X21230529Y-99469782D01*
X21230524Y-99469779D01*
X20931628Y-99304586D01*
X20866284Y-99277520D01*
X20616124Y-99173900D01*
X20531776Y-99149599D01*
X20287974Y-99079361D01*
X20287965Y-99079359D01*
X19951299Y-99022157D01*
X19951287Y-99022155D01*
X19610328Y-99003008D01*
X19269368Y-99022155D01*
X19269356Y-99022157D01*
X18932690Y-99079359D01*
X18932681Y-99079361D01*
X18604535Y-99173899D01*
X18604532Y-99173900D01*
X18512124Y-99212176D01*
X18289027Y-99304586D01*
X17990131Y-99469779D01*
X17990126Y-99469782D01*
X17711624Y-99667391D01*
X17456982Y-99894953D01*
X17229420Y-100149595D01*
X17031811Y-100428097D01*
X17031808Y-100428102D01*
X16866615Y-100726998D01*
X16735928Y-101042506D01*
X16641390Y-101370652D01*
X16641388Y-101370661D01*
X16584186Y-101707327D01*
X16584184Y-101707339D01*
X16565037Y-102048299D01*
X15740500Y-102048299D01*
X15740500Y-52000000D01*
X18804829Y-52000000D01*
X18823482Y-52237020D01*
X18823482Y-52237023D01*
X18823483Y-52237025D01*
X18878987Y-52468214D01*
X18878988Y-52468216D01*
X18969972Y-52687873D01*
X19094199Y-52890592D01*
X19094202Y-52890597D01*
X19150604Y-52956635D01*
X19248612Y-53071388D01*
X19314228Y-53127429D01*
X19370757Y-53175710D01*
X19408950Y-53234217D01*
X19409448Y-53304085D01*
X19372094Y-53363131D01*
X19370757Y-53364290D01*
X19248612Y-53468612D01*
X19094202Y-53649402D01*
X19094199Y-53649407D01*
X18969972Y-53852126D01*
X18888726Y-54048273D01*
X18878987Y-54071786D01*
X18830376Y-54274261D01*
X18823482Y-54302979D01*
X18804829Y-54540000D01*
X18823482Y-54777020D01*
X18823482Y-54777023D01*
X18823483Y-54777025D01*
X18878987Y-55008214D01*
X18878988Y-55008216D01*
X18969972Y-55227873D01*
X19094199Y-55430592D01*
X19094202Y-55430597D01*
X19150604Y-55496635D01*
X19248612Y-55611388D01*
X19314228Y-55667429D01*
X19370757Y-55715710D01*
X19408950Y-55774217D01*
X19409448Y-55844085D01*
X19372094Y-55903131D01*
X19370757Y-55904290D01*
X19248612Y-56008612D01*
X19094202Y-56189402D01*
X19094199Y-56189407D01*
X18969972Y-56392126D01*
X18888726Y-56588273D01*
X18878987Y-56611786D01*
X18830376Y-56814261D01*
X18823482Y-56842979D01*
X18804829Y-57080000D01*
X18823482Y-57317020D01*
X18823482Y-57317023D01*
X18823483Y-57317025D01*
X18878987Y-57548214D01*
X18878988Y-57548216D01*
X18969972Y-57767873D01*
X19094199Y-57970592D01*
X19094202Y-57970597D01*
X19150604Y-58036635D01*
X19248612Y-58151388D01*
X19314228Y-58207429D01*
X19370757Y-58255710D01*
X19408950Y-58314217D01*
X19409448Y-58384085D01*
X19372094Y-58443131D01*
X19370757Y-58444290D01*
X19248612Y-58548612D01*
X19094202Y-58729402D01*
X19094199Y-58729407D01*
X18969972Y-58932126D01*
X18878988Y-59151783D01*
X18823482Y-59382979D01*
X18804829Y-59620000D01*
X18823482Y-59857020D01*
X18823482Y-59857023D01*
X18823483Y-59857025D01*
X18878987Y-60088214D01*
X18878988Y-60088216D01*
X18969972Y-60307873D01*
X19094199Y-60510592D01*
X19094202Y-60510597D01*
X19164195Y-60592548D01*
X19248612Y-60691388D01*
X19364337Y-60790226D01*
X19429402Y-60845797D01*
X19429407Y-60845800D01*
X19632126Y-60970027D01*
X19709786Y-61002194D01*
X19851786Y-61061013D01*
X20082975Y-61116517D01*
X20320000Y-61135171D01*
X20557025Y-61116517D01*
X20788214Y-61061013D01*
X21007873Y-60970027D01*
X21210595Y-60845799D01*
X21391388Y-60691388D01*
X21545799Y-60510595D01*
X21670027Y-60307873D01*
X21761013Y-60088214D01*
X21816517Y-59857025D01*
X21835171Y-59620000D01*
X21816517Y-59382975D01*
X21761013Y-59151786D01*
X21670027Y-58932127D01*
X21670027Y-58932126D01*
X21545800Y-58729407D01*
X21545797Y-58729402D01*
X21490226Y-58664337D01*
X21391388Y-58548612D01*
X21269242Y-58444290D01*
X21231049Y-58385783D01*
X21230550Y-58315916D01*
X21267904Y-58256869D01*
X21269242Y-58255710D01*
X21269728Y-58255294D01*
X21391388Y-58151388D01*
X21545799Y-57970595D01*
X21670027Y-57767873D01*
X21761013Y-57548214D01*
X21816517Y-57317025D01*
X21835171Y-57080000D01*
X21816517Y-56842975D01*
X21761013Y-56611786D01*
X21670027Y-56392127D01*
X21670027Y-56392126D01*
X21545800Y-56189407D01*
X21545797Y-56189402D01*
X21479506Y-56111786D01*
X21391388Y-56008612D01*
X21269242Y-55904290D01*
X21231049Y-55845783D01*
X21230550Y-55775916D01*
X21267904Y-55716869D01*
X21269242Y-55715710D01*
X21269728Y-55715294D01*
X21391388Y-55611388D01*
X21545799Y-55430595D01*
X21670027Y-55227873D01*
X21761013Y-55008214D01*
X21816517Y-54777025D01*
X21835171Y-54540000D01*
X21816517Y-54302975D01*
X21761013Y-54071786D01*
X21670027Y-53852127D01*
X21670027Y-53852126D01*
X21545800Y-53649407D01*
X21545797Y-53649402D01*
X21436692Y-53521657D01*
X21391388Y-53468612D01*
X21269242Y-53364290D01*
X21231049Y-53305783D01*
X21230550Y-53235916D01*
X21267904Y-53176869D01*
X21269242Y-53175710D01*
X21269728Y-53175294D01*
X21391388Y-53071388D01*
X21545799Y-52890595D01*
X21670027Y-52687873D01*
X21761013Y-52468214D01*
X21816517Y-52237025D01*
X21835171Y-52000000D01*
X21816517Y-51762975D01*
X21761013Y-51531786D01*
X21681041Y-51338716D01*
X21670027Y-51312126D01*
X21545800Y-51109407D01*
X21545797Y-51109402D01*
X21464511Y-51014229D01*
X21391388Y-50928612D01*
X21240801Y-50799999D01*
X21210597Y-50774202D01*
X21210592Y-50774199D01*
X21007873Y-50649972D01*
X20788216Y-50558988D01*
X20788214Y-50558987D01*
X20557025Y-50503483D01*
X20557023Y-50503482D01*
X20557020Y-50503482D01*
X20320000Y-50484829D01*
X20082979Y-50503482D01*
X20082975Y-50503483D01*
X19851786Y-50558987D01*
X19851784Y-50558987D01*
X19851783Y-50558988D01*
X19632126Y-50649972D01*
X19429407Y-50774199D01*
X19429402Y-50774202D01*
X19248612Y-50928612D01*
X19094202Y-51109402D01*
X19094199Y-51109407D01*
X18969972Y-51312126D01*
X18897517Y-51487050D01*
X18878987Y-51531786D01*
X18860973Y-51606819D01*
X18823482Y-51762979D01*
X18804829Y-52000000D01*
X15740500Y-52000000D01*
X15740500Y-38100000D01*
X17274709Y-38100000D01*
X17293856Y-38440959D01*
X17293858Y-38440971D01*
X17351060Y-38777637D01*
X17351062Y-38777646D01*
X17391686Y-38918654D01*
X17445601Y-39105796D01*
X17484829Y-39200500D01*
X17576287Y-39421300D01*
X17741480Y-39720196D01*
X17741483Y-39720201D01*
X17939092Y-39998703D01*
X17939096Y-39998708D01*
X18166654Y-40253346D01*
X18421292Y-40480904D01*
X18421295Y-40480906D01*
X18421296Y-40480907D01*
X18699798Y-40678516D01*
X18699803Y-40678519D01*
X18699806Y-40678520D01*
X18699808Y-40678522D01*
X18998698Y-40843712D01*
X19314204Y-40974399D01*
X19642359Y-41068939D01*
X19979036Y-41126143D01*
X20320000Y-41145291D01*
X20660964Y-41126143D01*
X20997641Y-41068939D01*
X21325796Y-40974399D01*
X21641302Y-40843712D01*
X21940192Y-40678522D01*
X21940197Y-40678518D01*
X21940201Y-40678516D01*
X22191814Y-40499986D01*
X22218708Y-40480904D01*
X22473346Y-40253346D01*
X22700904Y-39998708D01*
X22816840Y-39835310D01*
X22898516Y-39720201D01*
X22898519Y-39720196D01*
X22898522Y-39720192D01*
X23063712Y-39421302D01*
X23194399Y-39105796D01*
X23288939Y-38777641D01*
X23346143Y-38440964D01*
X23365291Y-38100000D01*
X23346143Y-37759036D01*
X23288939Y-37422359D01*
X23194399Y-37094204D01*
X23063712Y-36778698D01*
X22898522Y-36479808D01*
X22898520Y-36479806D01*
X22898519Y-36479803D01*
X22898516Y-36479798D01*
X22700907Y-36201296D01*
X22700906Y-36201295D01*
X22700904Y-36201292D01*
X22473346Y-35946654D01*
X22218708Y-35719096D01*
X22218705Y-35719094D01*
X22218703Y-35719092D01*
X21940201Y-35521483D01*
X21940196Y-35521480D01*
X21641300Y-35356287D01*
X21570158Y-35326819D01*
X21325796Y-35225601D01*
X21155832Y-35176635D01*
X20997646Y-35131062D01*
X20997637Y-35131060D01*
X20660971Y-35073858D01*
X20660959Y-35073856D01*
X20320000Y-35054709D01*
X19979040Y-35073856D01*
X19979028Y-35073858D01*
X19642362Y-35131060D01*
X19642353Y-35131062D01*
X19314207Y-35225600D01*
X19314204Y-35225601D01*
X19250353Y-35252049D01*
X18998699Y-35356287D01*
X18699803Y-35521480D01*
X18699798Y-35521483D01*
X18421296Y-35719092D01*
X18166654Y-35946654D01*
X17939092Y-36201296D01*
X17741483Y-36479798D01*
X17741480Y-36479803D01*
X17576287Y-36778699D01*
X17514221Y-36928541D01*
X17452253Y-37078146D01*
X17445600Y-37094207D01*
X17351062Y-37422353D01*
X17351060Y-37422362D01*
X17293858Y-37759028D01*
X17293856Y-37759040D01*
X17274709Y-38100000D01*
X15740500Y-38100000D01*
X15740500Y-30492135D01*
X16619500Y-30492135D01*
X16619500Y-32187870D01*
X16619501Y-32187876D01*
X16625908Y-32247483D01*
X16676202Y-32382328D01*
X16676206Y-32382335D01*
X16762452Y-32497544D01*
X16762455Y-32497547D01*
X16877664Y-32583793D01*
X16877671Y-32583797D01*
X17012517Y-32634091D01*
X17012516Y-32634091D01*
X17019444Y-32634835D01*
X17072127Y-32640500D01*
X20567872Y-32640499D01*
X20627483Y-32634091D01*
X20762331Y-32583796D01*
X20877546Y-32497546D01*
X20963796Y-32382331D01*
X21014091Y-32247483D01*
X21020500Y-32187873D01*
X21020499Y-30492128D01*
X21014091Y-30432517D01*
X20979574Y-30339973D01*
X20963797Y-30297671D01*
X20963793Y-30297664D01*
X20877547Y-30182455D01*
X20877544Y-30182452D01*
X20762335Y-30096206D01*
X20762328Y-30096202D01*
X20627482Y-30045908D01*
X20627483Y-30045908D01*
X20567883Y-30039501D01*
X20567881Y-30039500D01*
X20567873Y-30039500D01*
X20567864Y-30039500D01*
X17072129Y-30039500D01*
X17072123Y-30039501D01*
X17012516Y-30045908D01*
X16877671Y-30096202D01*
X16877664Y-30096206D01*
X16762455Y-30182452D01*
X16762452Y-30182455D01*
X16676206Y-30297664D01*
X16676202Y-30297671D01*
X16625908Y-30432517D01*
X16624814Y-30442697D01*
X16619501Y-30492123D01*
X16619500Y-30492135D01*
X15740500Y-30492135D01*
X15740500Y-29487844D01*
X21220000Y-29487844D01*
X21226401Y-29547372D01*
X21226403Y-29547379D01*
X21276645Y-29682086D01*
X21276649Y-29682093D01*
X21362809Y-29797187D01*
X21362812Y-29797190D01*
X21477906Y-29883350D01*
X21477913Y-29883354D01*
X21612620Y-29933596D01*
X21612627Y-29933598D01*
X21672155Y-29939999D01*
X21672172Y-29940000D01*
X23770000Y-29940000D01*
X24270000Y-29940000D01*
X26367828Y-29940000D01*
X26367844Y-29939999D01*
X26427372Y-29933598D01*
X26427379Y-29933596D01*
X26562086Y-29883354D01*
X26562093Y-29883350D01*
X26677187Y-29797190D01*
X26677190Y-29797187D01*
X26763350Y-29682093D01*
X26763354Y-29682086D01*
X26813596Y-29547379D01*
X26813598Y-29547372D01*
X26819999Y-29487844D01*
X26820000Y-29487827D01*
X26820000Y-29190000D01*
X24270000Y-29190000D01*
X24270000Y-29940000D01*
X23770000Y-29940000D01*
X23770000Y-29190000D01*
X21220000Y-29190000D01*
X21220000Y-29487844D01*
X15740500Y-29487844D01*
X15740500Y-23692135D01*
X16619500Y-23692135D01*
X16619500Y-25387870D01*
X16619501Y-25387876D01*
X16625908Y-25447483D01*
X16676202Y-25582328D01*
X16676206Y-25582335D01*
X16762452Y-25697544D01*
X16762455Y-25697547D01*
X16877664Y-25783793D01*
X16877671Y-25783797D01*
X17012517Y-25834091D01*
X17012516Y-25834091D01*
X17019444Y-25834835D01*
X17072127Y-25840500D01*
X20567872Y-25840499D01*
X20627483Y-25834091D01*
X20762331Y-25783796D01*
X20877546Y-25697546D01*
X20963796Y-25582331D01*
X21014091Y-25447483D01*
X21020500Y-25387873D01*
X21020499Y-23692128D01*
X21014091Y-23632517D01*
X20963796Y-23497669D01*
X20963795Y-23497668D01*
X20963793Y-23497664D01*
X20877547Y-23382455D01*
X20877544Y-23382452D01*
X20762335Y-23296206D01*
X20762328Y-23296202D01*
X20627482Y-23245908D01*
X20627483Y-23245908D01*
X20567883Y-23239501D01*
X20567881Y-23239500D01*
X20567873Y-23239500D01*
X20567864Y-23239500D01*
X17072129Y-23239500D01*
X17072123Y-23239501D01*
X17012516Y-23245908D01*
X16877671Y-23296202D01*
X16877664Y-23296206D01*
X16762455Y-23382452D01*
X16762452Y-23382455D01*
X16676206Y-23497664D01*
X16676202Y-23497671D01*
X16625908Y-23632517D01*
X16623374Y-23656092D01*
X16619501Y-23692123D01*
X16619500Y-23692135D01*
X15740500Y-23692135D01*
X15740500Y-20042135D01*
X16269500Y-20042135D01*
X16269500Y-21137870D01*
X16269501Y-21137876D01*
X16275908Y-21197483D01*
X16326202Y-21332328D01*
X16326206Y-21332335D01*
X16412452Y-21447544D01*
X16412455Y-21447547D01*
X16527664Y-21533793D01*
X16527671Y-21533797D01*
X16662517Y-21584091D01*
X16662516Y-21584091D01*
X16669444Y-21584835D01*
X16722127Y-21590500D01*
X18317872Y-21590499D01*
X18377483Y-21584091D01*
X18512331Y-21533796D01*
X18627546Y-21447546D01*
X18713796Y-21332331D01*
X18764091Y-21197483D01*
X18770500Y-21137873D01*
X18770499Y-20042128D01*
X18764091Y-19982517D01*
X18745751Y-19933346D01*
X18713797Y-19847671D01*
X18713793Y-19847664D01*
X18627547Y-19732455D01*
X18627544Y-19732452D01*
X18512335Y-19646206D01*
X18512328Y-19646202D01*
X18377482Y-19595908D01*
X18377483Y-19595908D01*
X18317883Y-19589501D01*
X18317881Y-19589500D01*
X18317873Y-19589500D01*
X18317864Y-19589500D01*
X16722129Y-19589500D01*
X16722123Y-19589501D01*
X16662516Y-19595908D01*
X16527671Y-19646202D01*
X16527664Y-19646206D01*
X16412455Y-19732452D01*
X16412452Y-19732455D01*
X16326206Y-19847664D01*
X16326202Y-19847671D01*
X16275908Y-19982517D01*
X16269501Y-20042116D01*
X16269501Y-20042123D01*
X16269500Y-20042135D01*
X15740500Y-20042135D01*
X15740500Y-15042135D01*
X16269500Y-15042135D01*
X16269500Y-16137870D01*
X16269501Y-16137876D01*
X16275908Y-16197483D01*
X16326202Y-16332328D01*
X16326206Y-16332335D01*
X16412452Y-16447544D01*
X16412455Y-16447547D01*
X16527664Y-16533793D01*
X16527671Y-16533797D01*
X16572618Y-16550561D01*
X16662517Y-16584091D01*
X16722127Y-16590500D01*
X17029762Y-16590499D01*
X17086053Y-16604012D01*
X17097555Y-16609873D01*
X17262299Y-16663402D01*
X17433389Y-16690500D01*
X17433390Y-16690500D01*
X17606610Y-16690500D01*
X17606611Y-16690500D01*
X17777701Y-16663402D01*
X17942445Y-16609873D01*
X17953942Y-16604014D01*
X18010237Y-16590499D01*
X18317871Y-16590499D01*
X18317872Y-16590499D01*
X18377483Y-16584091D01*
X18512331Y-16533796D01*
X18627546Y-16447546D01*
X18654227Y-16411903D01*
X18670485Y-16390188D01*
X18726419Y-16348318D01*
X18769751Y-16340500D01*
X19453331Y-16340500D01*
X19520370Y-16360185D01*
X19566125Y-16412989D01*
X19576069Y-16482147D01*
X19574948Y-16488692D01*
X19569500Y-16516079D01*
X19569500Y-16516082D01*
X19569500Y-16663918D01*
X19569500Y-16663920D01*
X19569499Y-16663920D01*
X19598340Y-16808907D01*
X19598342Y-16808913D01*
X19602125Y-16818045D01*
X19609595Y-16887514D01*
X19578322Y-16949994D01*
X19518234Y-16985648D01*
X19487565Y-16989500D01*
X17433389Y-16989500D01*
X17401192Y-16994599D01*
X17262301Y-17016597D01*
X17097558Y-17070125D01*
X17097552Y-17070127D01*
X17086055Y-17075986D01*
X17029762Y-17089500D01*
X16722130Y-17089500D01*
X16722123Y-17089501D01*
X16662516Y-17095908D01*
X16527671Y-17146202D01*
X16527664Y-17146206D01*
X16412455Y-17232452D01*
X16412452Y-17232455D01*
X16326206Y-17347664D01*
X16326202Y-17347671D01*
X16275908Y-17482517D01*
X16273783Y-17502288D01*
X16269501Y-17542123D01*
X16269500Y-17542135D01*
X16269500Y-18637870D01*
X16269501Y-18637876D01*
X16275908Y-18697483D01*
X16326202Y-18832328D01*
X16326206Y-18832335D01*
X16412452Y-18947544D01*
X16412455Y-18947547D01*
X16527664Y-19033793D01*
X16527671Y-19033797D01*
X16572618Y-19050561D01*
X16662517Y-19084091D01*
X16722127Y-19090500D01*
X17029762Y-19090499D01*
X17086053Y-19104012D01*
X17097555Y-19109873D01*
X17262299Y-19163402D01*
X17433389Y-19190500D01*
X19487565Y-19190500D01*
X19554604Y-19210185D01*
X19600359Y-19262989D01*
X19610303Y-19332147D01*
X19602125Y-19361955D01*
X19598342Y-19371086D01*
X19598340Y-19371092D01*
X19569500Y-19516079D01*
X19569500Y-19516082D01*
X19569500Y-19663918D01*
X19569500Y-19663920D01*
X19569499Y-19663920D01*
X19598340Y-19808907D01*
X19598343Y-19808917D01*
X19654912Y-19945488D01*
X19654919Y-19945501D01*
X19737048Y-20068415D01*
X19737051Y-20068419D01*
X19841580Y-20172948D01*
X19841584Y-20172951D01*
X19964498Y-20255080D01*
X19964511Y-20255087D01*
X20101082Y-20311656D01*
X20101087Y-20311658D01*
X20101091Y-20311658D01*
X20101092Y-20311659D01*
X20246079Y-20340500D01*
X20246082Y-20340500D01*
X20393920Y-20340500D01*
X20491462Y-20321096D01*
X20538913Y-20311658D01*
X20675495Y-20255084D01*
X20798416Y-20172951D01*
X20902951Y-20068416D01*
X20985084Y-19945495D01*
X21041658Y-19808913D01*
X21056867Y-19732454D01*
X21070500Y-19663920D01*
X21070500Y-19516079D01*
X21041659Y-19371092D01*
X21041658Y-19371091D01*
X21041658Y-19371087D01*
X21037874Y-19361953D01*
X21030405Y-19292486D01*
X21061678Y-19230006D01*
X21121766Y-19194352D01*
X21152435Y-19190500D01*
X22612796Y-19190500D01*
X22679835Y-19210185D01*
X22700477Y-19226819D01*
X22851477Y-19377819D01*
X22884962Y-19439142D01*
X22879978Y-19508834D01*
X22838106Y-19564767D01*
X22772642Y-19589184D01*
X22763796Y-19589500D01*
X22322129Y-19589500D01*
X22322123Y-19589501D01*
X22262516Y-19595908D01*
X22127671Y-19646202D01*
X22127664Y-19646206D01*
X22012455Y-19732452D01*
X22012452Y-19732455D01*
X21926206Y-19847664D01*
X21926202Y-19847671D01*
X21875908Y-19982517D01*
X21869501Y-20042116D01*
X21869501Y-20042123D01*
X21869500Y-20042135D01*
X21869500Y-21137870D01*
X21869501Y-21137876D01*
X21875908Y-21197483D01*
X21926202Y-21332328D01*
X21926206Y-21332335D01*
X22012452Y-21447544D01*
X22012455Y-21447547D01*
X22127664Y-21533793D01*
X22127671Y-21533797D01*
X22262517Y-21584091D01*
X22262516Y-21584091D01*
X22269444Y-21584835D01*
X22322127Y-21590500D01*
X23445500Y-21590499D01*
X23512539Y-21610184D01*
X23558294Y-21662987D01*
X23569500Y-21714499D01*
X23569500Y-25782794D01*
X23549815Y-25849833D01*
X23533181Y-25870475D01*
X23500475Y-25903181D01*
X23439152Y-25936666D01*
X23412794Y-25939500D01*
X21672129Y-25939500D01*
X21672123Y-25939501D01*
X21612516Y-25945908D01*
X21477671Y-25996202D01*
X21477664Y-25996206D01*
X21362455Y-26082452D01*
X21362452Y-26082455D01*
X21276206Y-26197664D01*
X21276202Y-26197671D01*
X21225908Y-26332517D01*
X21219501Y-26392116D01*
X21219501Y-26392123D01*
X21219500Y-26392135D01*
X21219500Y-27487870D01*
X21219501Y-27487876D01*
X21225908Y-27547483D01*
X21276202Y-27682328D01*
X21276206Y-27682335D01*
X21362452Y-27797544D01*
X21362453Y-27797544D01*
X21362454Y-27797546D01*
X21397727Y-27823951D01*
X21420562Y-27841046D01*
X21462432Y-27896980D01*
X21467416Y-27966672D01*
X21433930Y-28027994D01*
X21420562Y-28039578D01*
X21362809Y-28082812D01*
X21276649Y-28197906D01*
X21276645Y-28197913D01*
X21226403Y-28332620D01*
X21226401Y-28332627D01*
X21220000Y-28392155D01*
X21220000Y-28690000D01*
X26820000Y-28690000D01*
X26820000Y-28392172D01*
X26819999Y-28392155D01*
X26813598Y-28332627D01*
X26813596Y-28332620D01*
X26763354Y-28197913D01*
X26763350Y-28197906D01*
X26677190Y-28082812D01*
X26677187Y-28082809D01*
X26619438Y-28039578D01*
X26577567Y-27983645D01*
X26572583Y-27913953D01*
X26606069Y-27852630D01*
X26619432Y-27841049D01*
X26677546Y-27797546D01*
X26763796Y-27682331D01*
X26814091Y-27547483D01*
X26820500Y-27487873D01*
X26820499Y-26392128D01*
X26814091Y-26332517D01*
X26766185Y-26204075D01*
X26763797Y-26197671D01*
X26763793Y-26197664D01*
X26677547Y-26082455D01*
X26677544Y-26082452D01*
X26562335Y-25996206D01*
X26562328Y-25996202D01*
X26427482Y-25945908D01*
X26427483Y-25945908D01*
X26367883Y-25939501D01*
X26367881Y-25939500D01*
X26367873Y-25939500D01*
X26367865Y-25939500D01*
X25894500Y-25939500D01*
X25827461Y-25919815D01*
X25781706Y-25867011D01*
X25770500Y-25815500D01*
X25770500Y-19553389D01*
X25763443Y-19508834D01*
X25743402Y-19382299D01*
X25689873Y-19217555D01*
X25611232Y-19063212D01*
X25509414Y-18923072D01*
X25386928Y-18800586D01*
X25032072Y-18445730D01*
X31819500Y-18445730D01*
X31819500Y-19654269D01*
X31822353Y-19684699D01*
X31822353Y-19684701D01*
X31867206Y-19812880D01*
X31867207Y-19812882D01*
X31947850Y-19922150D01*
X32057118Y-20002793D01*
X32099845Y-20017744D01*
X32185299Y-20047646D01*
X32215730Y-20050500D01*
X32215734Y-20050500D01*
X34424270Y-20050500D01*
X34454699Y-20047646D01*
X34454701Y-20047646D01*
X34518790Y-20025219D01*
X34582882Y-20002793D01*
X34692150Y-19922150D01*
X34772793Y-19812882D01*
X34811683Y-19701741D01*
X34817646Y-19684701D01*
X34817646Y-19684699D01*
X34820500Y-19654269D01*
X34820500Y-18445730D01*
X34817646Y-18415300D01*
X34817646Y-18415298D01*
X34772793Y-18287119D01*
X34772792Y-18287117D01*
X34692150Y-18177850D01*
X34582882Y-18097207D01*
X34582880Y-18097206D01*
X34454700Y-18052353D01*
X34424270Y-18049500D01*
X34424266Y-18049500D01*
X32215734Y-18049500D01*
X32215730Y-18049500D01*
X32185300Y-18052353D01*
X32185298Y-18052353D01*
X32057119Y-18097206D01*
X32057117Y-18097207D01*
X31947850Y-18177850D01*
X31867207Y-18287117D01*
X31867206Y-18287119D01*
X31822353Y-18415298D01*
X31822353Y-18415300D01*
X31819500Y-18445730D01*
X25032072Y-18445730D01*
X24406818Y-17820476D01*
X24373333Y-17759153D01*
X24370499Y-17732795D01*
X24370499Y-17542129D01*
X24370498Y-17542123D01*
X24370497Y-17542116D01*
X24364091Y-17482517D01*
X24313796Y-17347669D01*
X24313795Y-17347668D01*
X24313793Y-17347664D01*
X24227547Y-17232455D01*
X24227544Y-17232452D01*
X24112335Y-17146206D01*
X24112328Y-17146202D01*
X23977482Y-17095908D01*
X23977483Y-17095908D01*
X23917883Y-17089501D01*
X23917881Y-17089500D01*
X23917873Y-17089500D01*
X23917865Y-17089500D01*
X23610237Y-17089500D01*
X23553941Y-17075984D01*
X23542449Y-17070128D01*
X23460073Y-17043362D01*
X23377701Y-17016598D01*
X23377699Y-17016597D01*
X23377698Y-17016597D01*
X23246271Y-16995781D01*
X23206611Y-16989500D01*
X23206610Y-16989500D01*
X21152435Y-16989500D01*
X21085396Y-16969815D01*
X21039641Y-16917011D01*
X21029697Y-16847853D01*
X21037875Y-16818045D01*
X21041658Y-16808913D01*
X21061297Y-16710185D01*
X21070500Y-16663920D01*
X21070500Y-16516079D01*
X21065052Y-16488692D01*
X21071279Y-16419101D01*
X21114141Y-16363923D01*
X21180031Y-16340678D01*
X21186669Y-16340500D01*
X21870249Y-16340500D01*
X21937288Y-16360185D01*
X21969515Y-16390188D01*
X21991160Y-16419101D01*
X22012454Y-16447546D01*
X22041095Y-16468987D01*
X22127664Y-16533793D01*
X22127671Y-16533797D01*
X22172618Y-16550561D01*
X22262517Y-16584091D01*
X22322127Y-16590500D01*
X22629762Y-16590499D01*
X22686053Y-16604012D01*
X22697555Y-16609873D01*
X22862299Y-16663402D01*
X23033389Y-16690500D01*
X23206611Y-16690500D01*
X39212796Y-16690500D01*
X39279835Y-16710185D01*
X39300477Y-16726819D01*
X51516792Y-28943134D01*
X51550277Y-29004457D01*
X51550729Y-29055005D01*
X51539500Y-29111459D01*
X51539500Y-29308541D01*
X51539500Y-29308543D01*
X51539499Y-29308543D01*
X51577947Y-29501829D01*
X51577949Y-29501834D01*
X51592949Y-29538049D01*
X51600416Y-29607518D01*
X51569141Y-29669997D01*
X51509051Y-29705649D01*
X51478387Y-29709500D01*
X34881613Y-29709500D01*
X34814574Y-29689815D01*
X34768819Y-29637011D01*
X34758875Y-29567853D01*
X34767051Y-29538049D01*
X34769009Y-29533320D01*
X34782051Y-29501835D01*
X34807120Y-29375806D01*
X34820500Y-29308543D01*
X34820500Y-29111456D01*
X34782052Y-28918170D01*
X34782051Y-28918169D01*
X34782051Y-28918165D01*
X34750807Y-28842735D01*
X34706635Y-28736092D01*
X34706628Y-28736079D01*
X34597139Y-28572218D01*
X34597136Y-28572214D01*
X34547577Y-28522655D01*
X34514092Y-28461332D01*
X34519076Y-28391640D01*
X34547576Y-28347294D01*
X34586155Y-28308716D01*
X34586155Y-28308714D01*
X34596359Y-28298511D01*
X34596362Y-28298506D01*
X36040520Y-26854351D01*
X36119577Y-26717419D01*
X36160501Y-26564692D01*
X36160501Y-26406577D01*
X36160501Y-26398982D01*
X36160500Y-26398964D01*
X36160500Y-22780945D01*
X36160500Y-22780943D01*
X36119577Y-22628216D01*
X36119577Y-22628215D01*
X36119577Y-22628214D01*
X36090639Y-22578095D01*
X36090637Y-22578092D01*
X36075603Y-22552051D01*
X36040520Y-22491284D01*
X35928716Y-22379480D01*
X35928715Y-22379479D01*
X35924385Y-22375149D01*
X35924374Y-22375139D01*
X34777590Y-21228355D01*
X34777588Y-21228352D01*
X34753283Y-21204047D01*
X34726403Y-21163818D01*
X34706635Y-21116093D01*
X34706634Y-21116092D01*
X34706632Y-21116086D01*
X34706627Y-21116079D01*
X34597139Y-20952217D01*
X34457785Y-20812863D01*
X34457781Y-20812860D01*
X34293920Y-20703371D01*
X34293907Y-20703364D01*
X34111839Y-20627950D01*
X34111829Y-20627947D01*
X33918543Y-20589500D01*
X33918541Y-20589500D01*
X32721459Y-20589500D01*
X32721457Y-20589500D01*
X32528170Y-20627947D01*
X32528160Y-20627950D01*
X32346092Y-20703364D01*
X32346079Y-20703371D01*
X32182218Y-20812860D01*
X32182214Y-20812863D01*
X32042863Y-20952214D01*
X32042860Y-20952218D01*
X31933371Y-21116079D01*
X31933364Y-21116092D01*
X31857950Y-21298160D01*
X31857947Y-21298170D01*
X31819500Y-21491456D01*
X31819500Y-21491459D01*
X31819500Y-21688541D01*
X31819500Y-21688543D01*
X31819499Y-21688543D01*
X31857947Y-21881829D01*
X31857950Y-21881839D01*
X31933364Y-22063907D01*
X31933371Y-22063920D01*
X32042860Y-22227781D01*
X32042863Y-22227785D01*
X32182214Y-22367136D01*
X32182218Y-22367139D01*
X32346079Y-22476628D01*
X32346092Y-22476635D01*
X32456433Y-22522339D01*
X32528165Y-22552051D01*
X32528169Y-22552051D01*
X32528170Y-22552052D01*
X32721456Y-22590500D01*
X32721459Y-22590500D01*
X33918543Y-22590500D01*
X34048582Y-22564632D01*
X34111835Y-22552051D01*
X34183567Y-22522339D01*
X34241044Y-22498532D01*
X34310513Y-22491063D01*
X34372992Y-22522339D01*
X34376177Y-22525412D01*
X34923181Y-23072416D01*
X34956666Y-23133739D01*
X34959500Y-23160097D01*
X34959500Y-23643173D01*
X34939815Y-23710212D01*
X34887011Y-23755967D01*
X34817853Y-23765911D01*
X34754297Y-23736886D01*
X34720939Y-23690625D01*
X34706635Y-23656092D01*
X34706628Y-23656079D01*
X34597139Y-23492218D01*
X34597136Y-23492214D01*
X34457785Y-23352863D01*
X34457781Y-23352860D01*
X34293920Y-23243371D01*
X34293907Y-23243364D01*
X34111839Y-23167950D01*
X34111829Y-23167947D01*
X33918543Y-23129500D01*
X33918541Y-23129500D01*
X32721459Y-23129500D01*
X32721457Y-23129500D01*
X32528170Y-23167947D01*
X32528160Y-23167950D01*
X32346092Y-23243364D01*
X32346079Y-23243371D01*
X32182218Y-23352860D01*
X32182214Y-23352863D01*
X32042863Y-23492214D01*
X32042860Y-23492218D01*
X31933371Y-23656079D01*
X31933364Y-23656092D01*
X31857950Y-23838160D01*
X31857947Y-23838170D01*
X31819500Y-24031456D01*
X31819500Y-24031459D01*
X31819500Y-24228541D01*
X31819500Y-24228543D01*
X31819499Y-24228543D01*
X31857947Y-24421829D01*
X31857950Y-24421839D01*
X31933364Y-24603907D01*
X31933371Y-24603920D01*
X32042860Y-24767781D01*
X32042863Y-24767785D01*
X32182214Y-24907136D01*
X32182218Y-24907139D01*
X32346079Y-25016628D01*
X32346092Y-25016635D01*
X32528160Y-25092049D01*
X32528165Y-25092051D01*
X32660674Y-25118409D01*
X32709061Y-25128034D01*
X32770972Y-25160419D01*
X32805546Y-25221134D01*
X32801807Y-25290904D01*
X32760940Y-25347576D01*
X32704269Y-25372124D01*
X32515581Y-25402010D01*
X32320968Y-25465244D01*
X32138650Y-25558140D01*
X31973105Y-25678417D01*
X31973104Y-25678417D01*
X31828417Y-25823104D01*
X31828417Y-25823105D01*
X31708140Y-25988650D01*
X31615244Y-26170970D01*
X31552009Y-26365586D01*
X31543391Y-26420000D01*
X32586988Y-26420000D01*
X32554075Y-26477007D01*
X32520000Y-26604174D01*
X32520000Y-26735826D01*
X32554075Y-26862993D01*
X32586988Y-26920000D01*
X31543391Y-26920000D01*
X31552009Y-26974413D01*
X31615244Y-27169029D01*
X31708140Y-27351349D01*
X31828417Y-27516894D01*
X31828417Y-27516895D01*
X31880644Y-27569122D01*
X31914129Y-27630445D01*
X31909145Y-27700137D01*
X31880644Y-27744484D01*
X30111286Y-29513843D01*
X29999481Y-29625647D01*
X29999479Y-29625649D01*
X29992920Y-29637011D01*
X29970228Y-29676316D01*
X29920423Y-29762580D01*
X29879499Y-29915308D01*
X29879499Y-29915310D01*
X29879499Y-30083411D01*
X29879500Y-30083424D01*
X29879500Y-31449902D01*
X29859815Y-31516941D01*
X29843181Y-31537583D01*
X27459481Y-33921282D01*
X27459480Y-33921284D01*
X27415093Y-33998165D01*
X27380423Y-34058215D01*
X27339499Y-34210943D01*
X27339499Y-34210945D01*
X27339499Y-34379046D01*
X27339500Y-34379059D01*
X27339500Y-63413330D01*
X27339499Y-63413348D01*
X27339499Y-63579054D01*
X27339498Y-63579054D01*
X27380423Y-63731786D01*
X27380424Y-63731787D01*
X27399330Y-63764533D01*
X27459481Y-63868717D01*
X27578349Y-63987585D01*
X27578355Y-63987590D01*
X31083181Y-67492416D01*
X31116666Y-67553739D01*
X31119500Y-67580097D01*
X31119500Y-85278330D01*
X31119499Y-85278348D01*
X31119499Y-85444054D01*
X31119498Y-85444054D01*
X31160423Y-85596785D01*
X31189358Y-85646900D01*
X31189359Y-85646904D01*
X31189360Y-85646904D01*
X31239479Y-85733714D01*
X31239481Y-85733717D01*
X31358349Y-85852585D01*
X31358355Y-85852590D01*
X35429649Y-89923885D01*
X35463134Y-89985208D01*
X35458150Y-90054900D01*
X35416278Y-90110833D01*
X35352780Y-90135094D01*
X35336240Y-90136541D01*
X35330257Y-90137065D01*
X35330255Y-90137065D01*
X35330251Y-90137066D01*
X35107502Y-90196751D01*
X35107495Y-90196753D01*
X35107495Y-90196754D01*
X35106483Y-90197226D01*
X34898484Y-90294217D01*
X34898482Y-90294218D01*
X34709566Y-90426497D01*
X34546497Y-90589566D01*
X34411113Y-90782918D01*
X34409954Y-90782106D01*
X34364221Y-90825715D01*
X34307399Y-90839500D01*
X34272601Y-90839500D01*
X34205562Y-90819815D01*
X34169782Y-90782290D01*
X34168887Y-90782918D01*
X34033502Y-90589566D01*
X33870432Y-90426496D01*
X33681522Y-90294220D01*
X33681518Y-90294218D01*
X33618761Y-90264954D01*
X33472505Y-90196754D01*
X33472501Y-90196753D01*
X33472497Y-90196751D01*
X33249748Y-90137066D01*
X33249744Y-90137065D01*
X33249743Y-90137065D01*
X33249742Y-90137064D01*
X33249737Y-90137064D01*
X33020002Y-90116965D01*
X33019998Y-90116965D01*
X32790262Y-90137064D01*
X32790251Y-90137066D01*
X32567502Y-90196751D01*
X32567495Y-90196753D01*
X32567495Y-90196754D01*
X32566483Y-90197226D01*
X32358484Y-90294217D01*
X32358482Y-90294218D01*
X32169566Y-90426497D01*
X32002955Y-90593108D01*
X31941632Y-90626593D01*
X31871940Y-90621609D01*
X31816007Y-90579737D01*
X31793504Y-90522537D01*
X31793376Y-90522568D01*
X31793165Y-90521676D01*
X31791984Y-90518673D01*
X31791591Y-90515017D01*
X31741296Y-90380169D01*
X31741295Y-90380168D01*
X31741293Y-90380164D01*
X31655047Y-90264955D01*
X31655044Y-90264952D01*
X31539835Y-90178706D01*
X31539828Y-90178702D01*
X31404982Y-90128408D01*
X31404983Y-90128408D01*
X31345383Y-90122001D01*
X31345381Y-90122000D01*
X31345373Y-90122000D01*
X31345364Y-90122000D01*
X29614629Y-90122000D01*
X29614623Y-90122001D01*
X29555016Y-90128408D01*
X29420171Y-90178702D01*
X29420164Y-90178706D01*
X29304955Y-90264952D01*
X29304952Y-90264955D01*
X29218706Y-90380164D01*
X29218702Y-90380171D01*
X29168408Y-90515017D01*
X29162001Y-90574616D01*
X29162000Y-90574635D01*
X29162000Y-92305370D01*
X29162001Y-92305376D01*
X29168408Y-92364983D01*
X29218702Y-92499828D01*
X29218706Y-92499835D01*
X29304952Y-92615044D01*
X29304955Y-92615047D01*
X29420164Y-92701293D01*
X29420171Y-92701297D01*
X29555017Y-92751591D01*
X29555016Y-92751591D01*
X29561944Y-92752335D01*
X29614627Y-92758000D01*
X31345372Y-92757999D01*
X31404983Y-92751591D01*
X31539831Y-92701296D01*
X31655046Y-92615046D01*
X31741296Y-92499831D01*
X31791591Y-92364983D01*
X31791984Y-92361318D01*
X31793084Y-92358664D01*
X31793374Y-92357438D01*
X31793572Y-92357484D01*
X31818720Y-92296769D01*
X31876111Y-92256919D01*
X31945936Y-92254423D01*
X32002955Y-92286891D01*
X32169567Y-92453503D01*
X32358477Y-92585779D01*
X32358479Y-92585780D01*
X32358482Y-92585782D01*
X32567495Y-92683246D01*
X32790257Y-92742935D01*
X32954359Y-92757292D01*
X33019998Y-92763035D01*
X33020000Y-92763035D01*
X33020002Y-92763035D01*
X33077573Y-92757998D01*
X33249743Y-92742935D01*
X33472505Y-92683246D01*
X33681518Y-92585782D01*
X33870431Y-92453504D01*
X34033504Y-92290431D01*
X34165782Y-92101518D01*
X34165782Y-92101516D01*
X34168887Y-92097083D01*
X34170043Y-92097893D01*
X34215789Y-92054280D01*
X34272602Y-92040500D01*
X34307398Y-92040500D01*
X34374437Y-92060185D01*
X34410219Y-92097708D01*
X34411113Y-92097083D01*
X34546497Y-92290433D01*
X34709567Y-92453503D01*
X34898477Y-92585779D01*
X34898479Y-92585780D01*
X34898482Y-92585782D01*
X35107495Y-92683246D01*
X35330257Y-92742935D01*
X35494359Y-92757292D01*
X35559998Y-92763035D01*
X35560000Y-92763035D01*
X35560002Y-92763035D01*
X35617573Y-92757998D01*
X35789743Y-92742935D01*
X36012505Y-92683246D01*
X36221518Y-92585782D01*
X36410431Y-92453504D01*
X36573504Y-92290431D01*
X36705782Y-92101518D01*
X36717618Y-92076134D01*
X36763789Y-92023696D01*
X36830982Y-92004543D01*
X36897864Y-92024758D01*
X36942381Y-92076134D01*
X36954218Y-92101518D01*
X36954219Y-92101519D01*
X36954220Y-92101522D01*
X37086496Y-92290432D01*
X37249567Y-92453503D01*
X37438477Y-92585779D01*
X37438479Y-92585780D01*
X37438482Y-92585782D01*
X37647495Y-92683246D01*
X37870257Y-92742935D01*
X38034359Y-92757292D01*
X38099998Y-92763035D01*
X38100000Y-92763035D01*
X38100002Y-92763035D01*
X38157573Y-92757998D01*
X38329743Y-92742935D01*
X38552505Y-92683246D01*
X38761518Y-92585782D01*
X38950431Y-92453504D01*
X39113504Y-92290431D01*
X39245782Y-92101518D01*
X39257896Y-92075540D01*
X39304062Y-92023106D01*
X39371255Y-92003952D01*
X39438137Y-92024166D01*
X39482656Y-92075540D01*
X39494653Y-92101267D01*
X39548408Y-92178037D01*
X39548408Y-92178038D01*
X40120294Y-91606151D01*
X40132141Y-91650362D01*
X40203891Y-91774638D01*
X40305362Y-91876109D01*
X40429638Y-91947859D01*
X40473847Y-91959704D01*
X39901960Y-92531590D01*
X39978737Y-92585348D01*
X40187665Y-92682773D01*
X40187674Y-92682777D01*
X40410339Y-92742439D01*
X40410350Y-92742441D01*
X40639998Y-92762533D01*
X40640002Y-92762533D01*
X40869649Y-92742441D01*
X40869660Y-92742439D01*
X41092325Y-92682777D01*
X41092334Y-92682773D01*
X41301264Y-92585348D01*
X41378038Y-92531590D01*
X40806152Y-91959705D01*
X40850362Y-91947859D01*
X40974638Y-91876109D01*
X41076109Y-91774638D01*
X41147859Y-91650362D01*
X41159704Y-91606152D01*
X41731590Y-92178038D01*
X41785347Y-92101264D01*
X41797341Y-92075545D01*
X41843513Y-92023105D01*
X41910706Y-92003952D01*
X41977588Y-92024167D01*
X42022105Y-92075542D01*
X42032150Y-92097083D01*
X42034218Y-92101518D01*
X42034220Y-92101522D01*
X42166496Y-92290432D01*
X42329567Y-92453503D01*
X42518477Y-92585779D01*
X42518479Y-92585780D01*
X42518482Y-92585782D01*
X42727495Y-92683246D01*
X42950257Y-92742935D01*
X43114359Y-92757292D01*
X43179998Y-92763035D01*
X43180000Y-92763035D01*
X43180002Y-92763035D01*
X43237573Y-92757998D01*
X43409743Y-92742935D01*
X43632505Y-92683246D01*
X43841518Y-92585782D01*
X44030431Y-92453504D01*
X44193504Y-92290431D01*
X44325782Y-92101518D01*
X44337618Y-92076134D01*
X44383789Y-92023696D01*
X44450982Y-92004543D01*
X44517864Y-92024758D01*
X44562381Y-92076134D01*
X44574218Y-92101518D01*
X44574219Y-92101519D01*
X44574220Y-92101522D01*
X44706496Y-92290432D01*
X44869567Y-92453503D01*
X45058477Y-92585779D01*
X45058479Y-92585780D01*
X45058482Y-92585782D01*
X45267495Y-92683246D01*
X45490257Y-92742935D01*
X45654359Y-92757292D01*
X45719998Y-92763035D01*
X45720000Y-92763035D01*
X45720002Y-92763035D01*
X45777573Y-92757998D01*
X45949743Y-92742935D01*
X46172505Y-92683246D01*
X46381518Y-92585782D01*
X46570431Y-92453504D01*
X46733504Y-92290431D01*
X46865782Y-92101518D01*
X46865782Y-92101516D01*
X46868887Y-92097083D01*
X46870043Y-92097893D01*
X46915789Y-92054280D01*
X46972602Y-92040500D01*
X47007398Y-92040500D01*
X47074437Y-92060185D01*
X47110219Y-92097708D01*
X47111113Y-92097083D01*
X47246497Y-92290433D01*
X47409567Y-92453503D01*
X47598477Y-92585779D01*
X47598479Y-92585780D01*
X47598482Y-92585782D01*
X47807495Y-92683246D01*
X48030257Y-92742935D01*
X48194359Y-92757292D01*
X48259998Y-92763035D01*
X48260000Y-92763035D01*
X48260002Y-92763035D01*
X48317573Y-92757998D01*
X48489743Y-92742935D01*
X48712505Y-92683246D01*
X48921518Y-92585782D01*
X49110431Y-92453504D01*
X49273504Y-92290431D01*
X49405782Y-92101518D01*
X49417618Y-92076134D01*
X49463789Y-92023696D01*
X49530982Y-92004543D01*
X49597864Y-92024758D01*
X49642381Y-92076134D01*
X49654218Y-92101518D01*
X49654219Y-92101519D01*
X49654220Y-92101522D01*
X49786496Y-92290432D01*
X49949567Y-92453503D01*
X50138477Y-92585779D01*
X50138479Y-92585780D01*
X50138482Y-92585782D01*
X50347495Y-92683246D01*
X50570257Y-92742935D01*
X50734359Y-92757292D01*
X50799998Y-92763035D01*
X50800000Y-92763035D01*
X50800002Y-92763035D01*
X50857573Y-92757998D01*
X51029743Y-92742935D01*
X51252505Y-92683246D01*
X51461518Y-92585782D01*
X51650431Y-92453504D01*
X51813504Y-92290431D01*
X51945782Y-92101518D01*
X51957896Y-92075540D01*
X52004062Y-92023106D01*
X52071255Y-92003952D01*
X52138137Y-92024166D01*
X52182656Y-92075540D01*
X52194653Y-92101267D01*
X52248408Y-92178037D01*
X52248409Y-92178038D01*
X52820294Y-91606152D01*
X52832141Y-91650362D01*
X52903891Y-91774638D01*
X53005362Y-91876109D01*
X53129638Y-91947859D01*
X53173847Y-91959704D01*
X52601960Y-92531590D01*
X52678737Y-92585348D01*
X52887665Y-92682773D01*
X52887674Y-92682777D01*
X53110339Y-92742439D01*
X53110350Y-92742441D01*
X53339998Y-92762533D01*
X53340002Y-92762533D01*
X53569649Y-92742441D01*
X53569660Y-92742439D01*
X53792325Y-92682777D01*
X53792334Y-92682773D01*
X54001264Y-92585348D01*
X54078038Y-92531590D01*
X53506152Y-91959705D01*
X53550362Y-91947859D01*
X53674638Y-91876109D01*
X53776109Y-91774638D01*
X53847859Y-91650362D01*
X53859704Y-91606152D01*
X54431590Y-92178038D01*
X54485348Y-92101264D01*
X54582773Y-91892334D01*
X54582777Y-91892325D01*
X54642439Y-91669660D01*
X54642441Y-91669649D01*
X54662533Y-91440001D01*
X54662533Y-91439998D01*
X54642441Y-91210350D01*
X54642439Y-91210339D01*
X54582777Y-90987674D01*
X54582773Y-90987665D01*
X54485348Y-90778736D01*
X54431589Y-90701961D01*
X53859704Y-91273846D01*
X53847859Y-91229638D01*
X53776109Y-91105362D01*
X53674638Y-91003891D01*
X53550362Y-90932141D01*
X53506152Y-90920295D01*
X54078038Y-90348409D01*
X54078037Y-90348408D01*
X54001267Y-90294653D01*
X54001265Y-90294652D01*
X53792334Y-90197226D01*
X53792325Y-90197222D01*
X53569660Y-90137560D01*
X53569649Y-90137558D01*
X53340002Y-90117467D01*
X53339998Y-90117467D01*
X53110350Y-90137558D01*
X53110339Y-90137560D01*
X52887674Y-90197222D01*
X52887665Y-90197226D01*
X52678740Y-90294649D01*
X52601961Y-90348409D01*
X53173847Y-90920294D01*
X53129638Y-90932141D01*
X53005362Y-91003891D01*
X52903891Y-91105362D01*
X52832141Y-91229638D01*
X52820295Y-91273847D01*
X52248409Y-90701961D01*
X52194650Y-90778739D01*
X52182656Y-90804460D01*
X52136482Y-90856898D01*
X52069288Y-90876048D01*
X52002407Y-90855831D01*
X51957894Y-90804457D01*
X51945782Y-90778483D01*
X51839428Y-90626593D01*
X51813502Y-90589566D01*
X51650432Y-90426496D01*
X51461522Y-90294220D01*
X51461518Y-90294218D01*
X51398761Y-90264954D01*
X51252505Y-90196754D01*
X51252501Y-90196753D01*
X51252497Y-90196751D01*
X51029748Y-90137066D01*
X51029744Y-90137065D01*
X51029743Y-90137065D01*
X51029742Y-90137064D01*
X51029737Y-90137064D01*
X50800002Y-90116965D01*
X50799998Y-90116965D01*
X50570262Y-90137064D01*
X50570251Y-90137066D01*
X50347502Y-90196751D01*
X50347495Y-90196753D01*
X50347495Y-90196754D01*
X50346483Y-90197226D01*
X50138484Y-90294217D01*
X50138482Y-90294218D01*
X49949566Y-90426497D01*
X49786497Y-90589566D01*
X49654218Y-90778482D01*
X49654214Y-90778489D01*
X49642381Y-90803866D01*
X49596208Y-90856305D01*
X49529015Y-90875456D01*
X49462134Y-90855239D01*
X49417619Y-90803866D01*
X49405785Y-90778489D01*
X49405781Y-90778482D01*
X49273502Y-90589566D01*
X49110432Y-90426496D01*
X48921522Y-90294220D01*
X48921518Y-90294218D01*
X48858761Y-90264954D01*
X48712505Y-90196754D01*
X48712501Y-90196753D01*
X48712497Y-90196751D01*
X48489748Y-90137066D01*
X48489744Y-90137065D01*
X48489743Y-90137065D01*
X48489742Y-90137064D01*
X48489737Y-90137064D01*
X48260002Y-90116965D01*
X48259998Y-90116965D01*
X48030262Y-90137064D01*
X48030251Y-90137066D01*
X47807502Y-90196751D01*
X47807495Y-90196753D01*
X47807495Y-90196754D01*
X47806483Y-90197226D01*
X47598484Y-90294217D01*
X47598482Y-90294218D01*
X47409566Y-90426497D01*
X47246497Y-90589566D01*
X47111113Y-90782918D01*
X47109954Y-90782106D01*
X47064221Y-90825715D01*
X47007399Y-90839500D01*
X46972601Y-90839500D01*
X46905562Y-90819815D01*
X46869782Y-90782290D01*
X46868887Y-90782918D01*
X46733502Y-90589566D01*
X46570432Y-90426496D01*
X46381522Y-90294220D01*
X46381518Y-90294218D01*
X46318761Y-90264954D01*
X46172505Y-90196754D01*
X46172501Y-90196753D01*
X46172497Y-90196751D01*
X45949748Y-90137066D01*
X45949744Y-90137065D01*
X45949743Y-90137065D01*
X45949742Y-90137064D01*
X45949737Y-90137064D01*
X45720002Y-90116965D01*
X45719998Y-90116965D01*
X45490262Y-90137064D01*
X45490251Y-90137066D01*
X45382778Y-90165863D01*
X45312928Y-90164200D01*
X45263004Y-90133769D01*
X45090090Y-89960855D01*
X45090088Y-89960852D01*
X44971217Y-89841981D01*
X44971216Y-89841980D01*
X44884404Y-89791860D01*
X44884404Y-89791859D01*
X44884400Y-89791858D01*
X44834285Y-89762923D01*
X44681557Y-89721999D01*
X44523443Y-89721999D01*
X44515847Y-89721999D01*
X44515831Y-89722000D01*
X36977598Y-89722000D01*
X36910559Y-89702315D01*
X36889917Y-89685681D01*
X32356819Y-85152583D01*
X32323334Y-85091260D01*
X32320500Y-85064902D01*
X32320500Y-83548351D01*
X37397963Y-83548351D01*
X37416616Y-83785371D01*
X37416616Y-83785374D01*
X37416617Y-83785376D01*
X37472121Y-84016565D01*
X37472122Y-84016567D01*
X37563106Y-84236224D01*
X37687333Y-84438943D01*
X37687336Y-84438948D01*
X37704378Y-84458901D01*
X37841746Y-84619739D01*
X37957471Y-84718577D01*
X38022536Y-84774148D01*
X38022541Y-84774151D01*
X38225260Y-84898378D01*
X38302920Y-84930545D01*
X38444920Y-84989364D01*
X38676109Y-85044868D01*
X38913134Y-85063522D01*
X39150159Y-85044868D01*
X39381348Y-84989364D01*
X39601007Y-84898378D01*
X39803729Y-84774150D01*
X39984522Y-84619739D01*
X40088844Y-84497593D01*
X40147351Y-84459400D01*
X40217218Y-84458901D01*
X40276265Y-84496255D01*
X40277424Y-84497593D01*
X40381746Y-84619739D01*
X40497471Y-84718577D01*
X40562536Y-84774148D01*
X40562541Y-84774151D01*
X40765260Y-84898378D01*
X40842920Y-84930545D01*
X40984920Y-84989364D01*
X41216109Y-85044868D01*
X41453134Y-85063522D01*
X41690159Y-85044868D01*
X41921348Y-84989364D01*
X42141007Y-84898378D01*
X42343729Y-84774150D01*
X42524522Y-84619739D01*
X42628844Y-84497593D01*
X42687351Y-84459400D01*
X42757218Y-84458901D01*
X42816265Y-84496255D01*
X42817424Y-84497593D01*
X42921746Y-84619739D01*
X43037471Y-84718577D01*
X43102536Y-84774148D01*
X43102541Y-84774151D01*
X43305260Y-84898378D01*
X43382920Y-84930545D01*
X43524920Y-84989364D01*
X43756109Y-85044868D01*
X43993134Y-85063522D01*
X44230159Y-85044868D01*
X44461348Y-84989364D01*
X44681007Y-84898378D01*
X44883729Y-84774150D01*
X45064522Y-84619739D01*
X45168844Y-84497593D01*
X45227351Y-84459400D01*
X45297218Y-84458901D01*
X45356265Y-84496255D01*
X45357424Y-84497593D01*
X45461746Y-84619739D01*
X45577471Y-84718577D01*
X45642536Y-84774148D01*
X45642541Y-84774151D01*
X45845260Y-84898378D01*
X45922920Y-84930545D01*
X46064920Y-84989364D01*
X46296109Y-85044868D01*
X46533134Y-85063522D01*
X46770159Y-85044868D01*
X47001348Y-84989364D01*
X47221007Y-84898378D01*
X47423729Y-84774150D01*
X47604522Y-84619739D01*
X47758933Y-84438946D01*
X47883161Y-84236224D01*
X47974147Y-84016565D01*
X48029651Y-83785376D01*
X48048305Y-83548351D01*
X48029651Y-83311326D01*
X47974147Y-83080137D01*
X47883161Y-82860478D01*
X47883161Y-82860477D01*
X47758934Y-82657758D01*
X47758931Y-82657753D01*
X47703360Y-82592688D01*
X47604522Y-82476963D01*
X47505682Y-82392546D01*
X47423731Y-82322553D01*
X47423726Y-82322550D01*
X47221007Y-82198323D01*
X47001350Y-82107339D01*
X47001348Y-82107338D01*
X46770159Y-82051834D01*
X46770157Y-82051833D01*
X46770154Y-82051833D01*
X46533134Y-82033180D01*
X46296113Y-82051833D01*
X46296109Y-82051834D01*
X46064920Y-82107338D01*
X46064918Y-82107338D01*
X46064917Y-82107339D01*
X45845260Y-82198323D01*
X45642541Y-82322550D01*
X45642536Y-82322553D01*
X45461746Y-82476963D01*
X45357424Y-82599108D01*
X45298917Y-82637301D01*
X45229049Y-82637799D01*
X45170003Y-82600445D01*
X45168844Y-82599108D01*
X45120563Y-82542579D01*
X45064522Y-82476963D01*
X44965682Y-82392546D01*
X44883731Y-82322553D01*
X44883726Y-82322550D01*
X44681007Y-82198323D01*
X44461350Y-82107339D01*
X44461348Y-82107338D01*
X44230159Y-82051834D01*
X44230157Y-82051833D01*
X44230154Y-82051833D01*
X43993134Y-82033180D01*
X43756113Y-82051833D01*
X43756109Y-82051834D01*
X43524920Y-82107338D01*
X43524918Y-82107338D01*
X43524917Y-82107339D01*
X43305260Y-82198323D01*
X43102541Y-82322550D01*
X43102536Y-82322553D01*
X42921746Y-82476963D01*
X42817424Y-82599108D01*
X42758917Y-82637301D01*
X42689049Y-82637799D01*
X42630003Y-82600445D01*
X42628844Y-82599108D01*
X42580563Y-82542579D01*
X42524522Y-82476963D01*
X42425682Y-82392546D01*
X42343731Y-82322553D01*
X42343726Y-82322550D01*
X42141007Y-82198323D01*
X41921350Y-82107339D01*
X41921348Y-82107338D01*
X41690159Y-82051834D01*
X41690157Y-82051833D01*
X41690154Y-82051833D01*
X41453134Y-82033180D01*
X41216113Y-82051833D01*
X41216109Y-82051834D01*
X40984920Y-82107338D01*
X40984918Y-82107338D01*
X40984917Y-82107339D01*
X40765260Y-82198323D01*
X40562541Y-82322550D01*
X40562536Y-82322553D01*
X40381746Y-82476963D01*
X40277424Y-82599108D01*
X40218917Y-82637301D01*
X40149049Y-82637799D01*
X40090003Y-82600445D01*
X40088844Y-82599108D01*
X40040563Y-82542579D01*
X39984522Y-82476963D01*
X39885682Y-82392546D01*
X39803731Y-82322553D01*
X39803726Y-82322550D01*
X39601007Y-82198323D01*
X39381350Y-82107339D01*
X39381348Y-82107338D01*
X39150159Y-82051834D01*
X39150157Y-82051833D01*
X39150154Y-82051833D01*
X38913134Y-82033180D01*
X38676113Y-82051833D01*
X38676109Y-82051834D01*
X38444920Y-82107338D01*
X38444918Y-82107338D01*
X38444917Y-82107339D01*
X38225260Y-82198323D01*
X38022541Y-82322550D01*
X38022536Y-82322553D01*
X37841746Y-82476963D01*
X37687336Y-82657753D01*
X37687333Y-82657758D01*
X37563106Y-82860477D01*
X37472122Y-83080134D01*
X37416616Y-83311330D01*
X37397963Y-83548351D01*
X32320500Y-83548351D01*
X32320500Y-67439986D01*
X59760001Y-67439986D01*
X59770494Y-67542697D01*
X59825641Y-67709119D01*
X59825643Y-67709124D01*
X59917684Y-67858345D01*
X60041654Y-67982315D01*
X60190875Y-68074356D01*
X60190880Y-68074358D01*
X60357302Y-68129505D01*
X60357309Y-68129506D01*
X60460019Y-68139999D01*
X60709999Y-68139999D01*
X61210000Y-68139999D01*
X61459972Y-68139999D01*
X61459986Y-68139998D01*
X61562697Y-68129505D01*
X61729119Y-68074358D01*
X61729124Y-68074356D01*
X61878345Y-67982315D01*
X61988925Y-67871735D01*
X69959100Y-67871735D01*
X69959100Y-69288270D01*
X69959101Y-69288276D01*
X69965508Y-69347883D01*
X70015802Y-69482728D01*
X70015806Y-69482735D01*
X70102052Y-69597944D01*
X70102055Y-69597947D01*
X70217264Y-69684193D01*
X70217271Y-69684197D01*
X70352117Y-69734491D01*
X70352116Y-69734491D01*
X70359044Y-69735235D01*
X70411727Y-69740900D01*
X71828272Y-69740899D01*
X71887883Y-69734491D01*
X72022731Y-69684196D01*
X72137946Y-69597946D01*
X72224196Y-69482731D01*
X72274491Y-69347883D01*
X72280900Y-69288273D01*
X72280899Y-67871728D01*
X72274491Y-67812117D01*
X72236075Y-67709119D01*
X72224197Y-67677271D01*
X72224193Y-67677264D01*
X72137947Y-67562055D01*
X72137944Y-67562052D01*
X72022735Y-67475806D01*
X72022728Y-67475802D01*
X71887882Y-67425508D01*
X71887883Y-67425508D01*
X71828283Y-67419101D01*
X71828281Y-67419100D01*
X71828273Y-67419100D01*
X71828264Y-67419100D01*
X70411729Y-67419100D01*
X70411723Y-67419101D01*
X70352116Y-67425508D01*
X70217271Y-67475802D01*
X70217264Y-67475806D01*
X70102055Y-67562052D01*
X70102052Y-67562055D01*
X70015806Y-67677264D01*
X70015802Y-67677271D01*
X69965508Y-67812117D01*
X69959101Y-67871716D01*
X69959101Y-67871723D01*
X69959100Y-67871735D01*
X61988925Y-67871735D01*
X62002315Y-67858345D01*
X62094356Y-67709124D01*
X62094358Y-67709119D01*
X62149505Y-67542697D01*
X62149506Y-67542690D01*
X62159999Y-67439986D01*
X62160000Y-67439973D01*
X62160000Y-67290000D01*
X61210000Y-67290000D01*
X61210000Y-68139999D01*
X60709999Y-68139999D01*
X60710000Y-68139998D01*
X60710000Y-67290000D01*
X59760001Y-67290000D01*
X59760001Y-67439986D01*
X32320500Y-67439986D01*
X32320500Y-67200944D01*
X32320499Y-67200938D01*
X32320489Y-67200899D01*
X32305294Y-67144193D01*
X32279577Y-67048215D01*
X32250639Y-66998095D01*
X32200520Y-66911284D01*
X32088716Y-66799480D01*
X32088715Y-66799479D01*
X32084385Y-66795149D01*
X32084374Y-66795139D01*
X28576819Y-63287584D01*
X28543334Y-63226261D01*
X28540500Y-63199903D01*
X28540500Y-57248543D01*
X31819499Y-57248543D01*
X31857947Y-57441829D01*
X31857950Y-57441839D01*
X31933364Y-57623907D01*
X31933371Y-57623920D01*
X32042860Y-57787781D01*
X32042863Y-57787785D01*
X32182214Y-57927136D01*
X32182218Y-57927139D01*
X32346079Y-58036628D01*
X32346092Y-58036635D01*
X32528160Y-58112049D01*
X32528165Y-58112051D01*
X32528169Y-58112051D01*
X32528170Y-58112052D01*
X32721456Y-58150500D01*
X32721459Y-58150500D01*
X33918543Y-58150500D01*
X34048582Y-58124632D01*
X34111835Y-58112051D01*
X34293914Y-58036632D01*
X34457782Y-57927139D01*
X34597139Y-57787782D01*
X34706632Y-57623914D01*
X34782051Y-57441835D01*
X34820500Y-57248541D01*
X34820500Y-57051459D01*
X34820500Y-57051456D01*
X34782052Y-56858170D01*
X34782051Y-56858169D01*
X34782051Y-56858165D01*
X34750807Y-56782735D01*
X34706635Y-56676092D01*
X34706628Y-56676079D01*
X34597139Y-56512218D01*
X34597136Y-56512214D01*
X34457785Y-56372863D01*
X34457781Y-56372860D01*
X34293920Y-56263371D01*
X34293907Y-56263364D01*
X34111839Y-56187950D01*
X34111829Y-56187947D01*
X33918543Y-56149500D01*
X33918541Y-56149500D01*
X32721459Y-56149500D01*
X32721457Y-56149500D01*
X32528170Y-56187947D01*
X32528160Y-56187950D01*
X32346092Y-56263364D01*
X32346079Y-56263371D01*
X32182218Y-56372860D01*
X32182214Y-56372863D01*
X32042863Y-56512214D01*
X32042860Y-56512218D01*
X31933371Y-56676079D01*
X31933364Y-56676092D01*
X31857950Y-56858160D01*
X31857947Y-56858170D01*
X31819500Y-57051456D01*
X31819500Y-57051459D01*
X31819500Y-57248541D01*
X31819500Y-57248543D01*
X31819499Y-57248543D01*
X28540500Y-57248543D01*
X28540500Y-54708543D01*
X31819499Y-54708543D01*
X31857947Y-54901829D01*
X31857950Y-54901839D01*
X31933364Y-55083907D01*
X31933371Y-55083920D01*
X32042860Y-55247781D01*
X32042863Y-55247785D01*
X32182214Y-55387136D01*
X32182218Y-55387139D01*
X32346079Y-55496628D01*
X32346092Y-55496635D01*
X32528160Y-55572049D01*
X32528165Y-55572051D01*
X32528169Y-55572051D01*
X32528170Y-55572052D01*
X32721456Y-55610500D01*
X32721459Y-55610500D01*
X33918543Y-55610500D01*
X34048582Y-55584632D01*
X34111835Y-55572051D01*
X34293914Y-55496632D01*
X34457782Y-55387139D01*
X34597139Y-55247782D01*
X34706632Y-55083914D01*
X34782051Y-54901835D01*
X34807120Y-54775806D01*
X34820500Y-54708543D01*
X34820500Y-54511456D01*
X34782052Y-54318170D01*
X34782051Y-54318169D01*
X34782051Y-54318165D01*
X34750807Y-54242735D01*
X34706635Y-54136092D01*
X34706628Y-54136079D01*
X34597139Y-53972218D01*
X34597136Y-53972214D01*
X34457785Y-53832863D01*
X34457781Y-53832860D01*
X34293920Y-53723371D01*
X34293907Y-53723364D01*
X34111839Y-53647950D01*
X34111829Y-53647947D01*
X33918543Y-53609500D01*
X33918541Y-53609500D01*
X32721459Y-53609500D01*
X32721457Y-53609500D01*
X32528170Y-53647947D01*
X32528160Y-53647950D01*
X32346092Y-53723364D01*
X32346079Y-53723371D01*
X32182218Y-53832860D01*
X32182214Y-53832863D01*
X32042863Y-53972214D01*
X32042860Y-53972218D01*
X31933371Y-54136079D01*
X31933364Y-54136092D01*
X31857950Y-54318160D01*
X31857947Y-54318170D01*
X31819500Y-54511456D01*
X31819500Y-54511459D01*
X31819500Y-54708541D01*
X31819500Y-54708543D01*
X31819499Y-54708543D01*
X28540500Y-54708543D01*
X28540500Y-52168543D01*
X31819499Y-52168543D01*
X31857947Y-52361829D01*
X31857950Y-52361839D01*
X31933364Y-52543907D01*
X31933371Y-52543920D01*
X32042860Y-52707781D01*
X32042863Y-52707785D01*
X32182214Y-52847136D01*
X32182218Y-52847139D01*
X32346079Y-52956628D01*
X32346092Y-52956635D01*
X32528160Y-53032049D01*
X32528165Y-53032051D01*
X32528169Y-53032051D01*
X32528170Y-53032052D01*
X32721456Y-53070500D01*
X32721459Y-53070500D01*
X33918543Y-53070500D01*
X34048582Y-53044632D01*
X34111835Y-53032051D01*
X34293914Y-52956632D01*
X34457782Y-52847139D01*
X34597139Y-52707782D01*
X34706632Y-52543914D01*
X34782051Y-52361835D01*
X34807120Y-52235806D01*
X34820500Y-52168543D01*
X34820500Y-51971456D01*
X34782052Y-51778170D01*
X34782051Y-51778169D01*
X34782051Y-51778165D01*
X34750206Y-51701284D01*
X34706635Y-51596092D01*
X34706628Y-51596079D01*
X34597139Y-51432218D01*
X34597136Y-51432214D01*
X34457785Y-51292863D01*
X34457781Y-51292860D01*
X34293920Y-51183371D01*
X34293907Y-51183364D01*
X34111839Y-51107950D01*
X34111829Y-51107947D01*
X33918543Y-51069500D01*
X33918541Y-51069500D01*
X32721459Y-51069500D01*
X32721457Y-51069500D01*
X32528170Y-51107947D01*
X32528160Y-51107950D01*
X32346092Y-51183364D01*
X32346079Y-51183371D01*
X32182218Y-51292860D01*
X32182214Y-51292863D01*
X32042863Y-51432214D01*
X32042860Y-51432218D01*
X31933371Y-51596079D01*
X31933364Y-51596092D01*
X31857950Y-51778160D01*
X31857947Y-51778170D01*
X31819500Y-51971456D01*
X31819500Y-51971459D01*
X31819500Y-52168541D01*
X31819500Y-52168543D01*
X31819499Y-52168543D01*
X28540500Y-52168543D01*
X28540500Y-49628543D01*
X31819499Y-49628543D01*
X31857947Y-49821829D01*
X31857950Y-49821839D01*
X31933364Y-50003907D01*
X31933371Y-50003920D01*
X32042860Y-50167781D01*
X32042863Y-50167785D01*
X32182214Y-50307136D01*
X32182218Y-50307139D01*
X32346079Y-50416628D01*
X32346092Y-50416635D01*
X32510729Y-50484829D01*
X32528165Y-50492051D01*
X32528169Y-50492051D01*
X32528170Y-50492052D01*
X32721456Y-50530500D01*
X32721459Y-50530500D01*
X33918543Y-50530500D01*
X34054368Y-50503482D01*
X34111835Y-50492051D01*
X34293914Y-50416632D01*
X34457782Y-50307139D01*
X34597139Y-50167782D01*
X34706632Y-50003914D01*
X34782051Y-49821835D01*
X34820500Y-49628541D01*
X34820500Y-49431459D01*
X34820500Y-49431456D01*
X34782052Y-49238170D01*
X34782051Y-49238169D01*
X34782051Y-49238165D01*
X34782049Y-49238160D01*
X34706635Y-49056092D01*
X34706628Y-49056079D01*
X34597139Y-48892218D01*
X34597136Y-48892214D01*
X34457785Y-48752863D01*
X34457781Y-48752860D01*
X34293920Y-48643371D01*
X34293907Y-48643364D01*
X34111839Y-48567950D01*
X34111829Y-48567947D01*
X33918543Y-48529500D01*
X33918541Y-48529500D01*
X32721459Y-48529500D01*
X32721457Y-48529500D01*
X32528170Y-48567947D01*
X32528160Y-48567950D01*
X32346092Y-48643364D01*
X32346079Y-48643371D01*
X32182218Y-48752860D01*
X32182214Y-48752863D01*
X32042863Y-48892214D01*
X32042860Y-48892218D01*
X31933371Y-49056079D01*
X31933364Y-49056092D01*
X31857950Y-49238160D01*
X31857947Y-49238170D01*
X31819500Y-49431456D01*
X31819500Y-49431459D01*
X31819500Y-49628541D01*
X31819500Y-49628543D01*
X31819499Y-49628543D01*
X28540500Y-49628543D01*
X28540500Y-47088543D01*
X31819499Y-47088543D01*
X31857947Y-47281829D01*
X31857950Y-47281839D01*
X31933364Y-47463907D01*
X31933371Y-47463920D01*
X32042860Y-47627781D01*
X32042863Y-47627785D01*
X32182214Y-47767136D01*
X32182218Y-47767139D01*
X32346079Y-47876628D01*
X32346092Y-47876635D01*
X32528160Y-47952049D01*
X32528165Y-47952051D01*
X32528169Y-47952051D01*
X32528170Y-47952052D01*
X32721456Y-47990500D01*
X32721459Y-47990500D01*
X33918543Y-47990500D01*
X34048582Y-47964632D01*
X34111835Y-47952051D01*
X34293914Y-47876632D01*
X34457782Y-47767139D01*
X34597139Y-47627782D01*
X34706632Y-47463914D01*
X34782051Y-47281835D01*
X34820500Y-47088541D01*
X34820500Y-46891459D01*
X34820500Y-46891456D01*
X34782052Y-46698170D01*
X34782051Y-46698169D01*
X34782051Y-46698165D01*
X34782049Y-46698160D01*
X34706635Y-46516092D01*
X34706628Y-46516079D01*
X34597139Y-46352218D01*
X34597136Y-46352214D01*
X34457785Y-46212863D01*
X34457781Y-46212860D01*
X34293920Y-46103371D01*
X34293907Y-46103364D01*
X34111839Y-46027950D01*
X34111829Y-46027947D01*
X33918543Y-45989500D01*
X33918541Y-45989500D01*
X32721459Y-45989500D01*
X32721457Y-45989500D01*
X32528170Y-46027947D01*
X32528160Y-46027950D01*
X32346092Y-46103364D01*
X32346079Y-46103371D01*
X32182218Y-46212860D01*
X32182214Y-46212863D01*
X32042863Y-46352214D01*
X32042860Y-46352218D01*
X31933371Y-46516079D01*
X31933364Y-46516092D01*
X31857950Y-46698160D01*
X31857947Y-46698170D01*
X31819500Y-46891456D01*
X31819500Y-46891459D01*
X31819500Y-47088541D01*
X31819500Y-47088543D01*
X31819499Y-47088543D01*
X28540500Y-47088543D01*
X28540500Y-44548543D01*
X31819499Y-44548543D01*
X31857947Y-44741829D01*
X31857950Y-44741839D01*
X31933364Y-44923907D01*
X31933371Y-44923920D01*
X32042860Y-45087781D01*
X32042863Y-45087785D01*
X32182214Y-45227136D01*
X32182218Y-45227139D01*
X32346079Y-45336628D01*
X32346092Y-45336635D01*
X32528160Y-45412049D01*
X32528165Y-45412051D01*
X32528169Y-45412051D01*
X32528170Y-45412052D01*
X32721456Y-45450500D01*
X32721459Y-45450500D01*
X33918543Y-45450500D01*
X34048582Y-45424632D01*
X34111835Y-45412051D01*
X34293914Y-45336632D01*
X34457782Y-45227139D01*
X34597139Y-45087782D01*
X34706632Y-44923914D01*
X34782051Y-44741835D01*
X34820500Y-44548541D01*
X34820500Y-44351459D01*
X34820500Y-44351456D01*
X34782052Y-44158170D01*
X34782051Y-44158169D01*
X34782051Y-44158165D01*
X34750807Y-44082735D01*
X34706635Y-43976092D01*
X34706628Y-43976079D01*
X34597139Y-43812218D01*
X34597136Y-43812214D01*
X34457785Y-43672863D01*
X34457781Y-43672860D01*
X34293920Y-43563371D01*
X34293907Y-43563364D01*
X34111839Y-43487950D01*
X34111829Y-43487947D01*
X33918543Y-43449500D01*
X33918541Y-43449500D01*
X32721459Y-43449500D01*
X32721457Y-43449500D01*
X32528170Y-43487947D01*
X32528160Y-43487950D01*
X32346092Y-43563364D01*
X32346079Y-43563371D01*
X32182218Y-43672860D01*
X32182214Y-43672863D01*
X32042863Y-43812214D01*
X32042860Y-43812218D01*
X31933371Y-43976079D01*
X31933364Y-43976092D01*
X31857950Y-44158160D01*
X31857947Y-44158170D01*
X31819500Y-44351456D01*
X31819500Y-44351459D01*
X31819500Y-44548541D01*
X31819500Y-44548543D01*
X31819499Y-44548543D01*
X28540500Y-44548543D01*
X28540500Y-42008543D01*
X31819499Y-42008543D01*
X31857947Y-42201829D01*
X31857950Y-42201839D01*
X31933364Y-42383907D01*
X31933371Y-42383920D01*
X32042860Y-42547781D01*
X32042863Y-42547785D01*
X32182214Y-42687136D01*
X32182218Y-42687139D01*
X32346079Y-42796628D01*
X32346092Y-42796635D01*
X32528160Y-42872049D01*
X32528165Y-42872051D01*
X32528169Y-42872051D01*
X32528170Y-42872052D01*
X32721456Y-42910500D01*
X32721459Y-42910500D01*
X33918543Y-42910500D01*
X34048582Y-42884632D01*
X34111835Y-42872051D01*
X34293914Y-42796632D01*
X34457782Y-42687139D01*
X34597139Y-42547782D01*
X34706632Y-42383914D01*
X34782051Y-42201835D01*
X34807120Y-42075806D01*
X34820500Y-42008543D01*
X34820500Y-41811456D01*
X34782052Y-41618170D01*
X34782051Y-41618169D01*
X34782051Y-41618165D01*
X34750807Y-41542735D01*
X34706635Y-41436092D01*
X34706628Y-41436079D01*
X34597139Y-41272218D01*
X34597136Y-41272214D01*
X34457785Y-41132863D01*
X34457781Y-41132860D01*
X34293920Y-41023371D01*
X34293907Y-41023364D01*
X34111839Y-40947950D01*
X34111829Y-40947947D01*
X33918543Y-40909500D01*
X33918541Y-40909500D01*
X32721459Y-40909500D01*
X32721457Y-40909500D01*
X32528170Y-40947947D01*
X32528160Y-40947950D01*
X32346092Y-41023364D01*
X32346079Y-41023371D01*
X32182218Y-41132860D01*
X32182214Y-41132863D01*
X32042863Y-41272214D01*
X32042860Y-41272218D01*
X31933371Y-41436079D01*
X31933364Y-41436092D01*
X31857950Y-41618160D01*
X31857947Y-41618170D01*
X31819500Y-41811456D01*
X31819500Y-41811459D01*
X31819500Y-42008541D01*
X31819500Y-42008543D01*
X31819499Y-42008543D01*
X28540500Y-42008543D01*
X28540500Y-34590096D01*
X28560185Y-34523057D01*
X28576814Y-34502420D01*
X30838506Y-32240727D01*
X30838511Y-32240724D01*
X30848714Y-32230520D01*
X30848716Y-32230520D01*
X30960520Y-32118716D01*
X31039577Y-31981784D01*
X31080500Y-31829057D01*
X31080500Y-30294461D01*
X31100185Y-30227422D01*
X31116815Y-30206784D01*
X31716126Y-29607472D01*
X31777449Y-29573988D01*
X31847141Y-29578972D01*
X31903074Y-29620844D01*
X31918368Y-29647702D01*
X31933364Y-29683907D01*
X31933371Y-29683920D01*
X32042860Y-29847781D01*
X32042863Y-29847785D01*
X32182214Y-29987136D01*
X32182218Y-29987139D01*
X32346079Y-30096628D01*
X32346092Y-30096635D01*
X32517004Y-30167428D01*
X32528165Y-30172051D01*
X32528169Y-30172051D01*
X32528170Y-30172052D01*
X32721456Y-30210500D01*
X32721459Y-30210500D01*
X33119903Y-30210500D01*
X33186942Y-30230185D01*
X33207584Y-30246819D01*
X33498584Y-30537819D01*
X33532069Y-30599142D01*
X33527085Y-30668834D01*
X33485213Y-30724767D01*
X33419749Y-30749184D01*
X33410903Y-30749500D01*
X32721457Y-30749500D01*
X32528170Y-30787947D01*
X32528160Y-30787950D01*
X32346092Y-30863364D01*
X32346079Y-30863371D01*
X32182218Y-30972860D01*
X32182214Y-30972863D01*
X32042863Y-31112214D01*
X32042860Y-31112218D01*
X31933371Y-31276079D01*
X31933364Y-31276092D01*
X31857950Y-31458160D01*
X31857947Y-31458170D01*
X31819500Y-31651456D01*
X31819500Y-31651459D01*
X31819500Y-31848541D01*
X31819500Y-31848543D01*
X31819499Y-31848543D01*
X31857947Y-32041829D01*
X31857950Y-32041839D01*
X31933364Y-32223907D01*
X31933371Y-32223920D01*
X32042860Y-32387781D01*
X32042863Y-32387785D01*
X32182214Y-32527136D01*
X32182218Y-32527139D01*
X32346079Y-32636628D01*
X32346092Y-32636635D01*
X32528160Y-32712049D01*
X32528165Y-32712051D01*
X32528169Y-32712051D01*
X32528170Y-32712052D01*
X32721456Y-32750500D01*
X32721459Y-32750500D01*
X33119903Y-32750500D01*
X33186942Y-32770185D01*
X33207584Y-32786819D01*
X33498584Y-33077819D01*
X33532069Y-33139142D01*
X33527085Y-33208834D01*
X33485213Y-33264767D01*
X33419749Y-33289184D01*
X33410903Y-33289500D01*
X32721457Y-33289500D01*
X32528170Y-33327947D01*
X32528160Y-33327950D01*
X32346092Y-33403364D01*
X32346079Y-33403371D01*
X32182218Y-33512860D01*
X32182214Y-33512863D01*
X32042863Y-33652214D01*
X32042860Y-33652218D01*
X31933371Y-33816079D01*
X31933364Y-33816092D01*
X31857950Y-33998160D01*
X31857947Y-33998170D01*
X31819500Y-34191456D01*
X31819500Y-34191459D01*
X31819500Y-34388541D01*
X31819500Y-34388543D01*
X31819499Y-34388543D01*
X31857947Y-34581829D01*
X31857950Y-34581839D01*
X31933364Y-34763907D01*
X31933371Y-34763920D01*
X32042860Y-34927781D01*
X32042863Y-34927785D01*
X32182214Y-35067136D01*
X32182218Y-35067139D01*
X32346079Y-35176628D01*
X32346092Y-35176635D01*
X32528160Y-35252049D01*
X32528165Y-35252051D01*
X32528169Y-35252051D01*
X32528170Y-35252052D01*
X32721456Y-35290500D01*
X32721459Y-35290500D01*
X33119903Y-35290500D01*
X33186942Y-35310185D01*
X33207584Y-35326819D01*
X33498584Y-35617819D01*
X33532069Y-35679142D01*
X33527085Y-35748834D01*
X33485213Y-35804767D01*
X33419749Y-35829184D01*
X33410903Y-35829500D01*
X32721457Y-35829500D01*
X32528170Y-35867947D01*
X32528160Y-35867950D01*
X32346092Y-35943364D01*
X32346079Y-35943371D01*
X32182218Y-36052860D01*
X32182214Y-36052863D01*
X32042863Y-36192214D01*
X32042860Y-36192218D01*
X31933371Y-36356079D01*
X31933364Y-36356092D01*
X31857950Y-36538160D01*
X31857947Y-36538170D01*
X31819500Y-36731456D01*
X31819500Y-36731459D01*
X31819500Y-36928541D01*
X31819500Y-36928543D01*
X31819499Y-36928543D01*
X31857947Y-37121829D01*
X31857950Y-37121839D01*
X31933364Y-37303907D01*
X31933371Y-37303920D01*
X32042860Y-37467781D01*
X32042863Y-37467785D01*
X32182214Y-37607136D01*
X32182218Y-37607139D01*
X32346079Y-37716628D01*
X32346092Y-37716635D01*
X32528160Y-37792049D01*
X32528165Y-37792051D01*
X32528169Y-37792051D01*
X32528170Y-37792052D01*
X32721456Y-37830500D01*
X32721459Y-37830500D01*
X33119903Y-37830500D01*
X33186942Y-37850185D01*
X33207584Y-37866819D01*
X33498584Y-38157819D01*
X33532069Y-38219142D01*
X33527085Y-38288834D01*
X33485213Y-38344767D01*
X33419749Y-38369184D01*
X33410903Y-38369500D01*
X32721457Y-38369500D01*
X32528170Y-38407947D01*
X32528160Y-38407950D01*
X32346092Y-38483364D01*
X32346079Y-38483371D01*
X32182218Y-38592860D01*
X32182214Y-38592863D01*
X32042863Y-38732214D01*
X32042860Y-38732218D01*
X31933371Y-38896079D01*
X31933364Y-38896092D01*
X31857950Y-39078160D01*
X31857947Y-39078170D01*
X31819500Y-39271456D01*
X31819500Y-39271459D01*
X31819500Y-39468541D01*
X31819500Y-39468543D01*
X31819499Y-39468543D01*
X31857947Y-39661829D01*
X31857950Y-39661839D01*
X31933364Y-39843907D01*
X31933371Y-39843920D01*
X32042860Y-40007781D01*
X32042863Y-40007785D01*
X32182214Y-40147136D01*
X32182218Y-40147139D01*
X32346079Y-40256628D01*
X32346092Y-40256635D01*
X32528160Y-40332049D01*
X32528165Y-40332051D01*
X32528169Y-40332051D01*
X32528170Y-40332052D01*
X32721456Y-40370500D01*
X32721459Y-40370500D01*
X33918543Y-40370500D01*
X34048582Y-40344632D01*
X34111835Y-40332051D01*
X34293914Y-40256632D01*
X34457782Y-40147139D01*
X34597139Y-40007782D01*
X34706632Y-39843914D01*
X34775630Y-39677335D01*
X34819470Y-39622932D01*
X34885764Y-39600867D01*
X34953464Y-39618146D01*
X34977872Y-39637107D01*
X47623181Y-52282416D01*
X47656666Y-52343739D01*
X47659500Y-52370097D01*
X47659500Y-55793330D01*
X47659499Y-55793348D01*
X47659499Y-55959054D01*
X47659498Y-55959054D01*
X47700423Y-56111786D01*
X47700424Y-56111787D01*
X47719330Y-56144533D01*
X47779481Y-56248717D01*
X47898349Y-56367585D01*
X47898355Y-56367590D01*
X56935139Y-65404374D01*
X56935149Y-65404385D01*
X56939479Y-65408715D01*
X56939480Y-65408716D01*
X57051284Y-65520520D01*
X57138095Y-65570639D01*
X57138097Y-65570641D01*
X57188213Y-65599576D01*
X57188215Y-65599577D01*
X57340942Y-65640500D01*
X57340943Y-65640500D01*
X59714092Y-65640500D01*
X59781131Y-65660185D01*
X59819636Y-65704271D01*
X59821395Y-65703187D01*
X59917289Y-65858657D01*
X60011304Y-65952672D01*
X60044789Y-66013995D01*
X60039805Y-66083687D01*
X60011305Y-66128034D01*
X59917682Y-66221657D01*
X59825643Y-66370875D01*
X59825641Y-66370880D01*
X59770494Y-66537302D01*
X59770493Y-66537309D01*
X59760000Y-66640013D01*
X59760000Y-66790000D01*
X62159999Y-66790000D01*
X62159999Y-66640028D01*
X62159998Y-66640013D01*
X62149505Y-66537302D01*
X62094358Y-66370880D01*
X62094356Y-66370875D01*
X62002315Y-66221654D01*
X61908695Y-66128034D01*
X61875210Y-66066711D01*
X61880194Y-65997019D01*
X61908691Y-65952676D01*
X62002712Y-65858656D01*
X62094814Y-65709334D01*
X62094814Y-65709332D01*
X62098605Y-65703187D01*
X62100399Y-65704293D01*
X62139687Y-65659663D01*
X62205908Y-65640500D01*
X64413331Y-65640500D01*
X64413347Y-65640501D01*
X64420943Y-65640501D01*
X64579054Y-65640501D01*
X64579057Y-65640501D01*
X64731785Y-65599577D01*
X64781904Y-65570639D01*
X64868716Y-65520520D01*
X64980520Y-65408716D01*
X64980520Y-65408714D01*
X64990728Y-65398507D01*
X64990729Y-65398504D01*
X65057498Y-65331735D01*
X67419100Y-65331735D01*
X67419100Y-66748270D01*
X67419101Y-66748276D01*
X67425508Y-66807883D01*
X67475802Y-66942728D01*
X67475806Y-66942735D01*
X67562052Y-67057944D01*
X67562055Y-67057947D01*
X67677264Y-67144193D01*
X67677271Y-67144197D01*
X67812117Y-67194491D01*
X67812116Y-67194491D01*
X67819044Y-67195235D01*
X67871727Y-67200900D01*
X69288272Y-67200899D01*
X69347883Y-67194491D01*
X69482731Y-67144196D01*
X69597946Y-67057946D01*
X69684196Y-66942731D01*
X69734491Y-66807883D01*
X69740900Y-66748273D01*
X69740899Y-65331728D01*
X69734491Y-65272117D01*
X69684196Y-65137269D01*
X69684195Y-65137268D01*
X69684193Y-65137264D01*
X69597947Y-65022055D01*
X69597944Y-65022052D01*
X69482735Y-64935806D01*
X69482728Y-64935802D01*
X69347882Y-64885508D01*
X69347883Y-64885508D01*
X69288283Y-64879101D01*
X69288281Y-64879100D01*
X69288273Y-64879100D01*
X69288264Y-64879100D01*
X67871729Y-64879100D01*
X67871723Y-64879101D01*
X67812116Y-64885508D01*
X67677271Y-64935802D01*
X67677264Y-64935806D01*
X67562055Y-65022052D01*
X67562052Y-65022055D01*
X67475806Y-65137264D01*
X67475802Y-65137271D01*
X67425508Y-65272117D01*
X67419101Y-65331716D01*
X67419101Y-65331723D01*
X67419100Y-65331735D01*
X65057498Y-65331735D01*
X66252416Y-64136819D01*
X66313739Y-64103334D01*
X66340097Y-64100500D01*
X70057003Y-64100500D01*
X70124042Y-64120185D01*
X70155953Y-64149769D01*
X70258409Y-64285444D01*
X70258412Y-64285446D01*
X70258413Y-64285448D01*
X70258414Y-64285449D01*
X70417402Y-64430385D01*
X70417404Y-64430386D01*
X70417405Y-64430387D01*
X70600326Y-64543647D01*
X70800944Y-64621367D01*
X71012427Y-64660900D01*
X71012429Y-64660900D01*
X71227571Y-64660900D01*
X71227573Y-64660900D01*
X71439056Y-64621367D01*
X71639674Y-64543647D01*
X71822595Y-64430387D01*
X71981591Y-64285444D01*
X72111245Y-64113753D01*
X72207144Y-63921162D01*
X72266022Y-63714229D01*
X72285873Y-63500000D01*
X72266022Y-63285771D01*
X72207144Y-63078838D01*
X72177587Y-63019480D01*
X72111248Y-62886253D01*
X72111247Y-62886252D01*
X72111245Y-62886247D01*
X71981591Y-62714556D01*
X71981586Y-62714551D01*
X71981585Y-62714550D01*
X71822597Y-62569614D01*
X71782811Y-62544979D01*
X71639674Y-62456353D01*
X71439056Y-62378633D01*
X71227573Y-62339100D01*
X71012427Y-62339100D01*
X70800944Y-62378633D01*
X70674075Y-62427782D01*
X70600328Y-62456352D01*
X70600327Y-62456352D01*
X70417402Y-62569614D01*
X70258414Y-62714550D01*
X70258413Y-62714551D01*
X70258409Y-62714555D01*
X70258409Y-62714556D01*
X70155954Y-62850228D01*
X70099849Y-62891863D01*
X70057003Y-62899500D01*
X66126669Y-62899500D01*
X66126653Y-62899499D01*
X66119057Y-62899499D01*
X65960943Y-62899499D01*
X65853587Y-62928265D01*
X65808210Y-62940424D01*
X65808209Y-62940425D01*
X65758096Y-62969359D01*
X65758095Y-62969360D01*
X65714689Y-62994420D01*
X65671285Y-63019479D01*
X65671282Y-63019481D01*
X65559478Y-63131286D01*
X64287584Y-64403181D01*
X64226261Y-64436666D01*
X64199903Y-64439500D01*
X62205908Y-64439500D01*
X62138869Y-64419815D01*
X62100363Y-64375728D01*
X62098605Y-64376813D01*
X62094814Y-64370666D01*
X62002712Y-64221344D01*
X61878656Y-64097288D01*
X61729334Y-64005186D01*
X61562797Y-63950001D01*
X61562795Y-63950000D01*
X61460010Y-63939500D01*
X60459998Y-63939500D01*
X60459980Y-63939501D01*
X60357203Y-63950000D01*
X60357200Y-63950001D01*
X60190668Y-64005185D01*
X60190663Y-64005187D01*
X60041342Y-64097289D01*
X59917289Y-64221342D01*
X59821395Y-64376813D01*
X59819600Y-64375706D01*
X59780313Y-64420337D01*
X59714092Y-64439500D01*
X57720097Y-64439500D01*
X57653058Y-64419815D01*
X57632416Y-64403181D01*
X50477778Y-57248543D01*
X51539499Y-57248543D01*
X51577947Y-57441829D01*
X51577950Y-57441839D01*
X51653364Y-57623907D01*
X51653371Y-57623920D01*
X51762860Y-57787781D01*
X51762863Y-57787785D01*
X51902214Y-57927136D01*
X51902218Y-57927139D01*
X52066079Y-58036628D01*
X52066092Y-58036635D01*
X52248160Y-58112049D01*
X52248165Y-58112051D01*
X52248169Y-58112051D01*
X52248170Y-58112052D01*
X52441456Y-58150500D01*
X52441459Y-58150500D01*
X53638543Y-58150500D01*
X53768582Y-58124632D01*
X53831835Y-58112051D01*
X54013914Y-58036632D01*
X54177782Y-57927139D01*
X54317139Y-57787782D01*
X54426632Y-57623914D01*
X54502051Y-57441835D01*
X54540500Y-57248541D01*
X54540500Y-57051459D01*
X54540500Y-57051456D01*
X54502052Y-56858170D01*
X54502051Y-56858169D01*
X54502051Y-56858165D01*
X54470807Y-56782735D01*
X54426635Y-56676092D01*
X54426628Y-56676079D01*
X54317139Y-56512218D01*
X54317136Y-56512214D01*
X54177785Y-56372863D01*
X54177781Y-56372860D01*
X54013920Y-56263371D01*
X54013907Y-56263364D01*
X53831839Y-56187950D01*
X53831829Y-56187947D01*
X53638543Y-56149500D01*
X53638541Y-56149500D01*
X52441459Y-56149500D01*
X52441457Y-56149500D01*
X52248170Y-56187947D01*
X52248160Y-56187950D01*
X52066092Y-56263364D01*
X52066079Y-56263371D01*
X51902218Y-56372860D01*
X51902214Y-56372863D01*
X51762863Y-56512214D01*
X51762860Y-56512218D01*
X51653371Y-56676079D01*
X51653364Y-56676092D01*
X51577950Y-56858160D01*
X51577947Y-56858170D01*
X51539500Y-57051456D01*
X51539500Y-57051459D01*
X51539500Y-57248541D01*
X51539500Y-57248543D01*
X51539499Y-57248543D01*
X50477778Y-57248543D01*
X48896819Y-55667584D01*
X48863334Y-55606261D01*
X48860500Y-55579903D01*
X48860500Y-54708543D01*
X51539499Y-54708543D01*
X51577947Y-54901829D01*
X51577950Y-54901839D01*
X51653364Y-55083907D01*
X51653371Y-55083920D01*
X51762860Y-55247781D01*
X51762863Y-55247785D01*
X51902214Y-55387136D01*
X51902218Y-55387139D01*
X52066079Y-55496628D01*
X52066092Y-55496635D01*
X52248160Y-55572049D01*
X52248165Y-55572051D01*
X52248169Y-55572051D01*
X52248170Y-55572052D01*
X52441456Y-55610500D01*
X52441459Y-55610500D01*
X53638543Y-55610500D01*
X53768582Y-55584632D01*
X53831835Y-55572051D01*
X54013914Y-55496632D01*
X54177782Y-55387139D01*
X54317139Y-55247782D01*
X54426632Y-55083914D01*
X54502051Y-54901835D01*
X54527120Y-54775806D01*
X54534245Y-54739986D01*
X59760001Y-54739986D01*
X59770494Y-54842697D01*
X59825641Y-55009119D01*
X59825643Y-55009124D01*
X59917684Y-55158345D01*
X60041654Y-55282315D01*
X60190875Y-55374356D01*
X60190880Y-55374358D01*
X60357302Y-55429505D01*
X60357309Y-55429506D01*
X60460019Y-55439999D01*
X60709999Y-55439999D01*
X61210000Y-55439999D01*
X61459972Y-55439999D01*
X61459986Y-55439998D01*
X61562697Y-55429505D01*
X61729119Y-55374358D01*
X61729124Y-55374356D01*
X61878345Y-55282315D01*
X61988925Y-55171735D01*
X69959100Y-55171735D01*
X69959100Y-56588270D01*
X69959101Y-56588276D01*
X69965508Y-56647883D01*
X70015802Y-56782728D01*
X70015806Y-56782735D01*
X70102052Y-56897944D01*
X70102055Y-56897947D01*
X70217264Y-56984193D01*
X70217271Y-56984197D01*
X70352117Y-57034491D01*
X70352116Y-57034491D01*
X70359044Y-57035235D01*
X70411727Y-57040900D01*
X71828272Y-57040899D01*
X71887883Y-57034491D01*
X72022731Y-56984196D01*
X72137946Y-56897946D01*
X72224196Y-56782731D01*
X72274491Y-56647883D01*
X72280900Y-56588273D01*
X72280899Y-55171728D01*
X72274491Y-55112117D01*
X72263974Y-55083920D01*
X72224197Y-54977271D01*
X72224193Y-54977264D01*
X72137947Y-54862055D01*
X72137944Y-54862052D01*
X72022735Y-54775806D01*
X72022728Y-54775802D01*
X71887882Y-54725508D01*
X71887883Y-54725508D01*
X71828283Y-54719101D01*
X71828281Y-54719100D01*
X71828273Y-54719100D01*
X71828264Y-54719100D01*
X70411729Y-54719100D01*
X70411723Y-54719101D01*
X70352116Y-54725508D01*
X70217271Y-54775802D01*
X70217264Y-54775806D01*
X70102055Y-54862052D01*
X70102052Y-54862055D01*
X70015806Y-54977264D01*
X70015802Y-54977271D01*
X69965508Y-55112117D01*
X69959101Y-55171716D01*
X69959101Y-55171723D01*
X69959100Y-55171735D01*
X61988925Y-55171735D01*
X62002315Y-55158345D01*
X62094356Y-55009124D01*
X62094358Y-55009119D01*
X62149505Y-54842697D01*
X62149506Y-54842690D01*
X62159999Y-54739986D01*
X62160000Y-54739973D01*
X62160000Y-54590000D01*
X61210000Y-54590000D01*
X61210000Y-55439999D01*
X60709999Y-55439999D01*
X60710000Y-55439998D01*
X60710000Y-54590000D01*
X59760001Y-54590000D01*
X59760001Y-54739986D01*
X54534245Y-54739986D01*
X54540500Y-54708543D01*
X54540500Y-54511456D01*
X54502052Y-54318170D01*
X54502051Y-54318169D01*
X54502051Y-54318165D01*
X54470807Y-54242735D01*
X54426635Y-54136092D01*
X54426628Y-54136079D01*
X54317139Y-53972218D01*
X54317136Y-53972214D01*
X54177785Y-53832863D01*
X54177781Y-53832860D01*
X54013920Y-53723371D01*
X54013907Y-53723364D01*
X53831839Y-53647950D01*
X53831829Y-53647947D01*
X53638543Y-53609500D01*
X53638541Y-53609500D01*
X52441459Y-53609500D01*
X52441457Y-53609500D01*
X52248170Y-53647947D01*
X52248160Y-53647950D01*
X52066092Y-53723364D01*
X52066079Y-53723371D01*
X51902218Y-53832860D01*
X51902214Y-53832863D01*
X51762863Y-53972214D01*
X51762860Y-53972218D01*
X51653371Y-54136079D01*
X51653364Y-54136092D01*
X51577950Y-54318160D01*
X51577947Y-54318170D01*
X51539500Y-54511456D01*
X51539500Y-54511459D01*
X51539500Y-54708541D01*
X51539500Y-54708543D01*
X51539499Y-54708543D01*
X48860500Y-54708543D01*
X48860500Y-52159060D01*
X48860501Y-52159047D01*
X48860501Y-51990944D01*
X48850177Y-51952416D01*
X48819577Y-51838216D01*
X48784904Y-51778160D01*
X48740524Y-51701290D01*
X48740518Y-51701282D01*
X34632999Y-37593763D01*
X34599514Y-37532440D01*
X34604498Y-37462748D01*
X34617571Y-37437202D01*
X34706632Y-37303914D01*
X34775630Y-37137335D01*
X34819470Y-37082932D01*
X34885764Y-37060867D01*
X34953464Y-37078146D01*
X34977872Y-37097107D01*
X49215139Y-51334374D01*
X49215149Y-51334385D01*
X49219479Y-51338715D01*
X49219480Y-51338716D01*
X49331284Y-51450520D01*
X49331286Y-51450521D01*
X49331290Y-51450524D01*
X49394550Y-51487047D01*
X49394554Y-51487048D01*
X49394555Y-51487049D01*
X49431385Y-51508313D01*
X49468212Y-51529576D01*
X49468214Y-51529576D01*
X49468215Y-51529577D01*
X49620942Y-51570500D01*
X49620943Y-51570500D01*
X51478387Y-51570500D01*
X51545426Y-51590185D01*
X51591181Y-51642989D01*
X51601125Y-51712147D01*
X51592949Y-51741951D01*
X51577949Y-51778165D01*
X51577947Y-51778170D01*
X51539500Y-51971456D01*
X51539500Y-51971459D01*
X51539500Y-52168541D01*
X51539500Y-52168543D01*
X51539499Y-52168543D01*
X51577947Y-52361829D01*
X51577950Y-52361839D01*
X51653364Y-52543907D01*
X51653371Y-52543920D01*
X51762860Y-52707781D01*
X51762863Y-52707785D01*
X51902214Y-52847136D01*
X51902218Y-52847139D01*
X52066079Y-52956628D01*
X52066092Y-52956635D01*
X52248160Y-53032049D01*
X52248165Y-53032051D01*
X52248169Y-53032051D01*
X52248170Y-53032052D01*
X52441456Y-53070500D01*
X52441459Y-53070500D01*
X53638543Y-53070500D01*
X53768582Y-53044632D01*
X53831835Y-53032051D01*
X54013914Y-52956632D01*
X54177782Y-52847139D01*
X54317139Y-52707782D01*
X54426632Y-52543914D01*
X54502051Y-52361835D01*
X54527120Y-52235806D01*
X54540500Y-52168543D01*
X54540500Y-51971456D01*
X54502052Y-51778170D01*
X54502051Y-51778169D01*
X54502051Y-51778165D01*
X54487051Y-51741951D01*
X54479584Y-51672482D01*
X54510859Y-51610003D01*
X54570949Y-51574351D01*
X54601613Y-51570500D01*
X59289903Y-51570500D01*
X59356942Y-51590185D01*
X59377584Y-51606819D01*
X59723181Y-51952416D01*
X59756666Y-52013739D01*
X59759500Y-52040097D01*
X59759500Y-52740001D01*
X59759501Y-52740019D01*
X59770000Y-52842796D01*
X59770001Y-52842799D01*
X59825185Y-53009331D01*
X59825187Y-53009336D01*
X59917289Y-53158657D01*
X60011304Y-53252672D01*
X60044789Y-53313995D01*
X60039805Y-53383687D01*
X60011305Y-53428034D01*
X59917682Y-53521657D01*
X59825643Y-53670875D01*
X59825641Y-53670880D01*
X59770494Y-53837302D01*
X59770493Y-53837309D01*
X59760000Y-53940013D01*
X59760000Y-54090000D01*
X62159999Y-54090000D01*
X62159999Y-53940028D01*
X62159998Y-53940013D01*
X62149505Y-53837302D01*
X62094358Y-53670880D01*
X62094356Y-53670875D01*
X62002315Y-53521654D01*
X61908695Y-53428034D01*
X61875210Y-53366711D01*
X61880194Y-53297019D01*
X61908691Y-53252676D01*
X62002712Y-53158656D01*
X62094814Y-53009334D01*
X62104247Y-52980864D01*
X62144016Y-52923421D01*
X62184363Y-52902890D01*
X62184279Y-52902686D01*
X62186892Y-52901603D01*
X62189863Y-52900091D01*
X62191785Y-52899577D01*
X62241904Y-52870639D01*
X62328716Y-52820520D01*
X62440520Y-52708716D01*
X62440520Y-52708714D01*
X62450728Y-52698507D01*
X62450729Y-52698504D01*
X62517498Y-52631735D01*
X67419100Y-52631735D01*
X67419100Y-54048270D01*
X67419101Y-54048276D01*
X67425508Y-54107883D01*
X67475802Y-54242728D01*
X67475806Y-54242735D01*
X67562052Y-54357944D01*
X67562055Y-54357947D01*
X67677264Y-54444193D01*
X67677271Y-54444197D01*
X67812117Y-54494491D01*
X67812116Y-54494491D01*
X67819044Y-54495235D01*
X67871727Y-54500900D01*
X69288272Y-54500899D01*
X69347883Y-54494491D01*
X69482731Y-54444196D01*
X69597946Y-54357946D01*
X69684196Y-54242731D01*
X69734491Y-54107883D01*
X69740900Y-54048273D01*
X69740899Y-52631728D01*
X69734491Y-52572117D01*
X69723974Y-52543920D01*
X69684197Y-52437271D01*
X69684193Y-52437264D01*
X69597947Y-52322055D01*
X69597944Y-52322052D01*
X69482735Y-52235806D01*
X69482728Y-52235802D01*
X69347882Y-52185508D01*
X69347883Y-52185508D01*
X69288283Y-52179101D01*
X69288281Y-52179100D01*
X69288273Y-52179100D01*
X69288264Y-52179100D01*
X67871729Y-52179100D01*
X67871723Y-52179101D01*
X67812116Y-52185508D01*
X67677271Y-52235802D01*
X67677264Y-52235806D01*
X67562055Y-52322052D01*
X67562052Y-52322055D01*
X67475806Y-52437264D01*
X67475802Y-52437271D01*
X67425508Y-52572117D01*
X67419101Y-52631716D01*
X67419101Y-52631723D01*
X67419100Y-52631735D01*
X62517498Y-52631735D01*
X63712416Y-51436819D01*
X63773739Y-51403334D01*
X63800097Y-51400500D01*
X70057003Y-51400500D01*
X70124042Y-51420185D01*
X70155953Y-51449769D01*
X70258409Y-51585444D01*
X70258412Y-51585446D01*
X70258413Y-51585448D01*
X70258414Y-51585449D01*
X70417402Y-51730385D01*
X70417404Y-51730386D01*
X70417405Y-51730387D01*
X70600326Y-51843647D01*
X70800944Y-51921367D01*
X71012427Y-51960900D01*
X71012429Y-51960900D01*
X71227571Y-51960900D01*
X71227573Y-51960900D01*
X71439056Y-51921367D01*
X71639674Y-51843647D01*
X71822595Y-51730387D01*
X71981591Y-51585444D01*
X72111245Y-51413753D01*
X72207144Y-51221162D01*
X72266022Y-51014229D01*
X72285873Y-50800000D01*
X72283482Y-50774202D01*
X72266022Y-50585771D01*
X72207144Y-50378838D01*
X72202494Y-50369500D01*
X72111248Y-50186253D01*
X72111247Y-50186252D01*
X72111245Y-50186247D01*
X71981591Y-50014556D01*
X71981586Y-50014551D01*
X71981585Y-50014550D01*
X71822597Y-49869614D01*
X71745421Y-49821829D01*
X71639674Y-49756353D01*
X71439056Y-49678633D01*
X71227573Y-49639100D01*
X71012427Y-49639100D01*
X70800944Y-49678633D01*
X70674075Y-49727782D01*
X70600328Y-49756352D01*
X70600327Y-49756352D01*
X70417402Y-49869614D01*
X70258414Y-50014550D01*
X70258413Y-50014551D01*
X70258409Y-50014555D01*
X70258409Y-50014556D01*
X70155954Y-50150228D01*
X70099849Y-50191863D01*
X70057003Y-50199500D01*
X63586669Y-50199500D01*
X63586653Y-50199499D01*
X63579057Y-50199499D01*
X63420943Y-50199499D01*
X63315126Y-50227853D01*
X63268214Y-50240423D01*
X63248758Y-50251657D01*
X63248755Y-50251658D01*
X63131290Y-50319475D01*
X63131282Y-50319481D01*
X62053747Y-51397017D01*
X61992424Y-51430502D01*
X61922732Y-51425518D01*
X61884809Y-51401145D01*
X61884319Y-51401766D01*
X61878658Y-51397290D01*
X61878656Y-51397288D01*
X61729334Y-51305186D01*
X61562797Y-51250001D01*
X61562795Y-51250000D01*
X61460016Y-51239500D01*
X61460009Y-51239500D01*
X60760098Y-51239500D01*
X60693059Y-51219815D01*
X60672417Y-51203181D01*
X60077590Y-50608355D01*
X60077588Y-50608352D01*
X59958717Y-50489481D01*
X59958709Y-50489475D01*
X59857918Y-50431284D01*
X59857916Y-50431283D01*
X59821790Y-50410425D01*
X59821789Y-50410424D01*
X59809263Y-50407067D01*
X59669057Y-50369499D01*
X59510943Y-50369499D01*
X59503347Y-50369499D01*
X59503331Y-50369500D01*
X54413770Y-50369500D01*
X54346731Y-50349815D01*
X54300976Y-50297011D01*
X54291032Y-50227853D01*
X54314922Y-50173626D01*
X54313755Y-50172847D01*
X54426628Y-50003920D01*
X54426628Y-50003919D01*
X54426632Y-50003914D01*
X54502051Y-49821835D01*
X54540500Y-49628541D01*
X54540500Y-49431459D01*
X54540500Y-49431456D01*
X54502052Y-49238170D01*
X54502051Y-49238169D01*
X54502051Y-49238165D01*
X54502049Y-49238160D01*
X54426635Y-49056092D01*
X54426628Y-49056079D01*
X54317139Y-48892218D01*
X54317136Y-48892214D01*
X54177785Y-48752863D01*
X54177781Y-48752860D01*
X54013920Y-48643371D01*
X54013907Y-48643364D01*
X53831839Y-48567950D01*
X53831829Y-48567947D01*
X53638543Y-48529500D01*
X53638541Y-48529500D01*
X52441459Y-48529500D01*
X52441457Y-48529500D01*
X52248170Y-48567947D01*
X52248160Y-48567950D01*
X52066092Y-48643364D01*
X52066079Y-48643371D01*
X51902218Y-48752860D01*
X51902214Y-48752863D01*
X51762863Y-48892214D01*
X51762860Y-48892218D01*
X51653371Y-49056079D01*
X51653364Y-49056092D01*
X51577950Y-49238160D01*
X51577947Y-49238170D01*
X51539500Y-49431456D01*
X51539500Y-49431459D01*
X51539500Y-49628541D01*
X51539500Y-49628543D01*
X51539499Y-49628543D01*
X51577947Y-49821829D01*
X51577950Y-49821839D01*
X51653364Y-50003907D01*
X51653371Y-50003920D01*
X51766245Y-50172847D01*
X51764993Y-50173683D01*
X51789397Y-50231153D01*
X51777601Y-50300020D01*
X51730446Y-50351577D01*
X51666230Y-50369500D01*
X50000097Y-50369500D01*
X49933058Y-50349815D01*
X49912416Y-50333181D01*
X46667778Y-47088543D01*
X51539499Y-47088543D01*
X51577947Y-47281829D01*
X51577950Y-47281839D01*
X51653364Y-47463907D01*
X51653371Y-47463920D01*
X51762860Y-47627781D01*
X51762863Y-47627785D01*
X51902214Y-47767136D01*
X51902218Y-47767139D01*
X52066079Y-47876628D01*
X52066092Y-47876635D01*
X52248160Y-47952049D01*
X52248165Y-47952051D01*
X52248169Y-47952051D01*
X52248170Y-47952052D01*
X52441456Y-47990500D01*
X52441459Y-47990500D01*
X53638543Y-47990500D01*
X53768582Y-47964632D01*
X53831835Y-47952051D01*
X54013914Y-47876632D01*
X54177782Y-47767139D01*
X54317139Y-47627782D01*
X54426632Y-47463914D01*
X54502051Y-47281835D01*
X54540500Y-47088541D01*
X54540500Y-46891459D01*
X54540500Y-46891456D01*
X54502052Y-46698170D01*
X54502051Y-46698169D01*
X54502051Y-46698165D01*
X54502049Y-46698160D01*
X54426635Y-46516092D01*
X54426628Y-46516079D01*
X54317139Y-46352218D01*
X54317136Y-46352214D01*
X54177785Y-46212863D01*
X54177781Y-46212860D01*
X54013920Y-46103371D01*
X54013907Y-46103364D01*
X53831839Y-46027950D01*
X53831829Y-46027947D01*
X53638543Y-45989500D01*
X53638541Y-45989500D01*
X52441459Y-45989500D01*
X52441457Y-45989500D01*
X52248170Y-46027947D01*
X52248160Y-46027950D01*
X52066092Y-46103364D01*
X52066079Y-46103371D01*
X51902218Y-46212860D01*
X51902214Y-46212863D01*
X51762863Y-46352214D01*
X51762860Y-46352218D01*
X51653371Y-46516079D01*
X51653364Y-46516092D01*
X51577950Y-46698160D01*
X51577947Y-46698170D01*
X51539500Y-46891456D01*
X51539500Y-46891459D01*
X51539500Y-47088541D01*
X51539500Y-47088543D01*
X51539499Y-47088543D01*
X46667778Y-47088543D01*
X44127778Y-44548543D01*
X51539499Y-44548543D01*
X51577947Y-44741829D01*
X51577950Y-44741839D01*
X51653364Y-44923907D01*
X51653371Y-44923920D01*
X51762860Y-45087781D01*
X51762863Y-45087785D01*
X51902214Y-45227136D01*
X51902218Y-45227139D01*
X52066079Y-45336628D01*
X52066092Y-45336635D01*
X52248160Y-45412049D01*
X52248165Y-45412051D01*
X52248169Y-45412051D01*
X52248170Y-45412052D01*
X52441456Y-45450500D01*
X52441459Y-45450500D01*
X53638543Y-45450500D01*
X53768582Y-45424632D01*
X53831835Y-45412051D01*
X54013914Y-45336632D01*
X54177782Y-45227139D01*
X54317139Y-45087782D01*
X54426632Y-44923914D01*
X54502051Y-44741835D01*
X54540500Y-44548541D01*
X54540500Y-44351459D01*
X54540500Y-44351456D01*
X54502052Y-44158170D01*
X54502051Y-44158169D01*
X54502051Y-44158165D01*
X54470807Y-44082735D01*
X54426635Y-43976092D01*
X54426628Y-43976079D01*
X54317139Y-43812218D01*
X54317136Y-43812214D01*
X54177785Y-43672863D01*
X54177781Y-43672860D01*
X54013920Y-43563371D01*
X54013907Y-43563364D01*
X53831839Y-43487950D01*
X53831829Y-43487947D01*
X53638543Y-43449500D01*
X53638541Y-43449500D01*
X52441459Y-43449500D01*
X52441457Y-43449500D01*
X52248170Y-43487947D01*
X52248160Y-43487950D01*
X52066092Y-43563364D01*
X52066079Y-43563371D01*
X51902218Y-43672860D01*
X51902214Y-43672863D01*
X51762863Y-43812214D01*
X51762860Y-43812218D01*
X51653371Y-43976079D01*
X51653364Y-43976092D01*
X51577950Y-44158160D01*
X51577947Y-44158170D01*
X51539500Y-44351456D01*
X51539500Y-44351459D01*
X51539500Y-44548541D01*
X51539500Y-44548543D01*
X51539499Y-44548543D01*
X44127778Y-44548543D01*
X41587778Y-42008543D01*
X51539499Y-42008543D01*
X51577947Y-42201829D01*
X51577950Y-42201839D01*
X51653364Y-42383907D01*
X51653371Y-42383920D01*
X51762860Y-42547781D01*
X51762863Y-42547785D01*
X51902214Y-42687136D01*
X51902218Y-42687139D01*
X52066079Y-42796628D01*
X52066092Y-42796635D01*
X52248160Y-42872049D01*
X52248165Y-42872051D01*
X52248169Y-42872051D01*
X52248170Y-42872052D01*
X52441456Y-42910500D01*
X52441459Y-42910500D01*
X53638543Y-42910500D01*
X53768582Y-42884632D01*
X53831835Y-42872051D01*
X54013914Y-42796632D01*
X54177782Y-42687139D01*
X54317139Y-42547782D01*
X54367952Y-42471735D01*
X69959100Y-42471735D01*
X69959100Y-43888270D01*
X69959101Y-43888276D01*
X69965508Y-43947883D01*
X70015802Y-44082728D01*
X70015806Y-44082735D01*
X70102052Y-44197944D01*
X70102055Y-44197947D01*
X70217264Y-44284193D01*
X70217271Y-44284197D01*
X70352117Y-44334491D01*
X70352116Y-44334491D01*
X70359044Y-44335235D01*
X70411727Y-44340900D01*
X71828272Y-44340899D01*
X71887883Y-44334491D01*
X72022731Y-44284196D01*
X72137946Y-44197946D01*
X72224196Y-44082731D01*
X72274491Y-43947883D01*
X72280900Y-43888273D01*
X72280899Y-42471728D01*
X72274491Y-42412117D01*
X72263974Y-42383920D01*
X72224197Y-42277271D01*
X72224193Y-42277264D01*
X72137947Y-42162055D01*
X72137944Y-42162052D01*
X72022735Y-42075806D01*
X72022728Y-42075802D01*
X71887882Y-42025508D01*
X71887883Y-42025508D01*
X71828283Y-42019101D01*
X71828281Y-42019100D01*
X71828273Y-42019100D01*
X71828264Y-42019100D01*
X70411729Y-42019100D01*
X70411723Y-42019101D01*
X70352116Y-42025508D01*
X70217271Y-42075802D01*
X70217264Y-42075806D01*
X70102055Y-42162052D01*
X70102052Y-42162055D01*
X70015806Y-42277264D01*
X70015802Y-42277271D01*
X69965508Y-42412117D01*
X69959101Y-42471716D01*
X69959101Y-42471723D01*
X69959100Y-42471735D01*
X54367952Y-42471735D01*
X54426632Y-42383914D01*
X54502051Y-42201835D01*
X54527120Y-42075806D01*
X54540500Y-42008543D01*
X54540500Y-41811456D01*
X54502052Y-41618170D01*
X54502051Y-41618169D01*
X54502051Y-41618165D01*
X54470807Y-41542735D01*
X54426635Y-41436092D01*
X54426628Y-41436079D01*
X54317139Y-41272218D01*
X54317136Y-41272214D01*
X54177785Y-41132863D01*
X54177781Y-41132860D01*
X54013920Y-41023371D01*
X54013907Y-41023364D01*
X53831839Y-40947950D01*
X53831829Y-40947947D01*
X53638543Y-40909500D01*
X53638541Y-40909500D01*
X52441459Y-40909500D01*
X52441457Y-40909500D01*
X52248170Y-40947947D01*
X52248160Y-40947950D01*
X52066092Y-41023364D01*
X52066079Y-41023371D01*
X51902218Y-41132860D01*
X51902214Y-41132863D01*
X51762863Y-41272214D01*
X51762860Y-41272218D01*
X51653371Y-41436079D01*
X51653364Y-41436092D01*
X51577950Y-41618160D01*
X51577947Y-41618170D01*
X51539500Y-41811456D01*
X51539500Y-41811459D01*
X51539500Y-42008541D01*
X51539500Y-42008543D01*
X51539499Y-42008543D01*
X41587778Y-42008543D01*
X40079221Y-40499986D01*
X59760001Y-40499986D01*
X59770494Y-40602697D01*
X59825641Y-40769119D01*
X59825643Y-40769124D01*
X59917684Y-40918345D01*
X60041654Y-41042315D01*
X60190875Y-41134356D01*
X60190880Y-41134358D01*
X60357302Y-41189505D01*
X60357309Y-41189506D01*
X60460019Y-41199999D01*
X60709999Y-41199999D01*
X61210000Y-41199999D01*
X61459972Y-41199999D01*
X61459986Y-41199998D01*
X61562697Y-41189505D01*
X61729119Y-41134358D01*
X61729124Y-41134356D01*
X61878345Y-41042315D01*
X62002315Y-40918345D01*
X62094356Y-40769124D01*
X62094358Y-40769119D01*
X62149505Y-40602697D01*
X62149506Y-40602690D01*
X62159999Y-40499986D01*
X62160000Y-40499973D01*
X62160000Y-40350000D01*
X61210000Y-40350000D01*
X61210000Y-41199999D01*
X60709999Y-41199999D01*
X60710000Y-41199998D01*
X60710000Y-40350000D01*
X59760001Y-40350000D01*
X59760001Y-40499986D01*
X40079221Y-40499986D01*
X34632999Y-35053764D01*
X34599514Y-34992441D01*
X34604498Y-34922749D01*
X34617576Y-34897195D01*
X34706632Y-34763914D01*
X34775630Y-34597335D01*
X34819470Y-34542932D01*
X34885764Y-34520867D01*
X34953464Y-34538146D01*
X34977872Y-34557107D01*
X38885139Y-38464374D01*
X38885149Y-38464385D01*
X38889479Y-38468715D01*
X38889480Y-38468716D01*
X39001284Y-38580520D01*
X39068800Y-38619500D01*
X39138215Y-38659577D01*
X39290943Y-38700500D01*
X39449057Y-38700500D01*
X51552066Y-38700500D01*
X51619105Y-38720185D01*
X51664860Y-38772989D01*
X51674804Y-38842147D01*
X51656203Y-38890690D01*
X51656241Y-38890711D01*
X51656080Y-38891011D01*
X51655169Y-38893390D01*
X51653370Y-38896081D01*
X51653364Y-38896092D01*
X51577950Y-39078160D01*
X51577947Y-39078170D01*
X51539500Y-39271456D01*
X51539500Y-39271459D01*
X51539500Y-39468541D01*
X51539500Y-39468543D01*
X51539499Y-39468543D01*
X51577947Y-39661829D01*
X51577950Y-39661839D01*
X51653364Y-39843907D01*
X51653371Y-39843920D01*
X51762860Y-40007781D01*
X51762863Y-40007785D01*
X51902214Y-40147136D01*
X51902218Y-40147139D01*
X52066079Y-40256628D01*
X52066092Y-40256635D01*
X52248160Y-40332049D01*
X52248165Y-40332051D01*
X52248169Y-40332051D01*
X52248170Y-40332052D01*
X52441456Y-40370500D01*
X52441459Y-40370500D01*
X53638543Y-40370500D01*
X53768582Y-40344632D01*
X53831835Y-40332051D01*
X54013914Y-40256632D01*
X54177782Y-40147139D01*
X54317139Y-40007782D01*
X54367952Y-39931735D01*
X67419100Y-39931735D01*
X67419100Y-41348270D01*
X67419101Y-41348276D01*
X67425508Y-41407883D01*
X67475802Y-41542728D01*
X67475806Y-41542735D01*
X67562052Y-41657944D01*
X67562055Y-41657947D01*
X67677264Y-41744193D01*
X67677271Y-41744197D01*
X67812117Y-41794491D01*
X67812116Y-41794491D01*
X67819044Y-41795235D01*
X67871727Y-41800900D01*
X69288272Y-41800899D01*
X69347883Y-41794491D01*
X69482731Y-41744196D01*
X69597946Y-41657946D01*
X69684196Y-41542731D01*
X69734491Y-41407883D01*
X69740900Y-41348273D01*
X69740899Y-39931728D01*
X69734491Y-39872117D01*
X69723974Y-39843920D01*
X69684197Y-39737271D01*
X69684193Y-39737264D01*
X69597947Y-39622055D01*
X69597944Y-39622052D01*
X69482735Y-39535806D01*
X69482728Y-39535802D01*
X69347882Y-39485508D01*
X69347883Y-39485508D01*
X69288283Y-39479101D01*
X69288281Y-39479100D01*
X69288273Y-39479100D01*
X69288264Y-39479100D01*
X67871729Y-39479100D01*
X67871723Y-39479101D01*
X67812116Y-39485508D01*
X67677271Y-39535802D01*
X67677264Y-39535806D01*
X67562055Y-39622052D01*
X67562052Y-39622055D01*
X67475806Y-39737264D01*
X67475802Y-39737271D01*
X67425508Y-39872117D01*
X67421345Y-39910842D01*
X67419101Y-39931723D01*
X67419100Y-39931735D01*
X54367952Y-39931735D01*
X54426632Y-39843914D01*
X54502051Y-39661835D01*
X54527120Y-39535806D01*
X54540500Y-39468543D01*
X54540500Y-39271456D01*
X54502052Y-39078170D01*
X54502051Y-39078169D01*
X54502051Y-39078165D01*
X54474923Y-39012671D01*
X54426635Y-38896092D01*
X54426629Y-38896081D01*
X54424831Y-38893390D01*
X54424322Y-38891764D01*
X54423759Y-38890711D01*
X54423958Y-38890604D01*
X54403954Y-38826713D01*
X54422439Y-38759333D01*
X54474418Y-38712643D01*
X54527934Y-38700500D01*
X59714092Y-38700500D01*
X59781131Y-38720185D01*
X59819636Y-38764271D01*
X59821395Y-38763187D01*
X59825185Y-38769332D01*
X59825186Y-38769334D01*
X59913515Y-38912539D01*
X59917289Y-38918657D01*
X60011304Y-39012672D01*
X60044789Y-39073995D01*
X60039805Y-39143687D01*
X60011305Y-39188034D01*
X59917682Y-39281657D01*
X59825643Y-39430875D01*
X59825641Y-39430880D01*
X59770494Y-39597302D01*
X59770493Y-39597309D01*
X59760000Y-39700013D01*
X59760000Y-39850000D01*
X62159999Y-39850000D01*
X62159999Y-39700028D01*
X62159998Y-39700013D01*
X62149505Y-39597302D01*
X62094358Y-39430880D01*
X62094356Y-39430875D01*
X62002315Y-39281654D01*
X61908695Y-39188034D01*
X61875210Y-39126711D01*
X61880194Y-39057019D01*
X61908691Y-39012676D01*
X62002712Y-38918656D01*
X62094814Y-38769334D01*
X62094814Y-38769332D01*
X62098605Y-38763187D01*
X62100399Y-38764293D01*
X62139687Y-38719663D01*
X62205908Y-38700500D01*
X70057003Y-38700500D01*
X70124042Y-38720185D01*
X70155953Y-38749769D01*
X70258409Y-38885444D01*
X70258412Y-38885446D01*
X70258413Y-38885448D01*
X70258414Y-38885449D01*
X70417402Y-39030385D01*
X70417404Y-39030386D01*
X70417405Y-39030387D01*
X70600326Y-39143647D01*
X70800944Y-39221367D01*
X71012427Y-39260900D01*
X71012429Y-39260900D01*
X71227571Y-39260900D01*
X71227573Y-39260900D01*
X71439056Y-39221367D01*
X71639674Y-39143647D01*
X71822595Y-39030387D01*
X71981591Y-38885444D01*
X72111245Y-38713753D01*
X72207144Y-38521162D01*
X72266022Y-38314229D01*
X72285873Y-38100000D01*
X72266022Y-37885771D01*
X72207144Y-37678838D01*
X72134246Y-37532440D01*
X72111248Y-37486253D01*
X72111247Y-37486252D01*
X72111245Y-37486247D01*
X71981591Y-37314556D01*
X71981586Y-37314551D01*
X71981585Y-37314550D01*
X71822597Y-37169614D01*
X71745421Y-37121829D01*
X71639674Y-37056353D01*
X71439056Y-36978633D01*
X71227573Y-36939100D01*
X71012427Y-36939100D01*
X70800944Y-36978633D01*
X70747078Y-36999501D01*
X70600328Y-37056352D01*
X70600327Y-37056352D01*
X70417402Y-37169614D01*
X70258414Y-37314550D01*
X70258413Y-37314551D01*
X70258409Y-37314555D01*
X70258409Y-37314556D01*
X70155954Y-37450228D01*
X70099849Y-37491863D01*
X70057003Y-37499500D01*
X62205908Y-37499500D01*
X62138869Y-37479815D01*
X62100363Y-37435728D01*
X62098605Y-37436813D01*
X62094814Y-37430666D01*
X62002712Y-37281344D01*
X61878656Y-37157288D01*
X61785888Y-37100069D01*
X61729336Y-37065187D01*
X61729331Y-37065185D01*
X61702678Y-37056353D01*
X61562797Y-37010001D01*
X61562795Y-37010000D01*
X61460010Y-36999500D01*
X60459998Y-36999500D01*
X60459980Y-36999501D01*
X60357203Y-37010000D01*
X60357200Y-37010001D01*
X60190668Y-37065185D01*
X60190663Y-37065187D01*
X60041342Y-37157289D01*
X59917289Y-37281342D01*
X59885784Y-37332419D01*
X59827441Y-37427011D01*
X59821395Y-37436813D01*
X59819600Y-37435706D01*
X59780313Y-37480337D01*
X59714092Y-37499500D01*
X54527934Y-37499500D01*
X54460895Y-37479815D01*
X54415140Y-37427011D01*
X54405196Y-37357853D01*
X54423796Y-37309309D01*
X54423759Y-37309289D01*
X54423919Y-37308988D01*
X54424831Y-37306610D01*
X54426629Y-37303918D01*
X54426632Y-37303914D01*
X54502051Y-37121835D01*
X54518268Y-37040309D01*
X54540500Y-36928543D01*
X54540500Y-36731456D01*
X54502052Y-36538170D01*
X54502051Y-36538169D01*
X54502051Y-36538165D01*
X54458818Y-36433790D01*
X54426635Y-36356092D01*
X54426628Y-36356079D01*
X54317139Y-36192218D01*
X54317136Y-36192214D01*
X54177785Y-36052863D01*
X54177781Y-36052860D01*
X54013920Y-35943371D01*
X54013907Y-35943364D01*
X53831839Y-35867950D01*
X53831829Y-35867947D01*
X53638543Y-35829500D01*
X53638541Y-35829500D01*
X52441459Y-35829500D01*
X52441457Y-35829500D01*
X52248170Y-35867947D01*
X52248160Y-35867950D01*
X52066092Y-35943364D01*
X52066079Y-35943371D01*
X51902218Y-36052860D01*
X51902214Y-36052863D01*
X51762863Y-36192214D01*
X51762860Y-36192218D01*
X51653371Y-36356079D01*
X51653364Y-36356092D01*
X51577950Y-36538160D01*
X51577947Y-36538170D01*
X51539500Y-36731456D01*
X51539500Y-36731459D01*
X51539500Y-36928541D01*
X51539500Y-36928543D01*
X51539499Y-36928543D01*
X51577947Y-37121829D01*
X51577950Y-37121839D01*
X51653364Y-37303907D01*
X51653370Y-37303918D01*
X51655169Y-37306610D01*
X51655677Y-37308235D01*
X51656241Y-37309289D01*
X51656041Y-37309395D01*
X51676046Y-37373287D01*
X51657561Y-37440667D01*
X51605582Y-37487357D01*
X51552066Y-37499500D01*
X39670097Y-37499500D01*
X39603058Y-37479815D01*
X39582416Y-37463181D01*
X36507778Y-34388543D01*
X51539499Y-34388543D01*
X51577947Y-34581829D01*
X51577950Y-34581839D01*
X51653364Y-34763907D01*
X51653371Y-34763920D01*
X51762860Y-34927781D01*
X51762863Y-34927785D01*
X51902214Y-35067136D01*
X51902218Y-35067139D01*
X52066079Y-35176628D01*
X52066092Y-35176635D01*
X52248160Y-35252049D01*
X52248165Y-35252051D01*
X52248169Y-35252051D01*
X52248170Y-35252052D01*
X52441456Y-35290500D01*
X52441459Y-35290500D01*
X53638543Y-35290500D01*
X53768582Y-35264632D01*
X53831835Y-35252051D01*
X54013914Y-35176632D01*
X54177782Y-35067139D01*
X54317139Y-34927782D01*
X54426632Y-34763914D01*
X54502051Y-34581835D01*
X54540500Y-34388541D01*
X54540500Y-34191459D01*
X54540500Y-34191456D01*
X54502052Y-33998170D01*
X54502051Y-33998166D01*
X54502051Y-33998165D01*
X54470206Y-33921284D01*
X54426635Y-33816092D01*
X54426628Y-33816079D01*
X54317139Y-33652218D01*
X54317136Y-33652214D01*
X54177785Y-33512863D01*
X54177781Y-33512860D01*
X54013920Y-33403371D01*
X54013907Y-33403364D01*
X53831839Y-33327950D01*
X53831829Y-33327947D01*
X53638543Y-33289500D01*
X53638541Y-33289500D01*
X52441459Y-33289500D01*
X52441457Y-33289500D01*
X52248170Y-33327947D01*
X52248160Y-33327950D01*
X52066092Y-33403364D01*
X52066079Y-33403371D01*
X51902218Y-33512860D01*
X51902214Y-33512863D01*
X51762863Y-33652214D01*
X51762860Y-33652218D01*
X51653371Y-33816079D01*
X51653364Y-33816092D01*
X51577950Y-33998160D01*
X51577947Y-33998170D01*
X51539500Y-34191456D01*
X51539500Y-34191459D01*
X51539500Y-34388541D01*
X51539500Y-34388543D01*
X51539499Y-34388543D01*
X36507778Y-34388543D01*
X34632999Y-32513764D01*
X34599514Y-32452441D01*
X34604498Y-32382749D01*
X34617576Y-32357195D01*
X34706632Y-32223914D01*
X34782051Y-32041835D01*
X34820500Y-31848541D01*
X34820500Y-31651459D01*
X34820500Y-31651456D01*
X34782052Y-31458170D01*
X34782051Y-31458169D01*
X34782051Y-31458165D01*
X34750807Y-31382735D01*
X34706635Y-31276092D01*
X34706628Y-31276079D01*
X34593755Y-31107153D01*
X34595006Y-31106316D01*
X34570603Y-31048847D01*
X34582399Y-30979980D01*
X34629554Y-30928423D01*
X34693770Y-30910500D01*
X51666230Y-30910500D01*
X51733269Y-30930185D01*
X51779024Y-30982989D01*
X51788968Y-31052147D01*
X51765077Y-31106373D01*
X51766245Y-31107153D01*
X51653371Y-31276079D01*
X51653364Y-31276092D01*
X51577950Y-31458160D01*
X51577947Y-31458170D01*
X51539500Y-31651456D01*
X51539500Y-31651459D01*
X51539500Y-31848541D01*
X51539500Y-31848543D01*
X51539499Y-31848543D01*
X51577947Y-32041829D01*
X51577950Y-32041839D01*
X51653364Y-32223907D01*
X51653371Y-32223920D01*
X51762860Y-32387781D01*
X51762863Y-32387785D01*
X51902214Y-32527136D01*
X51902218Y-32527139D01*
X52066079Y-32636628D01*
X52066092Y-32636635D01*
X52248160Y-32712049D01*
X52248165Y-32712051D01*
X52248169Y-32712051D01*
X52248170Y-32712052D01*
X52441456Y-32750500D01*
X52441459Y-32750500D01*
X53638543Y-32750500D01*
X53768582Y-32724632D01*
X53831835Y-32712051D01*
X54013914Y-32636632D01*
X54177782Y-32527139D01*
X54317139Y-32387782D01*
X54426632Y-32223914D01*
X54502051Y-32041835D01*
X54540500Y-31848541D01*
X54540500Y-31651459D01*
X54540500Y-31651456D01*
X54502052Y-31458170D01*
X54502051Y-31458169D01*
X54502051Y-31458165D01*
X54470807Y-31382735D01*
X54426635Y-31276092D01*
X54426628Y-31276079D01*
X54313755Y-31107153D01*
X54315006Y-31106316D01*
X54290603Y-31048847D01*
X54302399Y-30979980D01*
X54349554Y-30928423D01*
X54413770Y-30910500D01*
X58503331Y-30910500D01*
X58503347Y-30910501D01*
X58510943Y-30910501D01*
X58669054Y-30910501D01*
X58669057Y-30910501D01*
X58821785Y-30869577D01*
X58871904Y-30840639D01*
X58958716Y-30790520D01*
X59070520Y-30678716D01*
X59070520Y-30678714D01*
X59080728Y-30668507D01*
X59080730Y-30668504D01*
X59548323Y-30200910D01*
X59609642Y-30167428D01*
X59679333Y-30172412D01*
X59735267Y-30214283D01*
X59759684Y-30279748D01*
X59760000Y-30288592D01*
X59760000Y-30339970D01*
X59760001Y-30339987D01*
X59770494Y-30442697D01*
X59825641Y-30609119D01*
X59825643Y-30609124D01*
X59917684Y-30758345D01*
X60041654Y-30882315D01*
X60190875Y-30974356D01*
X60190880Y-30974358D01*
X60357302Y-31029505D01*
X60357309Y-31029506D01*
X60460019Y-31039999D01*
X60709999Y-31039999D01*
X61210000Y-31039999D01*
X61459972Y-31039999D01*
X61459986Y-31039998D01*
X61562697Y-31029505D01*
X61729119Y-30974358D01*
X61729124Y-30974356D01*
X61878345Y-30882315D01*
X62002315Y-30758345D01*
X62094356Y-30609124D01*
X62094358Y-30609119D01*
X62149505Y-30442697D01*
X62149506Y-30442690D01*
X62159999Y-30339986D01*
X62160000Y-30339973D01*
X62160000Y-30190000D01*
X61210000Y-30190000D01*
X61210000Y-31039999D01*
X60709999Y-31039999D01*
X60710000Y-31039998D01*
X60710000Y-29814000D01*
X60722410Y-29771735D01*
X69959100Y-29771735D01*
X69959100Y-31188270D01*
X69959101Y-31188276D01*
X69965508Y-31247883D01*
X70015802Y-31382728D01*
X70015806Y-31382735D01*
X70102052Y-31497944D01*
X70102055Y-31497947D01*
X70217264Y-31584193D01*
X70217271Y-31584197D01*
X70352117Y-31634491D01*
X70352116Y-31634491D01*
X70359044Y-31635235D01*
X70411727Y-31640900D01*
X71828272Y-31640899D01*
X71887883Y-31634491D01*
X72022731Y-31584196D01*
X72137946Y-31497946D01*
X72224196Y-31382731D01*
X72274491Y-31247883D01*
X72280900Y-31188273D01*
X72280899Y-29771728D01*
X72274491Y-29712117D01*
X72270421Y-29701206D01*
X72224197Y-29577271D01*
X72224193Y-29577264D01*
X72137947Y-29462055D01*
X72137944Y-29462052D01*
X72022735Y-29375806D01*
X72022728Y-29375802D01*
X71887882Y-29325508D01*
X71887883Y-29325508D01*
X71828283Y-29319101D01*
X71828281Y-29319100D01*
X71828273Y-29319100D01*
X71828264Y-29319100D01*
X70411729Y-29319100D01*
X70411723Y-29319101D01*
X70352116Y-29325508D01*
X70217271Y-29375802D01*
X70217264Y-29375806D01*
X70102055Y-29462052D01*
X70102052Y-29462055D01*
X70015806Y-29577264D01*
X70015802Y-29577271D01*
X69965508Y-29712117D01*
X69960083Y-29762580D01*
X69959101Y-29771723D01*
X69959100Y-29771735D01*
X60722410Y-29771735D01*
X60729685Y-29746961D01*
X60782489Y-29701206D01*
X60834000Y-29690000D01*
X62159999Y-29690000D01*
X62159999Y-29540028D01*
X62159998Y-29540013D01*
X62149505Y-29437302D01*
X62094358Y-29270880D01*
X62094356Y-29270875D01*
X62002315Y-29121654D01*
X61908695Y-29028034D01*
X61875210Y-28966711D01*
X61880194Y-28897019D01*
X61908691Y-28852676D01*
X62002712Y-28758656D01*
X62094814Y-28609334D01*
X62094814Y-28609332D01*
X62098605Y-28603187D01*
X62100399Y-28604293D01*
X62139687Y-28559663D01*
X62205908Y-28540500D01*
X63413331Y-28540500D01*
X63413347Y-28540501D01*
X63420943Y-28540501D01*
X63579054Y-28540501D01*
X63579057Y-28540501D01*
X63731785Y-28499577D01*
X63801200Y-28459500D01*
X63868716Y-28420520D01*
X63980520Y-28308716D01*
X63980520Y-28308714D01*
X63990724Y-28298511D01*
X63990727Y-28298506D01*
X65057499Y-27231735D01*
X67419100Y-27231735D01*
X67419100Y-28648270D01*
X67419101Y-28648276D01*
X67425508Y-28707883D01*
X67475802Y-28842728D01*
X67475806Y-28842735D01*
X67562052Y-28957944D01*
X67562055Y-28957947D01*
X67677264Y-29044193D01*
X67677271Y-29044197D01*
X67812117Y-29094491D01*
X67812116Y-29094491D01*
X67819044Y-29095235D01*
X67871727Y-29100900D01*
X69288272Y-29100899D01*
X69347883Y-29094491D01*
X69482731Y-29044196D01*
X69597946Y-28957946D01*
X69684196Y-28842731D01*
X69734491Y-28707883D01*
X69740900Y-28648273D01*
X69740899Y-27231728D01*
X69734491Y-27172117D01*
X69733701Y-27170000D01*
X69684197Y-27037271D01*
X69684193Y-27037264D01*
X69597947Y-26922055D01*
X69597944Y-26922052D01*
X69482735Y-26835806D01*
X69482728Y-26835802D01*
X69347882Y-26785508D01*
X69347883Y-26785508D01*
X69288283Y-26779101D01*
X69288281Y-26779100D01*
X69288273Y-26779100D01*
X69288264Y-26779100D01*
X67871729Y-26779100D01*
X67871723Y-26779101D01*
X67812116Y-26785508D01*
X67677271Y-26835802D01*
X67677264Y-26835806D01*
X67562055Y-26922052D01*
X67562052Y-26922055D01*
X67475806Y-27037264D01*
X67475802Y-27037271D01*
X67425508Y-27172117D01*
X67419101Y-27231716D01*
X67419101Y-27231723D01*
X67419100Y-27231735D01*
X65057499Y-27231735D01*
X66252416Y-26036819D01*
X66313739Y-26003334D01*
X66340097Y-26000500D01*
X70057003Y-26000500D01*
X70124042Y-26020185D01*
X70155953Y-26049769D01*
X70258409Y-26185444D01*
X70258412Y-26185446D01*
X70258413Y-26185448D01*
X70258414Y-26185449D01*
X70417402Y-26330385D01*
X70417404Y-26330386D01*
X70417405Y-26330387D01*
X70600326Y-26443647D01*
X70800944Y-26521367D01*
X71012427Y-26560900D01*
X71012429Y-26560900D01*
X71227571Y-26560900D01*
X71227573Y-26560900D01*
X71439056Y-26521367D01*
X71639674Y-26443647D01*
X71822595Y-26330387D01*
X71981591Y-26185444D01*
X72111245Y-26013753D01*
X72207144Y-25821162D01*
X72266022Y-25614229D01*
X72285873Y-25400000D01*
X72284748Y-25387864D01*
X72266022Y-25185771D01*
X72258809Y-25160419D01*
X72207144Y-24978838D01*
X72177587Y-24919480D01*
X72111248Y-24786253D01*
X72111247Y-24786252D01*
X72111245Y-24786247D01*
X71981591Y-24614556D01*
X71981586Y-24614551D01*
X71981585Y-24614550D01*
X71822597Y-24469614D01*
X71745421Y-24421829D01*
X71639674Y-24356353D01*
X71439056Y-24278633D01*
X71227573Y-24239100D01*
X71012427Y-24239100D01*
X70800944Y-24278633D01*
X70674075Y-24327782D01*
X70600328Y-24356352D01*
X70600327Y-24356352D01*
X70417402Y-24469614D01*
X70258414Y-24614550D01*
X70258413Y-24614551D01*
X70258409Y-24614555D01*
X70258409Y-24614556D01*
X70155954Y-24750228D01*
X70099849Y-24791863D01*
X70057003Y-24799500D01*
X65960940Y-24799500D01*
X65920019Y-24810464D01*
X65920019Y-24810465D01*
X65882751Y-24820451D01*
X65808214Y-24840423D01*
X65808209Y-24840426D01*
X65671290Y-24919475D01*
X65671282Y-24919481D01*
X65611937Y-24978827D01*
X65559480Y-25031284D01*
X65559478Y-25031286D01*
X64419795Y-26170970D01*
X63287584Y-27303181D01*
X63226261Y-27336666D01*
X63199903Y-27339500D01*
X62205908Y-27339500D01*
X62138869Y-27319815D01*
X62100363Y-27275728D01*
X62098605Y-27276813D01*
X62070801Y-27231735D01*
X62002712Y-27121344D01*
X61878656Y-26997288D01*
X61756678Y-26922052D01*
X61729336Y-26905187D01*
X61729331Y-26905185D01*
X61727862Y-26904698D01*
X61562797Y-26850001D01*
X61562795Y-26850000D01*
X61460010Y-26839500D01*
X60459998Y-26839500D01*
X60459980Y-26839501D01*
X60357203Y-26850000D01*
X60357200Y-26850001D01*
X60190668Y-26905185D01*
X60190663Y-26905187D01*
X60041342Y-26997289D01*
X59917289Y-27121342D01*
X59825187Y-27270663D01*
X59825185Y-27270668D01*
X59803316Y-27336666D01*
X59770001Y-27437203D01*
X59770001Y-27437204D01*
X59770000Y-27437204D01*
X59759500Y-27539983D01*
X59759500Y-28239902D01*
X59739815Y-28306941D01*
X59723181Y-28327583D01*
X58377584Y-29673181D01*
X58316261Y-29706666D01*
X58289903Y-29709500D01*
X54601613Y-29709500D01*
X54534574Y-29689815D01*
X54488819Y-29637011D01*
X54478875Y-29567853D01*
X54487051Y-29538049D01*
X54489009Y-29533320D01*
X54502051Y-29501835D01*
X54527120Y-29375806D01*
X54540500Y-29308543D01*
X54540500Y-29111456D01*
X54502052Y-28918170D01*
X54502051Y-28918169D01*
X54502051Y-28918165D01*
X54470807Y-28842735D01*
X54426635Y-28736092D01*
X54426628Y-28736079D01*
X54317139Y-28572218D01*
X54317136Y-28572214D01*
X54177785Y-28432863D01*
X54177777Y-28432857D01*
X54011399Y-28321687D01*
X53992608Y-28306266D01*
X43466342Y-17780000D01*
X68074709Y-17780000D01*
X68093856Y-18120959D01*
X68093858Y-18120971D01*
X68151060Y-18457637D01*
X68151062Y-18457646D01*
X68202984Y-18637870D01*
X68245601Y-18785796D01*
X68312600Y-18947546D01*
X68376287Y-19101300D01*
X68541480Y-19400196D01*
X68541483Y-19400201D01*
X68728603Y-19663920D01*
X68739096Y-19678708D01*
X68966654Y-19933346D01*
X69221292Y-20160904D01*
X69221295Y-20160906D01*
X69221296Y-20160907D01*
X69499798Y-20358516D01*
X69499803Y-20358519D01*
X69499806Y-20358520D01*
X69499808Y-20358522D01*
X69798698Y-20523712D01*
X70114204Y-20654399D01*
X70442359Y-20748939D01*
X70779036Y-20806143D01*
X71120000Y-20825291D01*
X71460964Y-20806143D01*
X71797641Y-20748939D01*
X72125796Y-20654399D01*
X72441302Y-20523712D01*
X72740192Y-20358522D01*
X72740197Y-20358518D01*
X72740201Y-20358516D01*
X72885974Y-20255084D01*
X73018708Y-20160904D01*
X73273346Y-19933346D01*
X73500904Y-19678708D01*
X73621436Y-19508834D01*
X73698516Y-19400201D01*
X73698519Y-19400196D01*
X73698522Y-19400192D01*
X73863712Y-19101302D01*
X73994399Y-18785796D01*
X74088939Y-18457641D01*
X74146143Y-18120964D01*
X74165291Y-17780000D01*
X74146143Y-17439036D01*
X74088939Y-17102359D01*
X73994399Y-16774204D01*
X73863712Y-16458698D01*
X73698522Y-16159808D01*
X73698520Y-16159806D01*
X73698519Y-16159803D01*
X73698516Y-16159798D01*
X73500907Y-15881296D01*
X73500906Y-15881295D01*
X73500904Y-15881292D01*
X73273346Y-15626654D01*
X73018708Y-15399096D01*
X73018705Y-15399094D01*
X73018703Y-15399092D01*
X72740201Y-15201483D01*
X72740196Y-15201480D01*
X72441300Y-15036287D01*
X72311487Y-14982517D01*
X72125796Y-14905601D01*
X72041448Y-14881300D01*
X71797646Y-14811062D01*
X71797637Y-14811060D01*
X71460971Y-14753858D01*
X71460959Y-14753856D01*
X71120000Y-14734709D01*
X70779040Y-14753856D01*
X70779028Y-14753858D01*
X70442362Y-14811060D01*
X70442353Y-14811062D01*
X70114207Y-14905600D01*
X70114204Y-14905601D01*
X70021796Y-14943877D01*
X69798699Y-15036287D01*
X69499803Y-15201480D01*
X69499798Y-15201483D01*
X69221296Y-15399092D01*
X68966654Y-15626654D01*
X68739092Y-15881296D01*
X68541483Y-16159798D01*
X68541480Y-16159803D01*
X68376287Y-16458699D01*
X68245600Y-16774207D01*
X68151062Y-17102353D01*
X68151060Y-17102362D01*
X68093858Y-17439028D01*
X68093856Y-17439040D01*
X68074709Y-17780000D01*
X43466342Y-17780000D01*
X40436930Y-14750588D01*
X40436928Y-14750586D01*
X40296788Y-14648768D01*
X40142445Y-14570127D01*
X39977701Y-14516598D01*
X39977699Y-14516597D01*
X39977698Y-14516597D01*
X39846271Y-14495781D01*
X39806611Y-14489500D01*
X39806610Y-14489500D01*
X23627204Y-14489500D01*
X23560165Y-14469815D01*
X23539523Y-14453181D01*
X23486930Y-14400588D01*
X23486928Y-14400586D01*
X23346788Y-14298768D01*
X23192445Y-14220127D01*
X23027701Y-14166598D01*
X23027699Y-14166597D01*
X23027698Y-14166597D01*
X22896271Y-14145781D01*
X22856611Y-14139500D01*
X17956611Y-14139500D01*
X17783389Y-14139500D01*
X17743728Y-14145781D01*
X17612302Y-14166597D01*
X17447552Y-14220128D01*
X17293211Y-14298768D01*
X17153073Y-14400585D01*
X17000475Y-14553182D01*
X16939151Y-14586666D01*
X16912795Y-14589500D01*
X16722130Y-14589500D01*
X16722123Y-14589501D01*
X16662516Y-14595908D01*
X16527671Y-14646202D01*
X16527664Y-14646206D01*
X16412455Y-14732452D01*
X16412452Y-14732455D01*
X16326206Y-14847664D01*
X16326202Y-14847671D01*
X16275908Y-14982517D01*
X16269501Y-15042116D01*
X16269500Y-15042135D01*
X15740500Y-15042135D01*
X15740500Y-13324500D01*
X15760185Y-13257461D01*
X15812989Y-13211706D01*
X15864500Y-13200500D01*
X75575500Y-13200500D01*
X75642539Y-13220185D01*
G37*
%TD.AperFunction*%
%TD*%
M02*
